<svg xmlns="http://www.w3.org/2000/svg" width="78" height="97"><path fill="#a83657" d="M28.773 40.656c-2.478 0-4.395-.138-5.39-.376-.532-.128-1.092-.246-1.66-.366-2.228-.472-4.795-1.015-6.43-2.342v6.104c.334 2.105 1.372 5.462 2.893 6.12.203.087.811.35 1.911-.393l2.69-2.81a.828.828 0 011.385.31c.57 1.707 2.64 6.3 5.343 7.036 1.096.298 2.219-.053 3.426-1.074.744-1.214 2.477-4.362 2.56-6.007a.83.83 0 011.591-.279c.453 1.072 2.037 3.991 3.906 4.622.639.216 1.263.143 1.906-.223 3.403-1.94 2.725-5.244 2.695-5.384a.828.828 0 011.504-.627c.506.777 2.148 2.827 3.638 2.954.527.046 1.01-.173 1.472-.67 1.85-1.993 1.596-3.175 1.421-3.568a6.288 6.288 0 01-.156-.253.824.824 0 01.236-1.086.83.83 0 011.107.131c.017.02.116.138.227.344.465.699 1.568 2.037 2.625 2.054.586.01 1.2-.425 1.792-1.291l-.426-9.068a3.656 3.656 0 01-.537.387c-7.457 4.275-21.607 5.754-29.73 5.755zm-13.48 15.72a.83.83 0 01-.011.142c-.007.046-.186 1.36 1.046 2.866 1.426 1.743 4.908 3.919 13.404 4.39a62.617 62.617 0 0018.33-1.725c6.518-1.622 10.853-3.874 12.033-5.052l-.522-11.122c-.585.432-1.212.65-1.877.65h-.054c-.931-.017-1.755-.466-2.42-1.019-.25.816-.782 1.78-1.793 2.868-.81.87-1.788 1.285-2.833 1.193-1.314-.114-2.505-.993-3.385-1.87-.31 1.598-1.256 3.445-3.485 4.715-1.065.607-2.163.725-3.263.353-1.676-.567-3-2.212-3.847-3.565-.776 2.113-2.13 4.317-2.333 4.644a.817.817 0 01-.159.186c-1.273 1.108-2.562 1.665-3.846 1.665-.401 0-.802-.054-1.201-.163-3.073-.837-5.117-4.791-5.994-6.857l-1.846 1.93a.855.855 0 01-.124.106c-1.57 1.099-2.818.933-3.587.6-.942-.408-1.672-1.273-2.232-2.28zm0-22.223v.025c.076 2.51 2.856 3.29 6.773 4.12.584.123 1.158.245 1.704.376 3.662.876 24.49.194 33.906-5.205.27-.155 1.006-.812 1.283-1.643a1.871 1.871 0 00.08-.933c-.166-.928-1.49-3.207-10.047-4.81v7.456c0 .245-.11.477-.298.634-.789.655-1.668.87-2.484.87-1.517 0-2.813-.744-2.895-.792a.825.825 0 01-.41-.712v-8.197c-.26-.027-.485-.052-.686-.074-1.159-.127-1.448-.16-2.877-.116v7.625a.826.826 0 01-.298.635c-.788.655-1.668.87-2.483.87-1.517 0-2.813-.745-2.895-.793a.825.825 0 01-.409-.712v-7.26c-1.109.149-1.682.333-2.4.565-.394.127-.836.269-1.412.42v8.255c0 .245-.11.477-.298.634-.788.655-1.668.87-2.483.87-1.518 0-2.814-.744-2.896-.792a.825.825 0 01-.409-.712v-6.355c-5.519 2.361-8.072 4.797-8.066 5.751zm45.378-3.55c.1.557.054 1.087-.083 1.573l.544 11.574a.834.834 0 01.002.04l.254 5.422c.038.004.076.01.113.02 6.971 1.676 15.447 4.825 16.238 10.314.081.566.07 1.113-.011 1.629l-.243 21.024a4.572 4.572 0 01-1.671 3.413C69.925 90.43 54 96.999 32.739 97c-1.883 0-3.805-.051-5.769-.16-12.278-.68-20.468-3.488-24.342-8.347C.178 85.421.405 82.592.473 82.066v-17.85c-.039-1.76.825-7.71 13.164-12.471v-7.943l-.015-.1a.822.822 0 01.015-.308v-9.208c-.042-2.629 4.987-5.634 9.722-7.575v-6.845c0-.456.371-.826.829-.826h1.386v-1.638c-1.014-.01-1.832-.314-2.44-.907-1.607-1.566-1.237-4.596-.911-7.27.091-.748.177-1.455.203-2.033.121-2.64 2.526-4.726 3.728-5.058.758-.208 1.117.23 1.21.368.431.65-.128 1.354-.312 1.586-.75.945-.5 1.537 1.109 4.137.35.567.747 1.209 1.173 1.94 1.244 2.139.96 3.71.503 4.652-.603 1.245-1.758 1.98-2.606 2.314v1.91h1.386c.457 0 .828.369.828.825v5.023c.336-.097.622-.19.902-.28.796-.255 1.484-.477 2.834-.647a.83.83 0 01.076-.006v-6.069c0-.456.371-.826.829-.826h1.385v-1.639c-1.063-.01-1.921-.342-2.559-.99-1.803-1.831-1.186-5.588-.735-8.331.057-.348.111-.674.155-.972.392-2.644 2.787-4.77 3.91-5 .525-.107.89.143 1.057.413.39.634-.147 1.311-.35 1.566-.96 1.211-.545 2.03 1.374 5.308l.45.769c1.325 2.278 1.041 3.913.57 4.883-.523 1.08-1.458 1.753-2.215 2.075v1.918h1.386c.458 0 .828.37.828.826V23.5c1.506-.043 1.876-.003 3.059.127l.505.055v-5.133c0-.456.37-.826.828-.826h1.386v-1.638c-1.013-.01-1.831-.314-2.44-.907-1.606-1.565-1.236-4.597-.91-7.27.091-.749.177-1.455.203-2.034.12-2.64 2.525-4.725 3.727-5.057.759-.21 1.117.229 1.21.369.432.649-.128 1.353-.311 1.585-.75.945-.5 1.537 1.108 4.138.35.566.748 1.208 1.173 1.938 1.245 2.14.96 3.712.504 4.654-.604 1.244-1.758 1.98-2.607 2.313v1.91h1.386c.458 0 .829.37.829.825v5.855c7.251 1.32 11.18 3.405 11.679 6.2zm14.747 34.325c-4.075 2.336-13.8 6.566-33.155 8.648-6.331.682-12.305.975-17.007.975-4.066 0-7.18-.219-8.753-.595-.901-.216-1.834-.414-2.822-.623-4.345-.92-9.103-1.926-11.55-4.708v13.5a.83.83 0 01-.013.14c-.015.097-.37 2.51 1.852 5.257 2.47 3.052 8.48 6.859 23.092 7.668 2.001.111 3.952.164 5.842.164 23.11 0 37.887-7.769 41.859-11.02a2.913 2.913 0 001.065-2.17l.205-17.703a3.348 3.348 0 01-.615.467zm-13.652-7.676a.825.825 0 01-.167.536c-1.175 1.551-6.179 4.133-13.136 5.864a64.32 64.32 0 01-15.385 1.866 62.33 62.33 0 01-3.439-.095c-7.367-.408-12.297-2.112-14.653-5.067-1.488-1.865-1.396-3.618-1.35-4.032v-2.802C5.075 56.966 2.06 61.245 2.13 64.18v.02c.139 5.03 6.115 6.294 11.895 7.517.999.212 1.942.411 2.865.632 6.233 1.491 41.68.333 57.702-8.853.372-.213 1.233-1.124 1.48-2.437a.822.822 0 01.034-.216 3.896 3.896 0 00-.008-1.063c-.294-2.045-2.594-5.899-14.63-8.856zM25.016 34.24c.617.26 1.815.627 2.772.088V20.592h-2.772zm9.898-1.98c.616.26 1.814.628 2.771.088V18.613h-2.771zm9.649.762c.616.26 1.815.627 2.772.088V19.374h-2.772z"/></svg>