<svg xmlns="http://www.w3.org/2000/svg" width="95" height="135"><path fill="#a93958" d="M28.59 80.447c-6.524-.699-11.097-3.199-14.213-6.305-1.305 2.23-3.83 6.965-6.192 12.364a63.956 63.956 0 008.777 4.186c1.074.414 1.215 1.969 0 2.33-3.108.925-8.317 2.268-11.546.451a63.727 63.727 0 00-1.57 5.07c1.13.443 2.288.794 3.488 1.036 1.592.32 3.18.156 4.752.414 1.448.237 2.483 1.448 1.652 2.92-.968 1.717-4.185 2.535-5.94 2.833a13.568 13.568 0 01-5.026-.096c-.045 12.154 3.645 18.838 11.577 20.877.133-.723.401-1.336.805-1.846 1.303-1.651 3.538-1.632 5.17-1.634.453.004 1.103.004 1.424-.044.644-1.123 2.709-5.04 3.978-11.062 1.31-6.215 1.172-22.504 1.17-22.668a1.345 1.345 0 012.69-.026c.006.681.141 16.748-1.23 23.248-1.61 7.645-4.42 12.103-4.54 12.29a1.36 1.36 0 01-.351.37c-.828.59-1.95.587-3.153.58-1.197.002-2.557-.01-3.048.613-.247.312-.58 1.175-.04 3.408.097.214.514.54 1.185.875.52-1.454 1.654-3.39 4.054-3.789a1.339 1.339 0 011.547 1.106 1.344 1.344 0 01-1.106 1.547c-1.087.18-1.667 1.203-1.962 2.03.594.142 1.246.26 1.944.335 2.733.293 4.879-.211 5.738-1.356 2.642-3.525 4.63-14.096 4.63-19.23v-16.94a1.345 1.345 0 012.688-.066c.711 14.504 1.87 30.836 2.598 32.5.54.93 3.486 5.546 8.405 4.987 3.607-.408 7.538-2.542 8.248-4.478.044-.12.085-.261.1-.421-2.787.051-3.453.925-3.471 1.267.002-.05-.003-.077-.003-.077l-2.679.243c-.019-.21-.066-1.311.894-2.362.763-.835 1.928-1.376 3.476-1.617-.564-.37-1.128-.555-1.685-.555h-.028c-1.406.016-2.476 1.184-2.481 1.19-.25.286-.61.452-.989.458a1.372 1.372 0 01-1.003-.424c-.219-.234-5.37-5.802-6.629-13.561-1.217-7.497-.528-21.629-.498-22.226a1.36 1.36 0 011.41-1.275 1.344 1.344 0 011.275 1.41c-.007.143-.705 14.44.468 21.66.838 5.168 3.703 9.361 5.124 11.178.778-.53 1.903-1.074 3.255-1.099 1.725-.035 3.33.747 4.803 2.313.95 1.01 1.444 2.142 1.456 3.292 2.889-.754 5.036-2.303 6.39-4.61 2.486-4.236 2.413-11.375-.199-19.586a49.23 49.23 0 00-1.11-3.087 10.26 10.26 0 01-9.789 2.788c-1.26-.304-1.028-1.93 0-2.33 3.032-1.183 5.543-3.23 7.347-5.934a.738.738 0 01.038-.054 166.425 166.425 0 00-1.787-3.698 12.496 12.496 0 01-3.953 2.188c-1.59.531-3.882 1.04-5.378.003-1.242-.863-1.225-2.26-.248-3.32 1.788-1.94 4.136-3.551 6.142-5.265a1.36 1.36 0 01.089-.07 327.29 327.29 0 00-5.902-10.53c-4.184 4.372-10.244 7.451-17.872 7.451-1.027 0-2.084-.055-3.167-.171zm18.657 53.981c-6.582.738-10.345-5.126-11.032-6.31-.44-.757-.87-3.835-1.266-7.933-.898 4.693-2.358 9.51-4.174 11.933-1.512 2.014-4.154 2.511-6.39 2.511-1.491 0-2.803-.222-3.474-.36a17.161 17.161 0 01-2.043-.55c-2.05-.697-3.886-1.807-4.248-3.3a15.55 15.55 0 01-.229-1.117c-9.72-2.136-14.403-9.954-14.307-23.86.002-.278.01-.562.025-.85-.29-.436-.236-1.014.117-1.431.123-1.116.324-2.281.585-3.475-.36-.5-.124-1.218.38-1.597 1.258-4.921 3.381-10.158 5.265-14.3a142.523 142.523 0 014.392-8.827c.768-1.412 1.295-2.337 1.676-2.95a20.415 20.415 0 01-1.83-2.913L7.62 69.9a1.344 1.344 0 11-.679-2.602l2.665-.695a19.75 19.75 0 01-.781-2.794l-5.23-.03a1.345 1.345 0 01.008-2.69h.008l4.894.029a26.52 26.52 0 01.047-2.758l-3.778-.803a1.344 1.344 0 11.558-2.63l3.491.742c.913-6.825 3.642-15.538 7.666-21.756.272-.422.755-.66 1.258-.608.5.049.932.373 1.119.839.035.09 3.672 8.995 10.597 10.294 5.643 1.059 12.794-7.266 15.08-10.56a1.344 1.344 0 012.284.12c.336.616 6.16 11.339 8.171 20.676l3.684-1.464a1.344 1.344 0 11.993 2.499l-4.202 1.67c.067.515.119 1.022.153 1.518l3.878-.456a1.345 1.345 0 01.314 2.67l-4.197.495a11.223 11.223 0 01-.35 2.022l3.65.623a1.346 1.346 0 01-.453 2.652l-4.155-.71a24.51 24.51 0 01-2.865 4.84c.07.072.133.153.186.243.447.75 10.347 17.42 14.38 28.284 6.29-6.492 10.797-11.504 10.506-33.965-.195-15.033-8.952-26.375-17.081-31.977-6.445-4.441-13.35-6.02-18.548-4.253-.927.888-4.302 3.753-9.107 3.736-4.09-.029-8.05-2.134-11.775-6.257-4.466-4.944-5.498-10.853-2.832-16.211C20.54 3.875 28.895-.315 37.495.437c7.323.642 18.172 2.494 28.27 7.675 11.942 6.126 19.912 15.351 23.692 27.418 4.77 15.232 6.133 31.61 3.739 44.933-2.946 16.395-11.36 27.37-24.358 31.803.234 3.865-.22 7.882-2.14 11.157-1.875 3.195-4.884 5.235-8.942 6.063a1.341 1.341 0 01-.702-.045c-1.866 2.635-6.238 4.584-9.807 4.987zm-18.28-87.346c-5.945-1.116-9.72-6.468-11.466-9.62-3.14 5.7-5.294 13.04-6.038 18.767l4.017.853a1.343 1.343 0 11-.558 2.63l-3.71-.788a22.539 22.539 0 00-.015 2.21l3.046.017a1.344 1.344 0 01-.008 2.689h-.008l-2.692-.015c.152.742.35 1.449.586 2.121l1.775-.463a1.345 1.345 0 11.679 2.603l-1.323.345c.498.878 1.07 1.683 1.7 2.42a1.33 1.33 0 01.448.505c3.873 4.178 9.578 6 13.476 6.417 11.978 1.284 19.418-5.228 22.694-12.049l-1.285-.219a1.345 1.345 0 01.453-2.652l1.864.319c.125-.386.22-.802.284-1.244l-1.283.15a1.345 1.345 0 01-.314-2.67l1.678-.198a21.65 21.65 0 00-.068-.808l-3.131 1.244a1.339 1.339 0 01-1.746-.753 1.344 1.344 0 01.753-1.746l3.693-1.467c-1.307-6.347-4.732-14.034-7.023-18.534-2.834 3.56-9.783 11.187-16.478 9.936zm-7.375 21.1a1.345 1.345 0 012.183-1.573c2.747 3.817 5.773 1.948 5.9 1.866 1.792-1.144 1.488-2.329 1.46-2.426a1.345 1.345 0 012.4-1.183c.963 1.547 2.585 3.325 3.373 3.406 4.085.412 5.174-2.725 5.282-3.074a1.344 1.344 0 112.58.757c-.572 1.954-3.002 5.518-8.135 4.991-1.275-.13-2.518-1.126-3.494-2.178-.424.685-1.068 1.367-2.019 1.974-1.134.724-2.246 1.016-3.296 1.016-2.807 0-5.16-2.086-6.234-3.576zM33.58 57.118a1.34 1.34 0 01.14-1.885 1.348 1.348 0 011.893.125c.241.273 1.045.976 1.869.976h.01c.543-.004 1.097-.33 1.645-.969a1.344 1.344 0 112.04 1.753c-1.353 1.575-2.756 1.905-3.695 1.905-2.2 0-3.734-1.71-3.902-1.905zm-11.915.719a1.345 1.345 0 112.039-1.753c.176.204 1.007.968 1.863.968.546 0 1.104-.326 1.656-.968a1.345 1.345 0 012.039 1.753c-1.354 1.574-2.757 1.904-3.695 1.904-2.201 0-3.734-1.71-3.902-1.904zM86.89 36.334c-.189-.604-.4-1.231-.637-1.878a1.169 1.169 0 01-.102.03 50.137 50.137 0 00-3.759 1.069c-2.395 1.033-4.655 2.44-7.39 2.537-.839.03-1.61-1.082-1.043-1.818 2.59-3.36 6.03-5.728 10.107-6.786C78.48 18.722 65.837 5.618 37.26 3.116c-7.524-.653-14.794 2.925-17.675 8.715-2.179 4.378-1.32 9.07 2.42 13.21 3.187 3.53 6.473 5.336 9.766 5.37h.092c4.314 0 7.281-3.098 7.308-3.126.144-.156.323-.276.522-.349 6.136-2.248 13.889-.62 21.271 4.467C69.647 37.387 79 49.501 79.21 65.559c.31 23.936-4.934 29.344-11.572 36.19l-.657.68c.592 1.963 1.211 4.43 1.58 7.084 16.187-5.856 22.292-22.11 22.971-39.427-.409.05-.814.074-1.166.11-2.575.271-5.15.206-7.719-.11-1.084-.133-1.775-1.623-.61-2.251 2.999-1.616 6.236-2.232 9.557-1.856-.02-2.3-.127-4.606-.312-6.896-.885.354-1.883.518-2.837.667-2.552.4-5.067.335-7.616-.04-1.162-.17-.997-1.666-.288-2.208 2.964-2.263 6.491-3.327 10.211-3.128l.04.003a107.966 107.966 0 00-1.455-8.636c-2.072 1.055-4.193 1.997-6.418 2.524-.254.164-.509.329-.76.503-.533.372-1.052.221-1.386-.14-.737.073-1.486.098-2.25.055-1.265-.07-1.556-1.544-.61-2.252a36.387 36.387 0 0110.321-5.395 97.839 97.839 0 00-1.342-4.702zm-5.274-3.371a42.08 42.08 0 012.705-.883 1.324 1.324 0 01-.153-.107c-.883.263-1.736.592-2.552.99z"/></svg>