<svg xmlns="http://www.w3.org/2000/svg" width="378" height="202"><defs><filter id="a" width="415" height="244" x="-19" y="-25" filterUnits="userSpaceOnUse"><feOffset dy="7" in="SourceGraphic" result="FeOffset1334Out"/><feGaussianBlur in="FeOffset1334Out" result="FeGaussianBlur1335Out" stdDeviation="11.6 11.6"/></filter><mask id="b" width="2" height="2" x="-1" y="-1"><path fill="#fff" d="M20 14h337v159H20z"/><path d="M222.464 172.999c-75.51 0-165.444-24.806-165.444-86.73 0-1.077.022-2.136.065-3.179-6.704-2.164-18.488-9.088-32.944-30.752-8.501-12.738-2.805-18.87 7.192-14.36 13.494 6.088 26.113 9.88 37.655 12.06 23.507-28.379 78.395-32.29 135.295-34.841C324.607 9.802 357.001 34.81 357.001 96.734c0 61.923-59.026 76.265-134.537 76.265z"/></mask></defs><g filter="url(#a)"><path fill="none" d="M222.464 172.999c-75.51 0-165.444-24.806-165.444-86.73 0-1.077.022-2.136.065-3.179-6.704-2.164-18.488-9.088-32.944-30.752-8.501-12.738-2.805-18.87 7.192-14.36 13.494 6.088 26.113 9.88 37.655 12.06 23.507-28.379 78.395-32.29 135.295-34.841C324.607 9.802 357.001 34.81 357.001 96.734c0 61.923-59.026 76.265-134.537 76.265z" mask="url(&quot;#b&quot;)"/><path fill-opacity=".09" d="M222.464 172.999c-75.51 0-165.444-24.806-165.444-86.73 0-1.077.022-2.136.065-3.179-6.704-2.164-18.488-9.088-32.944-30.752-8.501-12.738-2.805-18.87 7.192-14.36 13.494 6.088 26.113 9.88 37.655 12.06 23.507-28.379 78.395-32.29 135.295-34.841C324.607 9.802 357.001 34.81 357.001 96.734c0 61.923-59.026 76.265-134.537 76.265z"/></g><path fill="#fff" d="M222.464 172.999c-75.51 0-165.444-24.806-165.444-86.73 0-1.077.022-2.136.065-3.179-6.704-2.164-18.488-9.088-32.944-30.752-8.501-12.738-2.805-18.87 7.192-14.36 13.494 6.088 26.113 9.88 37.655 12.06 23.507-28.379 78.395-32.29 135.295-34.841C324.607 9.802 357.001 34.81 357.001 96.734c0 61.923-59.026 76.265-134.537 76.265z"/></svg>