<svg xmlns="http://www.w3.org/2000/svg" width="357" height="233"><defs><filter id="a" width="396" height="277" x="-21" y="-26" filterUnits="userSpaceOnUse"><feOffset dy="7" in="SourceGraphic" result="FeOffset1314Out"/><feGaussianBlur in="FeOffset1314Out" result="FeGaussianBlur1315Out" stdDeviation="11.6 11.6"/></filter><mask id="b" width="2" height="2" x="-1" y="-1"><path fill="#fff" d="M18 13h318v192H18z"/><path d="M336.001 106.359c0 73.367-21.532 106.406-152.861 96.604-48.453-3.617-95.529-7.063-122.972-28.558-8.508 3.312-18.373 6.606-29.804 9.75-10.983 3.023-15.708-1.92-7.198-17.013 7.16-12.702 11.413-23.48 13.877-32.295-.859-4.963-1.305-10.315-1.305-16.089 0-73.367 71.971-114.867 165.6-102.757C276.295 25.697 336 43.305 336 106.36z"/></mask></defs><g filter="url(#a)"><path fill="none" d="M336.001 106.359c0 73.367-21.532 106.406-152.861 96.604-48.453-3.617-95.529-7.063-122.972-28.558-8.508 3.312-18.373 6.606-29.804 9.75-10.983 3.023-15.708-1.92-7.198-17.013 7.16-12.702 11.413-23.48 13.877-32.295-.859-4.963-1.305-10.315-1.305-16.089 0-73.367 71.971-114.867 165.6-102.757C276.295 25.697 336 43.305 336 106.36z" mask="url(&quot;#b&quot;)"/><path fill-opacity=".09" d="M336.001 106.359c0 73.367-21.532 106.406-152.861 96.604-48.453-3.617-95.529-7.063-122.972-28.558-8.508 3.312-18.373 6.606-29.804 9.75-10.983 3.023-15.708-1.92-7.198-17.013 7.16-12.702 11.413-23.48 13.877-32.295-.859-4.963-1.305-10.315-1.305-16.089 0-73.367 71.971-114.867 165.6-102.757C276.295 25.697 336 43.305 336 106.36z"/></g><path fill="#fff" d="M336.001 106.359c0 73.367-21.532 106.406-152.861 96.604-48.453-3.617-95.529-7.063-122.972-28.558-8.508 3.312-18.373 6.606-29.804 9.75-10.983 3.023-15.708-1.92-7.198-17.013 7.16-12.702 11.413-23.48 13.877-32.295-.859-4.963-1.305-10.315-1.305-16.089 0-73.367 71.971-114.867 165.6-102.757C276.295 25.697 336 43.305 336 106.36z"/></svg>