<svg xmlns="http://www.w3.org/2000/svg" width="348" height="243"><defs><filter id="a" width="385" height="287" x="-19" y="-26" filterUnits="userSpaceOnUse"><feOffset dy="7" in="SourceGraphic" result="FeOffset1354Out"/><feGaussianBlur in="FeOffset1354Out" result="FeGaussianBlur1355Out" stdDeviation="11.6 11.6"/></filter><mask id="b" width="2" height="2" x="-1" y="-1"><path fill="#fff" d="M20 13h307v202H20z"/><path d="M192.45 212.999c-80.22 9.311-165.46-29.367-165.46-102.677 0-18.216 4.437-32.328 12.264-43.311C37.004 57.574 32.621 45.55 24.42 31c-8.503-15.08-3.782-20.02 7.192-17 26.634 7.328 44.764 15.467 57.01 22.749 24.9-6.843 54.982-8.938 85.647-10.566C294.604 19.797 327 49.402 327 122.712c0 73.308-59.536 81.579-134.55 90.287z"/></mask></defs><g filter="url(#a)"><path fill="none" d="M192.45 212.999c-80.22 9.311-165.46-29.367-165.46-102.677 0-18.216 4.437-32.328 12.264-43.311C37.004 57.574 32.621 45.55 24.42 31c-8.503-15.08-3.782-20.02 7.192-17 26.634 7.328 44.764 15.467 57.01 22.749 24.9-6.843 54.982-8.938 85.647-10.566C294.604 19.797 327 49.402 327 122.712c0 73.308-59.536 81.579-134.55 90.287z" mask="url(&quot;#b&quot;)"/><path fill-opacity=".09" d="M192.45 212.999c-80.22 9.311-165.46-29.367-165.46-102.677 0-18.216 4.437-32.328 12.264-43.311C37.004 57.574 32.621 45.55 24.42 31c-8.503-15.08-3.782-20.02 7.192-17 26.634 7.328 44.764 15.467 57.01 22.749 24.9-6.843 54.982-8.938 85.647-10.566C294.604 19.797 327 49.402 327 122.712c0 73.308-59.536 81.579-134.55 90.287z"/></g><path fill="#fff" d="M192.45 212.999c-80.22 9.311-165.46-29.367-165.46-102.677 0-18.216 4.437-32.328 12.264-43.311C37.004 57.574 32.621 45.55 24.42 31c-8.503-15.08-3.782-20.02 7.192-17 26.634 7.328 44.764 15.467 57.01 22.749 24.9-6.843 54.982-8.938 85.647-10.566C294.604 19.797 327 49.402 327 122.712c0 73.308-59.536 81.579-134.55 90.287z"/></svg>