<svg xmlns="http://www.w3.org/2000/svg" width="111" height="91"><path fill="#ffb713" d="M84.23 90.989h-.033L24.29 88.955a.964.964 0 01-.686-.32l-8.615-9.132a.967.967 0 01-.258-.565l-3.068-29.595a.958.958 0 01-.47-.757 5.623 5.623 0 01-.01-.142c-.055-.42-.546-2.526-4.848-2.748-3.491-.18-5.25-.006-5.267-.004a.968.968 0 01-.952-1.417c.07-.132 1.787-3.336 8.174-14.117.367-.62.77-1.199 1.205-1.736l-.349-3.36A.968.968 0 0110.035 24l6.27-.703c-2.635-3.349-3.307-7.49-1.572-10.58.742-1.322 1.837-2.332 3.216-3.014l11.377-6.745a.972.972 0 01.29-.114c.14-.03 3.486-.734 7.247-.346 5.185.532 8.62 2.888 9.934 6.81.91 2.715 1.536 4.755 1.963 6.294 1.355-4.196 4.075-10.348 8.98-13.537C60.846.044 64.389-.497 68.27.454c.215.053 5.179 1.348 10.82 6.774 1.862 1.535 3.399 3.526 4.35 5.675.923 2.084 1.184 4.057.825 5.768.096.02.191.042.287.064 6.805 1.534 11.25 4.986 12.795 6.346.546-3.58 2.064-6.149 4.237-7.05 1.444-.597 3.797-.725 6.804 2.065 6.01 5.577-.165 19.355-.43 19.939a.965.965 0 01-.609.526c-1.886.55-3.79.82-5.628.82-3.256 0-6.31-.847-8.705-2.489-2.414-1.654-3.865-3.969-4.086-6.517-.145-1.66.318-3.027 1.374-4.062 1.462-1.433 3.787-1.865 5.537-1.971-1.594-1.344-5.736-4.396-11.812-5.743a27.84 27.84 0 00-.44-.094c-.66 1.19-1.704 2.176-3.11 2.88-2.416 1.21-5.43 2.342-8.573 3.358l12.825 8.506a.971.971 0 01.464.835v53.937a.965.965 0 01-.966.968zM12.333 25.815l.236-.155-.352.04zM21.3 52.958l-.965-16.457-2.968-2.953c-.256.23-.5.48-.732.747-2.402 2.764-3.206 6.995-3.455 10.11zm-4.677-21.513a.966.966 0 01.683-.285c1.457-.949 3.148-1.487 5.053-1.606 6.747-.419 14.099.483 19.179 1.338-6.278-3.05-16.549-7.057-24.181-5.18-3.25.798-5.742 2.627-7.405 5.434-4.062 6.856-6.246 10.671-7.298 12.54.217-.003.453-.006.71-.006.819 0 1.842.022 3.071.085 2.262.117 3.759.706 4.75 1.431l.018-.317a.973.973 0 01.028-.422c.25-3.41 1.134-8.195 3.946-11.431.38-.436.782-.831 1.208-1.186a.965.965 0 01.238-.395zm5.053 3.663H43.81l-5.02-2.679c-4.76-.698-10.8-1.288-16.31-.944-1.294.08-2.464.395-3.502.94zm26.24 0h11.029c-.682-.724-1.38-1.294-2.084-1.665-2.186-1.154-3.913-1.414-5.219-1.286-.247.036-.496.076-.747.122-1.617.378-2.397 1.335-2.454 1.408l-.003.003a.964.964 0 01-.988.346c-.035-.009-.99-.236-2.583-.555zm12.357 1.934l-.889 18.168c2.873.026 5.673.056 8.296.085-.976-5.192-3.778-13.363-7.187-18.253zm-1.907 20.092h-.034c-25.59-.23-32.857-.034-34.844.125l.553 9.432H47.63a.98.98 0 01.093 0h35.54v-9.262c-1.012-.015-2.788-.04-5.112-.071-.052 1.134-.31 1.992-.805 2.451a1.624 1.624 0 01-1.089.428c-.34 0-.746-.107-1.205-.423-1.754-1.208-3.238-1.704-4.179-1.397-.712.231-.948.88-.958.907a.972.972 0 01-1.11.632.96.96 0 01-.77-1.008c.033-.459.01-1.039-.061-1.715-3.017-.034-6.273-.068-9.608-.099zm24.897-1.64V37.042H69.407c1.514 1.637 2.905 3.534 4.138 5.657 2.47 4.255 4.133 9.185 4.526 12.724 2.355.03 4.159.056 5.192.071zm-2.24-20.386l-11.497-7.625c-4.048 1.215-8.113 2.223-11.223 2.938a18.967 18.967 0 015.242 1.955 21.954 21.954 0 013.877 2.732zM68.526 4.847a8.626 8.626 0 013.541-.573c-2.517-1.48-4.237-1.936-4.265-1.944-3.333-.817-6.366-.362-9.007 1.353-6.276 4.077-8.728 14.063-9.191 16.212a1.486 1.486 0 01-.085.512l-.715 10.356c.205-.053.41-.104.614-.151a.966.966 0 01.345-.701 68.494 68.494 0 012.96-2.344c2.302-6.008 8.3-19.8 15.803-22.72zM47.674 19.682c-.029-.556-.335-2.67-2.709-9.76-1.069-3.195-3.861-5.046-8.3-5.502-3.037-.31-5.834.16-6.497.285L23.481 8.67c1.407.05 2.925.287 4.525.718 5.652 1.525 10.533 5.657 14.115 11.955 2.676 4.706 3.684 8.911 3.726 9.088a.963.963 0 01-.004.46l.177.134c.294.162.561.312.8.448l.787-11.406a.992.992 0 01.018-.13c.008-.048.025-.134.049-.255zm-31.257-6.019c-1.562 2.783-.518 6.765 2.54 9.682a.98.98 0 01.09.099c4.953-.6 11.099.562 18.31 3.464.391.157.776.316 1.153.475a173.913 173.913 0 01-9.376-8.76c-3.87-3.89-5.382-6.373-4.829-7.964-3.74-.358-6.59.692-7.888 3.004zm8.819 73.389l21.474.728V68.625H24.155zm23.406.794l7.212.245a.976.976 0 01-.005-.15l.945-19.316h-8.152zm9.137.19a.978.978 0 01-.013.12l25.497.864V68.625H58.73zm-41.16-9.622l6.585 6.98-.984-16.77h-.943a.966.966 0 01-.588-.199l-5.547-4.26zm4.893-21.85a.995.995 0 01-.004-.063l-.032-.55-8.066-8.496 1.458 14.063 6.737 5.173h.501zm36.826-19.522h-9.696v18.083c2.66.016 5.587.039 8.809.067zm-11.628 0H22.301l1.075 18.32c2.259-.21 8.007-.332 23.334-.248zM71.637 6.204c-.816 0-1.626.14-2.41.446-3.51 1.367-7.327 5.973-11.037 13.32a88.339 88.339 0 00-2.548 5.54c2.897-1.919 6.117-3.687 9.581-5.025a32.725 32.725 0 002.704-3.127c4.526-5.99 4.175-9.856 3.856-11.153a7.157 7.157 0 00-.146-.001zm7.977 15.451c.844-.422 1.46-.933 1.901-1.494-4.912-.625-10.021.048-15.203 1.98-2.578 2.591-5.363 4.677-7.714 6.218 6.122-1.436 15.392-3.888 21.016-6.704zm2.06-7.969c-.82-1.854-2.167-3.6-3.781-4.938a.976.976 0 01-.07-.058c-1.225-1.002-2.6-1.768-4.016-2.171.297 2.149-.008 6.273-4.34 12.006-.189.25-.38.496-.576.74 4.239-1.181 8.774-1.643 13.478-.94.383-1.78-.251-3.637-.695-4.639zM71.478 56.393c1.331 0 2.887.605 4.644 1.81.566-1.629-.727-9.61-5.618-16.698-1.092-1.582-2.414-3.192-3.984-4.628a.972.972 0 01-.201-.182c-2.01-1.793-4.417-3.296-7.26-4.104.92.732 1.803 1.697 2.64 2.827a.97.97 0 01.13.177c4.256 5.86 7.316 15.934 8.002 21.161.123-.06.253-.114.391-.16a3.836 3.836 0 011.256-.203zM26.116 11.316c.007 0-.32 1.212 4.387 5.943 5.324 5.352 9.98 9.339 12.889 11.699-1.478-4.397-6.004-15.026-15.869-17.696-.6-.122-1.27-.074-1.407.054zm28.905 16.962a53.982 53.982 0 004.39-2.843 56.023 56.023 0 00-4.39 2.844z"/></svg>