<svg xmlns="http://www.w3.org/2000/svg" width="84" height="49"><path fill="#ffb713" d="M41.401 48.22l-.413.113c-6.307 1.735-27.524-3.467-28.424-3.689-.101-.021-13.036-2.943-12.588-15.058.124-3.364 1.38-5.973 3.735-7.756 5.137-3.889 14.007-2.6 17.08-1.997.572-3.628 2.896-15.146 9.725-18.347l.051-.024c3.29-1.518 7.082-.9 11.273 1.836 7.117 4.647 9.3 13.886 6.313 26.719-2.207 9.48-6.375 17.485-6.552 17.822zM6.573 22.453a8.91 8.91 0 00-1.66.985c-1.88 1.424-2.843 3.464-2.945 6.237-.386 10.44 10.915 12.99 11.029 13.015.24.059 20.696 5.076 27.04 3.806 1.841-3.7 15.277-32.018.725-41.519-3.577-2.336-6.725-2.905-9.355-1.69a.885.885 0 00-.037.016c-6.97 3.266-8.735 17.713-8.752 17.86l-.13 1.118-1.091-.27c-.1-.023-9.112-2.193-14.824.442zm64.258-.34l-.157-.083c-2.396-1.272-7.334-8.784-7.544-9.103-.024-.035-3.105-4.542.459-7.966.99-.951 2.108-1.362 3.324-1.22 2.653.31 4.968 3.192 5.725 4.236 1.2-.902 5.163-3.622 8.132-2.633l.022.007c1.424.484 2.395 1.735 2.886 3.72.835 3.37-1.12 6.695-5.655 9.613-3.35 2.155-6.875 3.326-7.023 3.374z"/></svg>