<svg xmlns="http://www.w3.org/2000/svg" width="185" height="179"><path fill="#a93958" d="M58.813 117.58c5.869-8.106 11.563-13.387 11.803-13.608a1.13 1.13 0 011.404-.099c17.411 11.985 44.336.229 44.606.109a1.13 1.13 0 011.177.159c1.514 1.248 15.056 18.009 27.1 39.02a29.806 29.806 0 002.032 3.12 65.24 65.24 0 0010.5-7.194c-.831-3.525-2.013-6.34-3.487-9.85-.89-2.123-1.9-4.529-2.98-7.456-5.544-15.045-8.1-29.668-9.23-41.246a10.6 10.6 0 01-.674.462c-3.169 1.992-6.929 2.004-11.175.032-12.976-6.024-17.902-12.216-19.768-15.907-1.785 5.405-5.3 16.795-6.115 24.969-.679 6.817-5.444 11.743-9.658 12.568a8.324 8.324 0 01-1.594.156c-5.48.001-9.355-5.628-11.261-9.2-7.199-13.486-8.46-24.077-8.681-27.52a885.62 885.62 0 00-2.988.16c-15.9.88-20.793 9.868-25.969 22.47-4.865 11.848-7.384 39.442-5.516 50.108 1.86 2.218 4.525 4.863 8.21 7.433.205-2.264.627-4.51 1.211-6.708.013-.095.038-.189.075-.28 2.292-8.406 6.943-16.125 10.978-21.698zm82.255-60.143c.238-4.214 1.1-6.959 2.684-8.47a6.674 6.674 0 01-2.787-3.124 1.142 1.142 0 01-.094-.052c-9.876-6.182-15.23-16.59-17.255-21.301a34.745 34.745 0 00-2.181 6.672c-.721 3.298-1.405 6.943-2.068 10.468-.788 4.198-1.477 7.771-2.139 10.685-.01.08-.027.158-.053.232-.824 3.588-1.61 6.15-2.503 7.621 3.77 4.494 8.762 8.493 13.81 11.048 4.785 2.421 9.005 3.199 11.016 2.025.554-.323 1.081-1.013 1.578-1.976-.314-6.937-.119-11.878-.008-13.828zm-29.636 4.986c.285.917.961 2.529 2.534 4.55 2.333 3 7.154 7.52 16.874 12.034 3.557 1.651 6.508 1.684 9.022.103a9.306 9.306 0 001.63-1.317 174.603 174.603 0 01-.227-3.09 3.88 3.88 0 01-.63.462c-.986.577-2.214.847-3.614.847-6.569 0-16.926-5.957-23.967-14.286-.448.248-.99.48-1.622.697zM77.32 65.866l-2.257.114c.23 3.245 1.494 13.624 8.414 26.59 3.098 5.803 6.803 8.613 10.436 7.898 3.824-.747 7.348-5.502 7.856-10.597.915-9.175 4.985-21.844 6.613-26.648-6.293 1.298-17.072 1.94-31.062 2.643zm65.629 78.398c-.53-.924-1.063-1.84-1.596-2.744-17.064 7.968-32.984 10.472-46.246 10.472-7.322 0-13.832-.763-19.28-1.79-13.572-2.557-22.903-7.04-26.216-8.807a36.252 36.252 0 00-.913 6.287c6.754 4.194 16.423 7.93 29.983 8.927 28.187 2.07 49.852-.896 66.25-9.264-.66-.9-1.325-1.933-1.982-3.08zm-26.134-37.937c-2.023.83-8.006 3.104-15.593 4.355-11.87 1.956-22.118.413-29.714-4.463-3.106 3.041-16.698 17.019-21.314 32.945 2.643 1.437 12.206 6.25 26.148 8.863 14.925 2.799 38.038 3.565 63.862-8.438-10.406-17.325-20.955-30.544-23.39-33.262zm-75.04-18.445c3.023-7.362 6.085-13.764 11.33-18.089-3.87.209-7.282 1.589-10.174 4.121-10.092 8.84-10.937 28.805-10.944 29.006a1.117 1.117 0 01-1.123 1.075c-.27 0-.536-.097-.746-.281l-4.885-4.304a1.111 1.111 0 01-.336-1.138l1.15-4.06-3.338 2.71a1.128 1.128 0 01-1.23.127l-7.433-3.842a1.114 1.114 0 01-.548-1.34l1.459-4.396-4.19 5.22a1.13 1.13 0 01-.931.42l-8.769-.414a1.125 1.125 0 01-.921-.559 1.11 1.11 0 01-.023-1.07C7.85 76.321 23.9 60.072 24.06 59.91a1.09 1.09 0 01.113-.1c9.804-7.52 18.54-10.215 25.97-8.002 8.324 2.477 12.304 10.306 13.46 13.025 1.853-.411 3.876-.684 6.095-.807 2.404-.134 4.932-.26 7.51-.39 11.302-.568 26.014-1.308 32.356-2.945a1.12 1.12 0 01.512-.14c1.148-.33 1.963-.696 2.356-1.103l.012-.013c.716-.757 1.438-2.904 2.147-5.734l-9.764 2.356a1.13 1.13 0 01-.98-.224 1.116 1.116 0 01-.408-.914c.003-.04.195-4.003.658-9.16.124-1.384 1.229-2.218 2.115-2.888.652-.493 1.268-.959 1.383-1.484-.116-.314-.676-1.04-1.018-1.482-.87-1.128-1.623-2.104-1.491-3.077.74-5.466 1.614-9.676 2.596-12.512 3.234-9.342 7.625-13.164 7.81-13.323a1.13 1.13 0 01.733-.27h.015l5.341.074-.63-2.56c-.1-.407.039-.836.359-1.11.224-.193 5.574-4.733 10.979-5.88 5.23-1.11 11.288-1.243 11.543-1.248.41.004.768.193.977.528l2.675 4.287.89-2.957c.176-.586.797-.92 1.389-.752.429.123 10.58 3.094 15.907 9.606a1.11 1.11 0 01-.435 1.733c-3.345 1.401-6.056 3.722-7.347 4.951 4.137 3.418 11.092 8.603 17.016 10.293l.041.012c3.275.938 6.228 3.513 8.107 7.07 2.116 4.004 2.523 8.667 1.12 12.796-1.974 5.805-5.796 10.256-10.223 11.91-3.336 1.246-6.924.85-10.375-1.14-1.765-1.017-3.513-2.128-5.202-3.201-2.546-1.618-5.02-3.192-7.175-4.201-.121 4.21-1.004 20.172-7.386 27.644 1.023 11.674 3.514 26.822 9.268 42.436 1.061 2.881 2.062 5.262 2.943 7.363l.358.854c1.529-1.755 4.908-4.963 9.601-5.57 3.845-.5 7.68.852 11.419 4.007 1.702.734 3.29 2.042 4.746 3.914.47.574 5.615 7.447-6.16 20.298-11.759 12.832-30.72 26.085-82.203 27.09-.891.017-1.81.026-2.75.026-14.65 0-34.948-2.285-53.345-12.34-11.77-6.433-17.114-12.933-17.335-13.206l-.045-.06c-.11-.155-2.702-3.86-4.304-8.675-2.191-6.589-1.42-12.044 2.23-15.774 1.594-1.63 3.246-2.647 4.94-3.038 2.557-1.606 8.111-3.36 12.188.798l.163.168c.299-12.994 2.645-30.211 6.25-38.987zm101.537-30.32c-.073 1.29-.184 3.91-.156 7.56 1.125-4.569 1.95-10.21 2.395-14.747-1.273.984-2.025 3.397-2.24 7.188zm.23 17.56c1.813-2.984 3.236-7.225 4.196-12.571 1.08-6.015 1.214-11.489 1.23-12.474a7.113 7.113 0 00-1.112-.223c-.356 3.833-1.643 15.561-4.517 21.758.053 1.12.12 2.292.203 3.51zm15.792 62.302a65.13 65.13 0 005.54-5.707c.142-.169 3.314-3.903 7.702-4.627-2.115-1.077-4.225-1.486-6.304-1.215-5.166.667-8.597 5.277-8.918 5.723.769 1.924 1.432 3.766 1.98 5.826zm-124.682-4.1a.77.77 0 01.033.071c.016.036.313.695.979 1.77a79.75 79.75 0 01-.17-4.937 26.467 26.467 0 00-1.742-1.97c-1.81-1.846-3.955-2.083-5.75-1.796 4.024 1.864 6.528 6.627 6.65 6.861zm107.13-94.066c-6.91-4.78-12.044-17.076-13.922-22.112l-1.655 2.558c-.442.684-.859 1.38-1.25 2.09.906 2.4 5.674 14.002 15.488 21.018a6.531 6.531 0 011.339-3.554zm5.623-2.622a6.654 6.654 0 013.051.903c7.061-7.384 13.75-10.168 16.37-11.04-4.161-2.414-8.193-5.53-11.322-8.178a29.84 29.84 0 00-8.543-5.065l-6.844-.726a1.125 1.125 0 01-.767-.423c-1.162-1.48-4.748-5.538-7.337-6.533-.14-.053-.193-.034-.278.019-1.149.724-2.149 5.13-2.442 8.89.692 2.02 6.472 18.341 14.183 23.215a6.707 6.707 0 013.929-1.062zm4.164 11.502a7.45 7.45 0 01-.413.344c2.536 1.029 5.374 2.832 8.426 4.772 1.67 1.06 3.397 2.158 5.12 3.152 2.89 1.666 5.732 1.996 8.456.98 3.746-1.398 7.15-5.435 8.885-10.534 1.208-3.554.85-7.579-.98-11.045-1.508-2.854-3.885-5.02-6.414-5.861-2.044.783-12.871 5.21-20.941 14.025a6.553 6.553 0 01-2.14 4.167zm17.643-20.344a1.12 1.12 0 01-.722.54c-.102.025-7.971 1.977-16.314 10.648.521.613.932 1.32 1.202 2.09 6.496-6.543 14.098-10.463 18.096-12.234a35.218 35.218 0 01-2.262-1.044zM117.158 41.22c.665-3.54 1.353-7.2 2.081-10.53a36.862 36.862 0 015.076-12.191l2.742-4.24c.143-1.781.742-7.436 2.674-9.818-2.84 1.25-5.369 3.12-6.428 3.952l.806 3.276c.082.336.004.69-.213.96s-.536.415-.894.422l-6.333-.089c-.987.992-4.31 4.711-6.861 12.08-.93 2.682-1.764 6.717-2.482 11.993.11.314.685 1.059 1.035 1.513.854 1.107 1.591 2.064 1.48 3.016-.176 1.502-1.336 2.38-2.267 3.085-.619.466-1.202.907-1.238 1.309-.29 3.224-.473 5.975-.569 7.576l9.397-2.267c.69-3.097 1.36-6.67 1.994-10.047zm15.666-37.727c3.192 1.228 6.916 5.553 7.997 6.868l6.526.692c.097.01.192.033.284.068a32.124 32.124 0 018.518 4.835c1.172-1.141 3.626-3.31 6.808-4.919-4.042-4.148-10.288-6.592-12.76-7.444l-1.275 4.24c-.127.42-.49.728-.929.786a1.12 1.12 0 01-1.103-.519l-3.649-5.847c-1.686.064-6.421.316-10.483 1.178l-.068.015c.044.014.089.03.134.048zm11.723 26.168c-.122 0-.246-.01-.372-.028-1.976-.3-2.753-2.813-2.89-3.314a1.114 1.114 0 01.793-1.368 1.127 1.127 0 011.376.784c.225.807.75 1.645 1.061 1.691-.002 0 .605.065 1.778-1.766a1.127 1.127 0 011.552-.343c.524.33.678 1.02.345 1.54-.458.716-1.796 2.804-3.643 2.804zm24.029 23.287c-1.326 0-2.626-.902-3.868-2.69a1.112 1.112 0 01.287-1.553c.51-.35 1.21-.222 1.563.286.786 1.131 1.565 1.78 2.086 1.722.572-.057 1.129-.956 1.267-1.276.243-.567.903-.83 1.474-.588s.836.898.592 1.464c-.106.247-1.096 2.421-3.108 2.622-.098.01-.195.013-.293.013zm-119.094.995c-6.676-1.979-14.708.573-23.873 7.589-.973.989-15.052 15.422-22.655 29.02l6.414.303 7.74-9.647a1.13 1.13 0 011.414-.287c.478.258.703.819.533 1.332l-3.124 9.413 5.929 3.065 5.523-4.485a1.13 1.13 0 011.326-.07c.41.267.6.767.466 1.236l-1.924 6.793 2.657 2.34c.202-2.119.64-5.51 1.561-9.353 2.058-8.58 5.415-14.957 9.976-18.95 4.077-3.571 9.046-5.123 14.768-4.616l.016.002a24.694 24.694 0 015.168-2.217c-1.192-2.64-4.853-9.375-11.915-11.468zm-27.356 98.136c.394.47 5.72 6.673 16.762 12.686 10.552 5.744 28.638 12.485 54.851 11.973 50.63-.987 69.148-13.88 80.585-26.36 10.728-11.708 6.137-17.317 6.09-17.372a1.058 1.058 0 01-.038-.046c-1.897-2.448-3.99-3.712-6.219-3.755a4.736 4.736 0 00-.124-.002c-4.068 0-7.409 3.916-7.442 3.956-9.527 11.086-21.975 18.468-38.06 22.576-13.866 3.542-30.228 4.557-50.015 3.1-14.55-1.068-24.694-5.229-31.455-9.49a1.122 1.122 0 01-.227-.144 47.115 47.115 0 01-4.875-3.556c-6.625-5.534-9.061-10.743-9.32-11.327-.232-.432-3.157-5.722-7.145-6.31-1.87-.273-3.765.564-5.649 2.489-7.246 7.408 1.764 20.827 2.281 21.582z"/></svg>