<svg xmlns="http://www.w3.org/2000/svg" width="85" height="65"><path fill="#a83657" d="M24.921 2.362c0-.87.702-1.579 1.565-1.579h53.552c.717 0 1.323.49 1.508 1.155l3.182 2.911a.643.643 0 01.208.49l-.71 31.197a.643.643 0 01-.047.228.646.646 0 01-.212.76L57.737 57a.635.635 0 01-.427.122L1.257 52.626a.64.64 0 01-.585-.64V47.31a.646.646 0 01.318-.565l23.931-13.937zm55.929 31.7L57.26 51.565a.633.633 0 01-.377.124l-.043-.001-54.897-3.704v3.41l55.232 4.43 25.75-19.12zm-54.658-1.525h54.14V2.56l-.54-.493H26.487a.3.3 0 00-.294.296zM3.436 46.801l53.258 3.593L79.03 33.82H25.727zm79.56-12.07l.663-29.129-2.056-1.88v29.233zM53.262 47.386h-.036l-39.182-2.284a.644.644 0 01-.307-1.18l11.476-7.454a.632.632 0 01.343-.102l42.952-.034c.283 0 .532.188.61.462a.644.644 0 01-.269.72l-4.755 3.048a.647.647 0 01-.027.017l-10.464 6.707a.63.63 0 01-.34.1zm-37.197-3.45l7.071.412 2.301-1.829-6.63-.365zm23.508 1.37c.352-.13 1.337-.826 2.684-1.86l-7.098-.392a.63.63 0 01-.687-.037l-7.114-.392-2.308 1.834zm8.246.48a.643.643 0 01.237-.48l1.785-1.443-5.64-.31a70.937 70.937 0 01-2.465 1.878zm5.275.307l2.948-1.89-4.3-.236-2.36 1.91zm13.227-8.477l-6.737.005-2.06 1.667 6.037.097zm-40.577.032l-1.703 1.106 6.014.096 1.52-1.207zm12.252 1.329l1.574-1.34-6.178.005a.638.638 0 01-.23.37l-1.093.87zm9.62.153a300.19 300.19 0 001.794-1.5l-7.869.005-1.612 1.373zm7.916.127l2.019-1.634-6.164.005c-.285.243-.949.805-1.818 1.533zM20.628 40.97l6.32.348 1.524-1.211-5.142-.082a.636.636 0 01-.59-.428zm14.113.777l1.775-1.512-6.03-.096-1.617 1.285zm9.048.498a203.33 203.33 0 002.301-1.857l-7.64-.122-1.859 1.583zm7.537.415l2.651-2.146-5.919-.095a273.08 273.08 0 01-2.357 1.93zm6.56.36l3.722-2.385-5.638-.09-2.742 2.22zm19.695-12.16h-.001l-49.239-.055a.632.632 0 01-.453-.193.646.646 0 01-.181-.461l.547-25.442a.638.638 0 01.636-.627h48.69a.64.64 0 01.636.641V30.22a.642.642 0 01-.635.64zm-48.59-1.336l47.954.053V5.366H29.511zm23.275-11.168l.281.953h-.772l.292-.953c.05-.161.077-.373.1-.545.021.172.049.384.099.545zm-6.32 0l.282.953h-.772l.292-.953c.05-.161.077-.373.1-.545.022.172.05.384.099.545zm25.841-4.105v9.445c0 .5-.405.909-.9.909H35.745a.907.907 0 01-.9-.909v-9.445c0-.5.405-.909.9-.909h35.142c.495 0 .9.408.9.91zm-27.766 5.336c0-.451-.276-.723-.718-.902.403-.206.618-.468.618-.84 0-.514-.413-1.103-1.23-1.103-.513 0-1.225.234-1.225.6 0 .185.176.323.353.323.154 0 .276-.105.403-.16.121-.057.276-.09.425-.09.391 0 .524.235.524.44 0 .35-.392.513-.762.524-.165.005-.38.016-.38.334 0 .323.215.345.424.357.426.027.8.127.8.5 0 .29-.226.524-.64.524-.424 0-.612-.25-.85-.25-.187 0-.358.15-.358.333 0 .395.778.59 1.264.59.827 0 1.352-.562 1.352-1.18zm3.372.825a.46.46 0 00-.017-.123L46.3 17.12c-.077-.222-.188-.377-.452-.377-.265 0-.376.16-.447.378l-1.077 3.17a.468.468 0 00-.016.122c0 .21.182.356.397.356.133 0 .31-.1.364-.262l.182-.563h1.176l.193.563a.424.424 0 00.375.262c.227 0 .398-.145.398-.356zm1.92-1.66l1.087-1.448a.327.327 0 00.06-.19c0-.16-.137-.372-.374-.372a.381.381 0 00-.32.16l-1.104 1.493h-.066V17.1c0-.19-.177-.356-.387-.356-.215 0-.386.167-.386.356v3.308c0 .195.171.362.386.362.21 0 .387-.167.387-.362V19.11h.06l1.11 1.498a.381.381 0 00.32.162c.237 0 .375-.212.375-.374a.325.325 0 00-.06-.189zm4.398 1.66a.464.464 0 00-.016-.123l-1.076-3.17c-.077-.222-.188-.377-.453-.377s-.375.16-.447.378l-1.076 3.17a.464.464 0 00-.016.122c0 .21.182.356.397.356.132 0 .309-.1.364-.262l.182-.563h1.176l.193.563a.425.425 0 00.375.262c.226 0 .397-.145.397-.356zm2.958-.825c0-.451-.276-.723-.717-.902.403-.206.618-.468.618-.84 0-.514-.414-1.103-1.23-1.103-.514 0-1.226.234-1.226.6 0 .185.177.323.354.323.154 0 .276-.105.402-.16.122-.057.276-.09.425-.09.392 0 .525.235.525.44 0 .35-.392.513-.762.524-.165.005-.38.016-.38.334 0 .323.215.345.424.357.425.027.8.127.8.5 0 .29-.226.524-.64.524-.425 0-.612-.25-.85-.25-.187 0-.358.15-.358.333 0 .395.778.59 1.263.59.828 0 1.352-.562 1.352-1.18zm3.372.825a.46.46 0 00-.016-.123l-1.076-3.17c-.078-.222-.188-.377-.453-.377s-.375.16-.447.378l-1.076 3.17a.46.46 0 00-.016.122c0 .21.182.356.397.356.132 0 .309-.1.364-.262l.182-.563h1.176l.193.563a.425.425 0 00.375.262c.226 0 .397-.145.397-.356zm2.533-3.264c0-.2-.193-.356-.391-.356H60.24c-.215 0-.386.2-.386.356 0 .19.165.35.386.35h.585v2.914c0 .189.171.356.386.356.21 0 .387-.167.387-.356v-2.914h.585c.21 0 .391-.16.391-.35zm3.08 2.261c0-.825-.552-1.286-1.407-1.286h-.47V17.11c0-.195-.176-.367-.386-.367-.204 0-.386.167-.386.367v3.208c0 .217.199.4.43.4h.812c1.037 0 1.407-.623 1.407-1.308zm-7.059-1.053l.282.953h-.773l.293-.953c.05-.161.077-.373.1-.545.021.172.049.384.098.545zm6.286 1.059c0 .289-.116.595-.634.595h-.47v-1.18h.47c.413 0 .634.184.634.585zm3.98 41.929c-1.378 0-2.716-.325-3.764-.991a5.215 5.215 0 01-.233-.157l.183 1.25c.568.623 3.482 3.31 8.793-.23 4.537-3.025 5.191-4.233 5.284-4.485a.654.654 0 01-.027-.15l-.055-.943a5.88 5.88 0 01-.815.756l-4.342 3.342c-1.375 1.06-3.233 1.608-5.024 1.608zM63.17 57.28c-.06-1.325.648-2.656 1.94-3.65l1.373-1.057a.648.648 0 01.022-.017l2.946-2.268c2.434-1.873 6.377-2.149 8.79-.616 1.188.755 1.872 1.846 1.927 3.072.005.113.004.227-.002.34l.192 3.3a1 1 0 01.044.435c-.045.414-.18 1.677-5.862 5.466-2.237 1.491-4.14 1.995-5.69 1.995-3.19 0-4.882-2.132-4.907-2.164a.648.648 0 01-.126-.3l-.556-3.8a.653.653 0 01-.007-.11 3.481 3.481 0 01-.084-.626zm11.311-7.319c-1.519 0-3.11.462-4.259 1.347l-1.933 1.488 9.013 2.47c.068.018.13.047.186.085.845-.66 1.345-1.48 1.406-2.288a2.178 2.178 0 00.004-.261c-.035-.795-.51-1.52-1.334-2.045-.843-.536-1.943-.796-3.083-.796zm-8.6 4.688c-.957.736-1.482 1.674-1.442 2.573.03.674.375 1.298.982 1.793l5.439-4.186-3.844-1.053zm7.234 4.068l3.133-2.411-3.977-1.09a.637.637 0 01-.217.306l-5.417 4.17c1.985.735 4.737.364 6.478-.975zm6.16-1.728l-.02-.022.02.022z"/></svg>