<svg xmlns="http://www.w3.org/2000/svg" width="75" height="62"><path fill="#ffb713" d="M20.768 55.126c-3.023 0-6.223-.751-8.991-2.505C4.622 48.09.224 31.677.741 29.04c.13-.662.58-.811.768-.845.683-.122 1.097.555 1.253.81.984 1.614 2.61 1.903 5.562 2.426 2.979.528 7.058 1.251 12.57 3.847 2.172 1.024 3.9 2.144 5.275 3.288a30.71 30.71 0 01-1.16-4.725c-.922-5.61-.39-11.68 1.457-16.655 3.351-9.018.997-15.882.973-15.95a.78.78 0 011.23-.864c.15.125 3.747 3.103 7.685 7.66 5.32 6.157 8.515 11.957 9.498 17.24.084.45.198.901.307 1.337.188.743.381 1.512.433 2.303.002.03.002.06 0 .09a31.237 31.237 0 018.922-.82c4.675.252 9.514 2.717 13.993 7.127 3.348 3.297 5.303 6.477 5.384 6.61a.78.78 0 01-1.129 1.034c-.024-.017-3.225-2.167-9.83 1.533-2.559 1.433-4.611 3.21-6.422 4.779-2.974 2.576-5.589 4.84-9.345 4.84-.468 0-.954-.036-1.462-.11-4.926-.72-6.624-3.753-6.957-5.895-4 4.494-5.889 10.09-6.568 12.538a8.401 8.401 0 01-.345 1.361l-1.496-.424c.012-.057.113-.556.336-1.37.09-.553.157-1.265.13-2.093a.774.774 0 01-.012-.248c-.088-1.554-.522-3.477-1.757-5.493a6.977 6.977 0 00-.1-.158 7.928 7.928 0 01-.83.644c-2.077 1.411-5.105 2.27-8.336 2.27zm10.677-6.33c.112.74-.05 1.48-.469 2.182.14.191.269.384.387.577.503.822.889 1.63 1.18 2.413a92.6 92.6 0 00.674-4.728 21.256 21.256 0 01-1.803-1.7c.06.612.045 1.05.031 1.257zm3.14 4.063c1.27-2.4 2.747-4.494 4.403-6.254a21.336 21.336 0 01-.632-.79 40.104 40.104 0 01-3.53 3.064 95.648 95.648 0 01-.65 4.781c.13-.264.267-.531.41-.8zM36.34 35.8c1.424-3.056 4.806-5.182 8.825-6.406a.774.774 0 01-.13-.38c-.041-.65-.21-1.317-.388-2.023-.115-.46-.235-.934-.328-1.434C42.573 16.173 33.454 6.86 29.504 3.199c.493 2.928.777 8.195-1.576 14.53-4.421 11.9-.557 23.833 5.494 29.601 1.344-13.745-.244-25.66-.265-25.808a.78.78 0 011.545-.212c.02.148 1.573 11.777.344 25.392a40.34 40.34 0 002.407-2.187c-2.4-3.817-2.02-6.77-1.113-8.716zm11.395 5.171c10.264-3.24 13.05-2.965 13.333-2.923l-.228 1.543c-.011-.001-2.74-.257-12.635 2.868-2.818.89-5.154 2.41-7.08 4.222a.78.78 0 01.12.456c-.008.182-.13 4.464 5.685 5.315 3.867.567 6.378-1.611 9.56-4.367 1.867-1.616 3.983-3.45 6.68-4.96 4.153-2.326 7.172-2.563 9.074-2.285-2.619-3.501-8.916-10.675-16.814-11.1-8.088-.436-15.689 2.452-17.676 6.719-1.215 2.607-.403 5.715 2.344 9.042 2.273-2.116 4.842-3.647 7.637-4.53zM2.37 30.965c.729 4.604 4.54 16.726 10.243 20.34 5.65 3.578 12.658 2.27 15.616.26a6.11 6.11 0 00.736-.582c-3.944-4.28-13.065-7.975-13.166-8.016l.58-1.448c.42.169 9.163 3.71 13.478 8.144.066-.235.08-.466.037-.688l-.022-.116.013-.114c.016-.158.18-2.103-1.108-4.614-.25-.398-.487-.8-.71-1.203-1.365-2.042-3.735-4.306-7.837-6.239-5.324-2.508-9.285-3.21-12.177-3.723-2.434-.431-4.33-.768-5.683-2.001z"/></svg>