<svg xmlns="http://www.w3.org/2000/svg" width="78" height="69"><path fill="#a83657" d="M9.614 65.25a2.78 2.78 0 01-.62-.07c-1.061-.241-1.906-1.088-2.376-2.383-.805-2.213 1.394-3.962 2.82-4.645a.726.726 0 01.198-.063c1.65-.282 3.08.335 3.733 1.61.682 1.33.338 3.003-.855 4.164-.934.909-1.944 1.386-2.9 1.386zm.385-5.714c-.452.245-2.461 1.424-1.977 2.756.292.804.756 1.315 1.306 1.44.617.141 1.38-.19 2.142-.932.836-.813.888-1.804.57-2.425-.344-.67-1.084-.973-2.04-.84zm50.534 6.938c-3.577 0-8.053-.194-13.655-.673a9.06 9.06 0 01-3.332-.947c-2.971-1.504-6.74-3.568-8.296-5.076h-3.885l-.046.498a.741.741 0 01-.15.382c-.06.08-1.354 1.72-4.033 1.72a7.19 7.19 0 01-1.211-.106c-2.618-.446-5.457-.098-6.059-.015l-.067 6.008a.745.745 0 01-.747.735H1.442a.745.745 0 01-.747-.743c0-.41.334-.743.747-.743h16.872l.418-37.209a.742.742 0 01.015-1.344l.023-2.016c-7.027.162-14.534.602-15.463 1.092a.75.75 0 01-1.027-.13.74.74 0 01.112-1.045c1.237-.993 12.383-1.323 17.118-1.42a.738.738 0 01.541.216.74.74 0 01.221.536l-.03 2.634 10.18-.554c.369-.115.903-.12 1.407.197.499.314.87.871 1.117 1.684a.748.748 0 01.237.007c.062.011 6.26 1.128 9.402-2.282 3.366-3.653 6.11-14.77 6.11-16.754 0-2.11.11-7.304.118-7.682a2.512 2.512 0 01.673-1.735c.561-.594 1.395-.896 2.48-.896s2.304.669 3.434 1.882c1.651 1.775 3.215 4.893 2.986 7.86l-.316 4.079a.754.754 0 01-.007.059l-1.9 11.926c4.332-.353 16.958-1.127 19.38 1.583 2.475 2.771 2.614 6.384.42 9 .956 1.277 3.086 4.629 1.43 7.262-1.147 1.824-2.362 2.807-3.162 3.306.766 1.07 1.987 3.146 1.76 5.237-.114 1.05-.567 1.963-1.35 2.727 1.056 1.291 2.874 4.44-.35 8.21-.915 1.07-3.964 2.53-13.758 2.53zm-34.356-5.666c2.128.363 3.303-.55 3.678-.916l.042-.451a.737.737 0 01.083-.917c.461-5.094 1.845-20.735 1.845-25.122 0-2.954-.645-3.57-.774-3.662-.085-.06-.15-.058-.189-.045-.106.066-.12.05-.245.056l-10.391.566-.343 30.438c.971-.123 3.685-.392 6.294.053zm9.39-2.516c.212 0 .415.09.556.247.936 1.04 3.889 2.859 8.1 4.99a7.547 7.547 0 002.783.791c7.93.678 14.64.812 19.311.442l-11.825-.937a.736.736 0 01-.217-.05c-.922-.364-1.536-1.237-1.73-2.458-.267-1.68.297-3.663 1.3-4.69l-4.596-1.223a.748.748 0 01-.357-.215c-1.309-1.418-1.871-2.917-1.673-4.453.185-1.44 1.015-2.617 1.788-3.428a2.158 2.158 0 01-.048-.04c-1.026-.865-1.675-3.499-.974-5.598.611-1.833 2.12-2.916 4.249-3.048 3.029-.188 10.718-.955 16.304-1.53-4.702-.239-10.125-.14-10.809-.125-.409.083-2.056.339-3.34-.608-.91-.671-1.408-1.753-1.481-3.217-.112-2.22.97-3.88 2.2-4.978a.74.74 0 01-.569-.84l2.044-12.834.314-4.049c.194-2.506-1.208-5.249-2.593-6.736-.831-.893-1.684-1.406-2.339-1.406-.636 0-1.114.144-1.38.415a1.026 1.026 0 00-.278.74c-.002.056-.118 5.508-.118 7.672 0 2.165-2.844 13.785-6.503 17.758-3.29 3.57-9.003 3.003-10.45 2.792.055.516.082 1.091.082 1.726 0 4.407-1.322 19.422-1.817 24.89zM64.6 55.114c3.903-.147 7.709-.18 8.71-.187.714-.578 1.107-1.259 1.196-2.075.205-1.863-1.218-3.885-1.765-4.585a580.578 580.578 0 01-11.01-.014c-6.354-.079-9.468-.274-11.044-.483-.7.595-1.808 1.741-1.988 3.161-.13 1.027.257 2.068 1.151 3.095l4.894 1.302a.743.743 0 01.542.588c1.223-.282 3.76-.591 9.314-.802zm8.554 7.867c2.839-3.32.79-5.88.115-6.569-8.243.04-17.25.477-18.25 1.153-.73.603-1.2 2.25-1 3.52.073.454.257 1.03.72 1.27l16.52 1.308c.164.013.31.077.426.175.696-.247 1.192-.532 1.47-.857zm2.973-19.306c1.218-1.936-.76-4.805-1.47-5.726-2.676.283-17.754 1.87-22.33 2.155-1.523.095-2.507.78-2.925 2.034-.554 1.66.064 3.548.493 3.97.083.037.205.072.364.106.11-.08.18-.126.198-.136a.75.75 0 011.08.31c3.782.365 13 .481 21.407.392.363-.163 1.805-.914 3.183-3.105zm-1.7-14.486c-.808-.904-5.91-1.943-16.246-1.236a.745.745 0 01-.273.181c-.148.058-3.683 1.471-3.51 4.934.05.994.344 1.698.874 2.093.872.649 2.178.346 2.19.343a.79.79 0 01.161-.02c.539-.013 12.772-.281 17.13.842 1.796-2.067 1.686-4.884-.327-7.137zM3.33 28.02a.076.076 0 00-.004.003l.004-.003zm-.004.003a.183.183 0 00-.008.006l.008-.006z"/></svg>