<svg width="25" height="26" viewBox="0 0 40 40" xmlns="http://www.w3.org/2000/svg"><path d="M20 2c9.925 0 18 8.075 18 18s-8.075 18-18 18S2 29.925 2 20 10.075 2 20 2m0-2C8.955 0 0 8.954 0 20c0 11.047 8.955 20 20 20 11.047 0 20-8.953 20-20C40 8.954 31.047 0 20 0z" fill="#959595"/><path clip-rule="evenodd" d="M14.371 9.793c1.207-.228 1.998 1.133 2.6 2.072.586.912 1.307 1.982 1.016 3.169-.162.666-.764 1.029-1.219 1.422-.449.388-1.133.744-1.299 1.34-.271.967.322 1.982.689 2.56a14.704 14.704 0 003.129 3.534c.623.51 1.488 1.191 2.355 1.016 1.295-.262 1.637-1.859 3.047-2.072 1.342-.203 2.25.77 3.008 1.422.73.631 1.908 1.439 1.828 2.52-.047.621-.545 1.006-.977 1.381-.439.383-.824.813-1.258 1.096-1.051.686-2.34 1.022-3.82.976-1.451-.045-2.607-.538-3.656-1.097-2.051-1.094-3.672-2.633-5.199-4.348-1.502-1.686-2.889-3.682-3.656-5.889-.957-2.756-.451-5.587 1.098-7.353.262-.3.676-.613 1.055-.935.378-.323.728-.714 1.259-.814z" fill="#959595" fill-rule="evenodd"/></svg>