<svg width="26" height="26" fill="none" xmlns="http://www.w3.org/2000/svg"><path d="M13.448 24.773c-6.628 0-12-5.372-12-12 0-6.627 5.372-12 12-12 6.627 0 12 5.373 12 12 0 6.628-5.373 12-12 12z" stroke="#fff"/><path d="M18.771 16.01l-1.721-1.722c-.343-.342-.91-.332-1.266.024l-.867.867a25.43 25.43 0 01-.171-.096c-.548-.303-1.297-.72-2.086-1.508-.791-.791-1.207-1.542-1.512-2.09l-.093-.167.582-.581.286-.287c.355-.355.365-.923.023-1.265l-1.721-1.722c-.342-.342-.91-.332-1.266.024l-.485.488.014.013a2.805 2.805 0 00-.4.705c-.093.246-.152.48-.178.715-.227 1.884.634 3.607 2.97 5.943 3.23 3.23 5.834 2.986 5.946 2.975a2.907 2.907 0 001.42-.579l.01.01.492-.482c.355-.355.365-.923.023-1.266z" fill="#fff"/></svg>