<svg xmlns="http://www.w3.org/2000/svg" width="23" height="23"><path fill="#ffb713" d="M21.915 21.867l-.034.033a3.718 3.718 0 01-2.64 1.094 3.71 3.71 0 01-2.636-1.092l-4.287-4.273a9.153 9.153 0 01-3.206.577 9.081 9.081 0 01-6.455-2.666c-3.56-3.548-3.56-9.32 0-12.868A9.084 9.084 0 019.112.006c2.439 0 4.731.947 6.456 2.666a9.025 9.025 0 012.674 6.435 9.05 9.05 0 01-.624 3.31l4.252 4.238c1.479 1.474 1.498 3.763.045 5.212zM9.112 14.913c1.557 0 3.02-.604 4.12-1.7a5.76 5.76 0 001.707-4.107A5.76 5.76 0 0013.232 5a5.797 5.797 0 00-4.12-1.701 5.8 5.8 0 00-4.12 1.7 5.8 5.8 0 000 8.213 5.797 5.797 0 004.12 1.701z"/></svg>