<svg xmlns="http://www.w3.org/2000/svg" width="34" height="34"><path fill="#ffb713" d="M34 16.999c0 9.364-7.637 17-17 17S0 26.363 0 17 7.637 0 17 0s17 7.637 17 17zm-14.42-4.952c.185 1.008 1.16 1.817 2.19 1.767 1.115.025 2.131-.955 2.159-2.067a2.164 2.164 0 00-.712-1.755 2.191 2.191 0 00-2.193-.456c-1.015.327-1.678 1.467-1.443 2.511zm-7.244 1.767c1.189.031 2.252-1.08 2.162-2.268.021-1.39-1.515-2.492-2.829-2.034-.886.255-1.542 1.118-1.561 2.038-.07 1.205 1.018 2.323 2.228 2.264zM29.283 23.86c.048-.402-.164-.758-.362-1.087-.848-1.471-1.692-2.945-2.54-4.414-.29-.527-.958-.825-1.537-.636-.591.156-1.034.764-.965 1.378-.027.375.264.648.363.985-.942 1.453-2.544 2.344-4.168 2.83-2.452.709-5.169.561-7.493-.51-1.102-.524-2.154-1.27-2.808-2.317.134-.293.355-.553.392-.884.105-.658-.351-1.344-1.002-1.493-.584-.168-1.233.145-1.518.672-.877 1.505-1.755 3.009-2.638 4.512-.16.263-.309.553-.29.872-.025.655.52 1.262 1.168 1.334.481.066.993-.157 1.264-.56.409-.637.739-1.324 1.17-1.946 1.169 1.278 2.702 2.188 4.334 2.741 2.674.892 5.629.93 8.328.12a10.933 10.933 0 004.748-2.868c.286.533.599 1.052.897 1.578.19.38.468.747.893.876.79.3 1.74-.34 1.764-1.183z"/></svg>