<svg xmlns="http://www.w3.org/2000/svg" width="34" height="34"><path fill="#ffb713" d="M33.847 17c0 9.388-7.579 16.998-16.926 16.998-9.348 0-16.927-7.61-16.927-16.997C-.006 7.613 7.573.002 16.921.002c9.347 0 16.926 7.61 16.926 16.999zm-8.524-.068c.624-.878 1.296-1.722 1.926-2.597.588-.817 1.19-1.634 1.5-2.611.196-.623.022-.899-.614-1.008a2 2 0 00-.334-.02l-3.773-.004c-.465-.007-.721.197-.886.61a23.06 23.06 0 01-.714 1.657c-.6 1.224-1.27 2.405-2.209 3.406-.207.22-.435.5-.782.384-.432-.158-.56-.874-.553-1.116l-.003-4.372c-.084-.625-.223-.903-.84-1.024h-3.918c-.523 0-.785.204-1.064.532-.161.189-.21.312.121.376.65.123 1.017.546 1.114 1.2.156 1.048.145 2.098.055 3.149a2.914 2.914 0 01-.2.897c-.19.452-.495.544-.897.266-.364-.251-.62-.605-.87-.96-.94-1.334-1.69-2.77-2.301-4.283-.177-.435-.482-.7-.942-.707a94.487 94.487 0 00-3.396.001c-.68.013-.884.344-.606.964 1.232 2.755 2.604 5.431 4.395 7.869.92 1.251 1.975 2.357 3.34 3.14 1.545.886 3.208 1.153 4.962 1.07.82-.037 1.067-.252 1.104-1.073.027-.562.09-1.121.366-1.625.27-.497.681-.591 1.154-.282.237.154.436.35.624.557.462.507.907 1.03 1.387 1.521.6.615 1.314.977 2.21.902l3.467.001c.558-.037.848-.723.527-1.35-.225-.44-.52-.83-.835-1.207-.708-.854-1.543-1.582-2.331-2.356-.713-.699-.758-1.103-.184-1.906z"/></svg>