<svg xmlns="http://www.w3.org/2000/svg" width="34" height="34"><path fill="#ffb713" d="M20.06 17a3.246 3.246 0 01-3.24 3.253 3.246 3.246 0 01-3.24-3.252 3.246 3.246 0 013.24-3.254c1.79 0 3.24 1.456 3.24 3.254zm4.672-3.944c.047 1.03.057 1.338.057 3.945 0 2.606-.01 2.914-.057 3.943-.043.952-.202 1.469-.335 1.812a3.226 3.226 0 01-1.844 1.853c-.343.134-.857.293-1.805.337-1.025.046-1.332.056-3.928.056-2.595 0-2.902-.01-3.927-.056-.948-.044-1.462-.203-1.805-.337a3.022 3.022 0 01-1.117-.73 3.025 3.025 0 01-.727-1.123c-.133-.343-.292-.86-.335-1.812-.047-1.029-.057-1.337-.057-3.943 0-2.607.01-2.915.057-3.945.043-.95.202-1.468.335-1.813a3.03 3.03 0 01.727-1.122 3.006 3.006 0 011.118-.73c.342-.134.856-.292 1.804-.335 1.025-.048 1.332-.058 3.927-.058 2.596 0 2.903.01 3.928.058.948.043 1.462.201 1.805.335a3.01 3.01 0 011.117.73c.323.315.571.699.727 1.122.133.345.292.862.335 1.813zM21.812 17c0-2.769-2.235-5.013-4.992-5.013-2.756 0-4.99 2.244-4.99 5.013 0 2.767 2.234 5.012 4.99 5.012 2.757 0 4.991-2.245 4.991-5.012zm1.363-5.21c0-.648-.522-1.172-1.166-1.172-.644 0-1.167.524-1.167 1.171s.523 1.171 1.167 1.171 1.166-.524 1.166-1.17zM33.747 17c0 9.385-7.58 16.997-16.927 16.997C7.474 33.997-.105 26.385-.105 17-.105 7.614 7.475.002 16.82.002c9.347 0 16.927 7.612 16.927 16.999zm-7.207 0c0-2.651-.011-2.984-.059-4.025-.047-1.04-.211-1.748-.451-2.369a4.792 4.792 0 00-1.121-1.729 4.755 4.755 0 00-1.722-1.126c-.618-.24-1.325-.407-2.36-.453-1.036-.048-1.367-.059-4.007-.059-2.639 0-2.97.011-4.007.059-1.034.046-1.74.212-2.359.453a4.752 4.752 0 00-1.721 1.126 4.792 4.792 0 00-1.122 1.73c-.24.62-.404 1.328-.451 2.368-.048 1.041-.059 1.374-.059 4.025 0 2.65.011 2.983.06 4.023.046 1.04.21 1.749.45 2.369a4.783 4.783 0 001.122 1.729 4.751 4.751 0 001.721 1.126c.618.241 1.325.407 2.36.454 1.036.046 1.367.059 4.007.059 2.64 0 2.97-.013 4.007-.06 1.034-.046 1.74-.212 2.359-.453a4.978 4.978 0 002.843-2.855c.24-.62.404-1.33.451-2.369.048-1.04.059-1.373.059-4.023z"/></svg>