<svg xmlns="http://www.w3.org/2000/svg" width="34" height="34"><path fill="#ffb713" d="M8.875 17.137h3.972v1.19h-1.365v7.26h-1.267v-7.26h-1.34zm11.626 2.788c.077.254.116.67.116 1.265v2.508c0 .583-.04 1.002-.116 1.268-.152.47-.457.708-.91.708-.405 0-.796-.226-1.177-.697v.61h-1.14v-8.45h1.14v2.76c.367-.453.758-.683 1.177-.683.453 0 .759.24.91.711zM19.477 21.1c0-.568-.167-.86-.496-.86-.187 0-.377.09-.568.279v3.837c.19.192.381.281.568.281.33 0 .496-.28.496-.85zm-4.328-1.809h1.14v6.297h-1.14v-.687c-.453.52-.883.773-1.302.773-.367 0-.62-.148-.734-.469-.062-.19-.1-.49-.1-.936v-4.978h1.139v4.636c0 .267 0 .406.01.443.028.178.114.267.267.267.228 0 .467-.176.72-.533zm.428-6.7V9.916c0-.588.179-.883.55-.883.37 0 .549.294.549.883v2.677c0 .588-.178.883-.55.883-.37 0-.549-.295-.549-.883zm18.214 4.487c0 9.345-7.565 16.92-16.896 16.92S-.001 26.423-.001 17.078C0 7.733 7.564.158 16.895.158s16.896 7.575 16.896 16.92zM18.774 8.071v5.032c0 .45.039.754.102.946.116.323.371.473.742.473.42 0 .857-.255 1.315-.781v.693h1.152V8.07h-1.152v4.863c-.255.362-.497.54-.727.54-.154 0-.245-.09-.27-.27-.014-.037-.014-.177-.014-.448V8.071zm-4.348 4.303c0 .676.116 1.178.36 1.496.319.435.767.652 1.34.652.577 0 1.026-.217 1.344-.652.241-.318.357-.819.357-1.496v-2.227c0-.68-.116-1.18-.357-1.5-.318-.435-.767-.653-1.343-.653-.574 0-1.022.218-1.34.653-.245.322-.36.82-.36 1.5zm-4.422-6.478c.27.792.55 1.587.819 2.379.41 1.191.665 2.089.78 2.701v3.459h1.277v-3.459l1.536-5.08h-1.291l-.871 3.353-.907-3.353zM26.321 21.68c0-1.472.002-3.032-.326-4.463-.231-1.004-1.051-1.744-2.038-1.854-2.338-.262-4.704-.263-7.059-.262-2.356-.001-4.722 0-7.06.262-.986.11-1.805.85-2.036 1.854-.328 1.43-.333 2.99-.333 4.463 0 1.472 0 3.033.33 4.463.23 1.003 1.05 1.744 2.036 1.854 2.338.262 4.704.263 7.059.262 2.356.001 4.721 0 7.059-.262.987-.11 1.807-.85 2.038-1.854.328-1.43.33-2.991.33-4.463zm-1.758-1.822c.239.318.352.81.352 1.483v1.304h-2.278v1.117c0 .583.191.874.583.874.28 0 .444-.153.509-.458.01-.062.025-.315.025-.773h1.161v.166c0 .368-.013.621-.024.736a1.633 1.633 0 01-.266.684c-.315.456-.782.682-1.377.682-.596 0-1.05-.215-1.379-.645-.242-.315-.366-.811-.366-1.48v-2.206c0-.673.11-1.165.352-1.483.33-.432.782-.646 1.365-.646.571 0 1.024.215 1.343.645zm-.786 1.256c0-.582-.191-.874-.568-.874-.38 0-.572.291-.572.874v.582h1.14z"/></svg>