<svg width="26" height="26" fill="none" xmlns="http://www.w3.org/2000/svg"><path d="M.99 12.837c0 6.904 5.596 12.5 12.5 12.5 6.903 0 12.5-5.596 12.5-12.5 0-6.903-5.597-12.5-12.5-12.5-6.904 0-12.5 5.597-12.5 12.5z" fill="#61A8DE"/><path d="M19 7.462L5.796 12.607a.481.481 0 00.039.91l3.355.991 1.252 3.974c.131.415.657.54.962.23l1.734-1.772 3.404 2.499a.71.71 0 001.116-.427l2.254-10.778A.68.68 0 0019 7.462zm-1.655 2.392l-6.133 5.423a.33.33 0 00-.11.21l-.236 2.1c-.007.068-.103.077-.123.01l-.972-3.13a.33.33 0 01.141-.377l7.243-4.492c.166-.104.337.126.19.256z" fill="#fff"/></svg>