<svg xmlns="http://www.w3.org/2000/svg" width="130" height="144"><path fill="#a93958" d="M66.558 51.548c-.531 0-1.079-.01-1.645-.026-6.13-.186-10.242-1.613-12.57-4.36-1.825-2.154-2.494-5.115-1.991-8.806.802-5.873 6.071-7.524 9.581-7.646l.003-.008c.938-2.218 4.272-3.32 8.693-2.878 2.91.292 4.682 1.273 5.268 2.916.03.083.056.166.078.25 6.858 1.598 7.234 6.562 6.881 10.255-.707 7.414-4.628 10.302-14.298 10.303zM53.011 38.72c-.401 2.944.05 5.14 1.38 6.709 1.784 2.105 5.351 3.253 10.603 3.412 10.542.322 12.658-2.277 13.19-7.85.462-4.838-1.254-6.552-4.492-7.328a6.543 6.543 0 01-1.315 1.943c-.433.432-1.285 1.13-2.603 2.134-.476.362-1 .618-1.545.77v3.94c3.632-.412 6.092-2.25 6.263-2.381a1.346 1.346 0 011.881.244 1.34 1.34 0 01-.238 1.878c-.058.045-3.956 2.994-9.439 2.994-2.742 0-5.88-.737-9.133-2.944a1.34 1.34 0 111.509-2.219c2.287 1.552 4.487 2.25 6.473 2.449v-4.04a4.593 4.593 0 01-1.47-.84l-2.256-1.911c-.961-.81-1.522-1.58-1.826-2.278-1.99.084-6.364.795-6.982 5.318zm1.797-11.378c-1.325 0-2.776-.452-4.178-1.716a1.342 1.342 0 011.798-1.991c2.402 2.166 4.734.226 4.993-.002a1.347 1.347 0 011.892.105 1.336 1.336 0 01-.092 1.885c-.872.792-2.514 1.719-4.413 1.719zm24.994-.572c-1.55 0-2.68-.444-3.372-.717-.078-.03-.15-.06-.213-.085a1.34 1.34 0 01-.84-2.453c.716-.476 1.448-.188 2.038.044.98.385 2.62 1.03 5.283-.153a1.34 1.34 0 111.09 2.45c-1.542.686-2.873.914-3.986.914zM68.499 57.23c-5.071 0-10.555-.51-16.127-1.525-3.521-.641-6.657-1.792-9.322-3.391a505.479 505.479 0 00-26.974 9.591c-7.398 2.88-10.443 6.079-11.694 8.256-.868 1.509-1.179 3.024-.924 4.503.246 1.432 1.03 2.8 2.27 3.956a10.6 10.6 0 002.24 1.586c3.886 2.08 18.765.322 24.169-.53a1.338 1.338 0 011.541 1.156l1.57 12.414a18.616 18.616 0 01-1.573 10.16c-.311.672-.585 1.272-.834 1.817-1.957 4.29-2.422 5.308-6.829 10.654-4.064 4.93-7.98 12.925-6.974 18.828.428 2.516 1.734 4.45 3.882 5.75 3.028 1.834 8.195.688 14.942-3.31 7.152-4.239 13.664-10.206 16.132-12.574 8.357-8.024 12.002-8.487 18.913-7.667 7.01.833 11.54 4.891 23.481 18.42 6.246 7.074 12.004 6.445 14.882 5.44 4.29-1.5 7-5.308 7.14-8.123.527-10.551-6.299-18.986-11.282-25.144-2.526-3.122-4.52-5.587-5.19-7.762-2.735-8.894-4.704-20.11-4.724-20.222a1.343 1.343 0 011.608-1.54c.173.038 17.232 3.644 25.111-3.555 2.424-2.214 3.528-4.318 3.283-6.253-.296-2.337-2.595-4.71-6.65-6.865-3.173-1.686-20.4-7.155-29.065-9.81a1.356 1.356 0 01-.168-.064c-2.95 2.332-7.1 4.01-12.308 4.946-3.187.574-6.742.858-10.526.858zM34.966 43.363c-2.494-5.58-2.363-12.247.24-18.489-1.978-2.247-7.184-9.558-1.866-19.473C34.87 2.551 37.096.8 39.953.202c6.43-1.344 14.08 3.74 16.256 5.315 5.454-1.83 9.573-1.714 9.657-1.706 5.912.439 10.026 1.119 13.314 2.181C81.077 4.593 88.987-.84 95.616.546c2.857.599 5.081 2.348 6.611 5.2A16.57 16.57 0 0199.67 25.94c-.17.153-.37.254-.577.305 1.285 7.064-1.153 14.298-3.613 19.943a12.74 12.74 0 01-1.948 3.12c5.189 1.604 24.592 7.657 28.295 9.623 4.927 2.617 7.636 5.611 8.053 8.896.36 2.85-1.03 5.733-4.136 8.569-7.283 6.654-20.534 5.34-25.535 4.553.677 3.55 2.276 11.43 4.296 17.996.516 1.68 2.46 4.083 4.71 6.864 5.256 6.495 12.453 15.39 11.876 26.964-.214 4.293-4.055 8.816-8.935 10.52-1.17.41-2.723.773-4.544.774-3.65 0-8.376-1.464-13.237-6.97-11.416-12.933-15.66-16.802-21.785-17.53-5.867-.697-8.798-.685-16.736 6.936-3.95 3.79-24.164 22.387-34.324 16.245-2.845-1.72-4.574-4.276-5.139-7.593-1.154-6.771 2.96-15.418 7.55-20.985 4.182-5.073 4.53-5.834 6.458-10.06.25-.548.526-1.153.839-1.83a15.938 15.938 0 001.347-8.698L31.187 82.53c-4.87.703-19.742 2.581-24.486.04a13.32 13.32 0 01-2.807-1.991c-1.67-1.56-2.735-3.448-3.081-5.46-.36-2.081.07-4.259 1.241-6.295 2.133-3.71 6.523-6.878 13.048-9.417A512.29 512.29 0 0140.32 50.38c-2.32-1.929-4.133-4.288-5.353-7.018zm56.589-29.62a25.431 25.431 0 012.889 2.853c.848-1.788 1.605-4.122 1.111-5.39-.115-.295-.338-.66-1.048-.874-2.733-.82-4.875.174-5.981.91.96.76 1.954 1.592 3.029 2.501zm6.819 9.696c1.588-1.747 6.102-7.823 1.488-16.426-1.154-2.15-2.72-3.407-4.792-3.84-4.477-.938-10.073 2.17-12.875 4 1.453.679 2.775 1.47 4.093 2.391 1.218-.988 4.524-3.138 8.99-1.8 1.347.403 2.308 1.258 2.78 2.473 1.17 3.012-1.1 7.446-1.83 8.746a19.84 19.84 0 012.146 4.456zm-61.107-2.582a40.122 40.122 0 011.811-2.7c-.89-1.694-2.62-5.555-1.568-8.264.472-1.215 1.433-2.07 2.78-2.474 4.082-1.225 7.201.473 8.635 1.527a34.367 34.367 0 014.245-2.248c-2.864-1.843-8.305-4.786-12.673-3.87-2.07.434-3.637 1.691-4.79 3.841-4.03 7.512-1.1 13.098.768 15.558.25-.46.514-.917.792-1.37zm28.23-14.374c-.801 0-4.346.107-8.855 1.692-.138.08-.289.134-.444.16a31.658 31.658 0 00-6.458 3.257c-.107.1-.227.179-.354.236-2.593 1.756-5.205 4.088-7.593 7.182-.033.05-.07.098-.11.144a37.222 37.222 0 00-2.13 3.106 26.574 26.574 0 00-1.572 2.962c-2.604 5.76-2.845 11.944-.564 17.048 1.296 2.9 3.32 5.293 5.994 7.123a1.34 1.34 0 011.556.961c2.258 1.256 4.899 2.169 7.886 2.712 23.49 4.278 37.099-.91 40.165-7.948 3.948-9.057 7.151-20.575-3.197-29.327-7.396-6.257-10.391-8.284-24.155-9.305a3.377 3.377 0 00-.169-.003zM41.061 9.988c-.71.213-.933.578-1.048.874-.456 1.17.153 3.246.916 4.964a35.186 35.186 0 015.601-5.242c-1.192-.664-3.108-1.305-5.469-.596zM69.842 113.01h-.092c-9.985-.036-19.363-5.642-22.027-9.504-4.404-6.38-5.976-29.69.087-36.735 7.458-8.665 26.893-5.592 28.468-5.326 7.432.486 13.188 4.209 16.215 10.489 4.285 8.89 2.415 21.643-4.653 31.733-4.283 6.113-10.505 9.343-17.998 9.343zM66.67 63.396c-5.957 0-13.24.96-16.824 5.123-5.214 6.059-3.741 27.918.088 33.465 2.333 3.382 11.217 8.312 19.826 8.344 6.726.002 12.054-2.735 15.881-8.199 6.53-9.32 8.312-20.987 4.435-29.032-2.634-5.465-7.488-8.57-14.037-8.98a1.623 1.623 0 01-.146-.017c-.089-.016-4.181-.704-9.223-.704zm-37.426 76.79c-2.058 0-4.033-.89-5.727-2.582-3.22-3.218-1.483-7.428-.115-9.205a1.36 1.36 0 01.34-.312c3.806-2.434 7.55-2.178 10.016.684 2.28 2.645 2.806 6.825 1.105 8.767-1.433 1.637-3.345 2.577-5.382 2.644a9.366 9.366 0 01-.237.004zm-3.838-9.975c-.486.726-2.054 3.435.009 5.496 1.222 1.22 2.597 1.86 3.977 1.794 1.287-.042 2.512-.656 3.451-1.729.662-.756.419-3.466-1.12-5.251-1.538-1.788-3.72-1.893-6.317-.31zm83.205 9.993c-2.83 0-5.065-2.095-6.016-3.525a1.347 1.347 0 01-.186-.423c-1.078-4.384.372-7.843 3.88-9.25 3.241-1.303 7.37-.452 8.662 1.782 1.088 1.884 1.36 3.994.768 5.943-.624 2.049-2.134 3.71-4.367 4.808-.956.47-1.876.665-2.74.665zm-3.653-4.835c.53.693 2.59 3.05 5.21 1.764 1.55-.761 2.58-1.862 2.983-3.183.374-1.23.187-2.586-.526-3.82-.502-.87-3.15-1.514-5.335-.637-2.19.88-2.993 2.909-2.332 5.876zm-92.09-55.695c-1.577 0-3.096-.557-4.377-1.64-1.21-1.023-1.886-2.305-2.008-3.81-.273-3.365 2.466-6.611 2.583-6.747a1.33 1.33 0 01.411-.324c3.52-1.789 6.32-1.97 8.319-.531 2.289 1.646 2.7 4.919 2.358 7.22-.332 2.226-2.288 4.43-4.758 5.359a7.162 7.162 0 01-2.528.473zM10.95 69.416c-.311.406-1.013 1.396-1.446 2.563-.86 2.319 0 3.398.721 4.008 1.552 1.313 3.155 1.108 4.224.705 1.55-.584 2.861-1.978 3.05-3.245.249-1.676-.107-3.812-1.272-4.649-1.325-.954-3.552-.225-5.277.618zm107.867 6.185c-1.485 0-2.932-.36-3.94-.762a1.356 1.356 0 01-.441-.287c-2.576-2.518-3.542-4.894-2.871-7.06.775-2.503 3.548-3.831 5.687-4.208 2.075-.365 4.602.704 6.137 2.605 1.492 1.85 1.836 4.161.943 6.344-1.058 2.585-3.326 3.368-5.515 3.368zm-2.705-3.166c.994.341 4.667 1.395 5.735-1.216.667-1.628.07-2.881-.547-3.647-.918-1.137-2.46-1.846-3.582-1.647-1.502.265-3.217 1.16-3.589 2.36-.411 1.33.804 2.955 1.983 4.15z"/></svg>