<svg xmlns="http://www.w3.org/2000/svg" width="67" height="69"><path fill="#a83657" d="M28.451 12.676c-.447 0-.838-.19-1.108-.544-.288-.375-1.053-1.959.439-7.146-1.737.556-5.197 2.007-7.298 5.19-2.554 3.866-2.41 11.23-2.33 13.057 1.761.624 8.624 3.097 12.163 4.974l3.43-2.11a.634.634 0 01.09-.046c.232-.107 4.538-2.18 6.49-8.295a.67.67 0 01.003-.01c1.861-5.847-2.637-10.44-4.452-12.002-1.082 2.905-4.734 6.78-7.335 6.93a1.735 1.735 0 01-.092.002zM6.288 38.402C2.695 47.15 4.973 55.386 4.996 55.467a.653.653 0 01.025.2c-.001.022-.027 1.375.59 3.157a.642.642 0 01.284.74 11.174 11.174 0 002.3 3.445c.182.187.37.368.566.543.03.022.058.047.084.075 3.05 2.69 7.665 4.069 13.758 4.088-1.188-.694-2.383-1.775-3.577-3.238-5.385-6.598-5.976-16.263-5.759-19.13.263-3.464-.039-11.952-.042-12.038a.639.639 0 01.612-.664.631.631 0 01.658.618c.013.35.308 8.645.04 12.183-.262 3.436.733 12.41 5.472 18.216 2.047 2.507 4.01 3.757 5.867 3.699 1.928-.055 3.41-1.551 4.313-2.797 1.836-2.531.579-4.7-1.8-8.313-.199-.3-.4-.607-.602-.919a34.261 34.261 0 00-.786-1.158l-.003-.005a.71.71 0 01-.007-.009c-1.106-1.56-2.187-2.821-3.02-3.793-.85-.99-1.463-1.706-1.759-2.304-2.743-5.557-.064-9.452.052-9.615a.631.631 0 01.886-.15.646.646 0 01.147.895c-.094.137-2.338 3.457.052 8.298.224.454.824 1.152 1.582 2.036.762.89 1.727 2.015 2.737 3.392 4.015-2.489 9.969-1.608 14.373-.377-.322-2.362-1.199-4.64-2.614-6.782a.664.664 0 01-.01-.015c-2.136-3.225-5.615-5.24-5.65-5.26a.643.643 0 01-.311-.674c.385-2.098-1.497-5.742-2.342-7.12-3.24-2.177-11.764-7.426-14.799-7.264-2.513 2.04-7.406 6.599-10.025 12.975zM34.204 67.65c14.119-.001 27.455-.003 29.293-4.329 1.196-2.816 3.416-12.344 1.329-17.114-.536-1.225-1.295-1.995-2.32-2.353-.824-.29-1.868-.26-2.94.082-.294.093-.58.208-.856.343a.617.617 0 01-.128.065c-1.748.902-3.11 2.62-3.814 4.854-1.622 5.148-6.804 6.567-7.023 6.625a.625.625 0 01-.423-.037c-.128-.058-12.539-5.667-18.916-1.82.148.216.295.437.442.663.2.31.4.613.597.912 2.168 3.294 4.216 6.403 1.767 9.78-.724 1-1.514 1.783-2.35 2.337 1.804-.007 3.588-.007 5.342-.008zm13.421-13.13c.917-.305 4.694-1.78 5.932-5.71.774-2.452 2.256-4.372 4.174-5.46-.013-1.432-.332-4.402-1.762-4.796-3.937-1.084-6.156.894-6.686 2.489l-1.09 3.277c-.095.35-.643 1.76-3.239 1.333-1.376-.225-3.006-.005-3.981.178 1.34 2.25 2.143 4.635 2.392 7.106a42.872 42.872 0 014.26 1.583zm11.56-11.807c1.349-.43 2.642-.454 3.738-.07 1.357.475 2.388 1.5 3.065 3.047 1.253 2.863 1.048 6.998.656 9.963-.464 3.507-1.352 6.696-1.98 8.174-2.167 5.103-14.653 5.106-30.46 5.107-3.487 0-7.092.001-10.73.058-.233.005-.464.006-.693.006-5.438 0-9.8-1.037-13.023-3.091a2.087 2.087 0 01-.196.889c-.515 1.093-1.913 1.625-4.275 1.625-1.696 0-3.158-.66-4.117-1.856-1.016-1.27-1.38-3.03-1-4.826.295-1.388 1.308-2.347 2.93-2.775a7.17 7.17 0 011.144-.2c-.455-1.51-.494-2.68-.494-3.035-.271-1.006-2.237-9.048 1.365-17.817 3.392-8.26 10.223-13.44 11.772-14.538-.09-1.811-.297-9.615 2.54-13.909 1.707-2.585 4.156-4.12 6.097-4.993.08-.745.505-2.178 2.404-3.747.851-.702 1.593-.896 2.203-.579.613.32.856 1.078.946 1.747l.611-.37c1.638-.992 2.836-1.2 3.665-.635.798.543 1.078 1.681.853 3.472 1.477 1.171 7.478 6.457 5.413 13.52.471.89.843 1.634 1.122 2.277.255-.02 1.42-.07 2.23.7.352.335.763.958.716 2.028-.042.974-.382 1.69-1.01 2.128-.488.34-1.053.439-1.546.439-.276 0-.53-.031-.735-.069-2.112 3.096-6.115 2.71-8.248 1.97l-2.582 1.59c.157.105.296.208.414.306a.644.644 0 01.233.495v2.309c.513.85 2.755 4.741 2.547 7.542.96.606 3.575 2.405 5.465 5.079.913-.2 3.075-.59 4.932-.287 1.279.21 1.743-.165 1.808-.392.004-.054 0-.014.017-.064l1.097-3.297c.558-1.68 1.827-2.838 3.667-3.35 1.382-.385 3.086-.373 4.558.033 1.255.346 2.087 1.574 2.474 3.652.124.666.18 1.31.205 1.811.067-.023.134-.046.201-.067zM7.267 63.888a12.502 12.502 0 01-2.573-3.87c-.973.045-2.932.343-3.282 1.99-.3 1.415-.029 2.783.745 3.75.723.902 1.805 1.38 3.13 1.38 1.717 0 2.857-.326 3.125-.892.258-.542-.243-1.4-.484-1.724a13.323 13.323 0 01-.66-.634zM28.49 3.458l1.365-.826c-.005-.67-.155-1.267-.31-1.347-.033-.017-.29 0-.813.432-1.032.852-1.521 1.617-1.752 2.176a13.924 13.924 0 011.51-.435zm.768 1.031c-.866 2.801-1.452 6.153-.911 6.859.025.032.038.052.123.045 2.119-.122 6.022-4.284 6.425-6.852.32-2.026-.114-2.495-.254-2.591-.132-.09-.686-.305-2.3.671zm7.97 22.096h.09c1.946 0 3.367-.753 4.226-2.241a.658.658 0 01.014-.024l.003-.006a7.972 7.972 0 00.368-.707c.397-.923.284-1.742-.892-4.08-1.534 3.77-3.858 5.874-5.33 6.899.446.085.969.152 1.522.159zm-14.207-.172c.784.4 1.624.851 2.522 1.357a105.165 105.165 0 015.399 3.28v-.987c-1.392-.994-4.843-2.45-7.921-3.65z"/></svg>