<svg xmlns="http://www.w3.org/2000/svg" width="150" height="87"><path fill="#a93958" d="M51.476 46.257h-4.429a1.34 1.34 0 01-1.346-1.335V40.76c0-.524.308-.998.79-1.214l5.364-2.418L65.29 12.545a1.35 1.35 0 011.184-.699h18.378a1.34 1.34 0 011.347 1.335v36.946c0 .728-.59 1.321-1.325 1.334l-31.635.514c-2.09 1.327-12.493 7.187-22.988-.242-11.289-7.99-16.553-11.29-23.02-5.797-3.003 2.55-5.465 6.784-4.197 10.489 1.588 4.637 8.573 7.521 19.671 8.121 10.783.584 18.793 2.841 25.86 4.833 10.377 2.925 18.573 5.236 31.159 1.33 2.595-.806 5.622-1.435 8.907-1.894a1.355 1.355 0 011.042-.14c18.335-2.328 43.868.489 47.387 7.606.852 1.724.934 4.424-3.521 7.493-3.137 2.162-6.848 3.241-11.039 3.241-5.357 0-11.5-1.762-18.237-5.273C96.7 77.8 90.704 72.905 88.94 71.406c-3.013.446-5.855 1.057-8.41 1.85-13.35 4.144-22.317 1.617-32.7-1.31-6.931-1.953-14.787-4.168-25.27-4.734-15.726-.85-20.684-5.87-22.074-9.93-1.787-5.22 1.573-10.466 4.994-13.372 8.345-7.087 15.892-1.744 26.338 5.65 8.759 6.204 17.426 1.728 19.66.367zm2.693-7.761V49.29l29.338-.476V14.516h-16.23zm90.808 13.485H89.318a1.34 1.34 0 01-1.346-1.334V16.824a1.34 1.34 0 011.346-1.335h5.776c.565 0 1.07.349 1.264.875L101.81 31.1h2.055c-2.665-5.94-4.751-10.615-4.751-10.615-.075-.188-1.235-3.225-1.13-7.03.144-5.171 2.54-9.261 6.927-11.83 2.959-1.733 5.911-2.085 8.774-1.049 5.927 2.147 9.668 9.753 10.992 12.891 3.71-1.574 14.211-5.414 20.517-1.515C148.382 13.925 150 17.49 150 22.547c0 3.7-1.236 7.092-3.675 10.093v18.007a1.34 1.34 0 01-1.347 1.334zm-54.312-2.669h52.966V33.77H100.87c-.565 0-1.07-.35-1.264-.876l-5.452-14.735h-3.49zm42.76 19.581c-3.959 0-8.561-3.14-8.561-7.188 0-4.049 4.602-7.188 8.561-7.188 4 0 7.254 3.224 7.254 7.188 0 3.964-3.254 7.188-7.254 7.188zm0-11.708c-2.587 0-5.868 2.128-5.868 4.52 0 2.391 3.281 4.519 5.868 4.519 2.515 0 4.56-2.027 4.56-4.52 0-2.491-2.045-4.52-4.56-4.52zM64.968 67.214c-3.959 0-8.561-3.14-8.561-7.19 0-4.048 4.602-7.188 8.56-7.188 4 0 7.255 3.224 7.255 7.189 0 3.964-3.254 7.19-7.254 7.19zm0-11.71c-2.587 0-5.868 2.129-5.868 4.52 0 2.393 3.281 4.52 5.868 4.52 2.515 0 4.56-2.026 4.56-4.52 0-2.491-2.045-4.52-4.56-4.52zm82.338-32.957c0-4.075-1.19-6.878-3.538-8.33-6.34-3.924-19.11 2.182-19.238 2.243a1.353 1.353 0 01-1.102.036 1.34 1.34 0 01-.76-.793c-.036-.104-3.74-10.39-9.912-12.623-2.096-.755-4.213-.483-6.475.842-8.45 4.949-4.961 14.791-4.69 15.519.208.463 2.466 5.521 5.221 11.66h37.304c2.117-2.552 3.19-5.428 3.19-8.554zM80.127 39.062H61.623c-.442 0-.856-.216-1.108-.577a1.324 1.324 0 01-.15-1.231l7.214-18.822c.198-.519.7-.863 1.259-.863h11.29c.743 0 1.346.6 1.346 1.335v18.823a1.34 1.34 0 01-1.347 1.335zm-16.552-2.669h15.206V20.24h-9.014zM48.394 41.62v1.968h3.082v-3.357zm44.234 29.328c6.857 5.384 26.77 19.32 39.375 10.636 2.317-1.597 3.205-2.985 2.64-4.13-2.49-5.032-24.174-8.322-42.015-6.506z"/></svg>