<svg width="25" height="26" fill="none" xmlns="http://www.w3.org/2000/svg"><path d="M0 12.837c0 6.904 5.596 12.5 12.5 12.5S25 19.741 25 12.837c0-6.903-5.596-12.5-12.5-12.5S0 5.934 0 12.837z" fill="#7D3DAF"/><path d="M19.197 9.075l-.004-.016c-.338-1.368-1.863-2.835-3.264-3.14l-.016-.004a18.136 18.136 0 00-6.826 0l-.016.004c-1.4.305-2.925 1.772-3.264 3.14l-.004.016a13.361 13.361 0 000 5.756l.004.017c.214.865.904 1.77 1.736 2.396.722.542 1.348 1.32 1.348 2.224 0 .553.673.824 1.056.425l.848-.881c.444-.461 1.066-.697 1.705-.697 1.14 0 2.281-.108 3.413-.324l.016-.003c1.4-.305 2.926-1.773 3.264-3.14l.004-.017c.418-1.91.418-3.846 0-5.756zm-1.224 5.48c-.226.891-1.384 2-2.303 2.205a16.906 16.906 0 01-3.631.294.086.086 0 00-.065.026l-1.127 1.157-.004.004-1.199 1.23a.14.14 0 01-.242-.097v-2.528a.087.087 0 00-.07-.085H9.33c-.92-.206-2.077-1.315-2.303-2.207a12.125 12.125 0 010-5.202C7.253 8.46 8.41 7.351 9.33 7.146c2.104-.4 4.236-.4 6.34 0 .92.205 2.077 1.314 2.303 2.206a12.111 12.111 0 010 5.202z" fill="#fff"/><path d="M14.501 15.72c-.141-.042-.276-.071-.401-.123-1.297-.538-2.491-1.232-3.437-2.297-.537-.605-.958-1.288-1.314-2.011-.169-.343-.31-.7-.456-1.053-.132-.323.063-.657.268-.9.192-.228.44-.403.707-.532.21-.1.416-.042.569.135.33.383.633.786.88 1.23.15.274.109.608-.165.794-.067.045-.127.098-.19.15a.617.617 0 00-.142.15.412.412 0 00-.027.362c.337.928.906 1.65 1.84 2.038.15.062.3.134.472.114.288-.033.381-.35.583-.515a.55.55 0 01.663-.029c.213.135.419.28.624.425.201.144.401.284.587.447.179.158.24.364.14.577-.184.39-.452.716-.838.923-.11.059-.24.078-.363.116-.141-.043.123-.038 0 0zm-1.997-7.362c1.697.047 3.09 1.173 3.389 2.85.05.286.069.578.091.868.01.122-.06.238-.191.24-.136.002-.197-.112-.206-.234-.018-.242-.03-.484-.063-.724a3.031 3.031 0 00-2.441-2.533c-.19-.034-.383-.043-.575-.063-.121-.013-.28-.02-.307-.17-.023-.127.084-.228.204-.234.033-.002.066 0 .099 0 1.697.047-.033 0 0 0z" fill="#fff"/><path d="M15.082 11.7c-.003.02-.004.07-.017.117-.045.17-.303.192-.362.02a.51.51 0 01-.02-.164 2.065 2.065 0 00-.26-1.03 1.917 1.917 0 00-.805-.755 2.316 2.316 0 00-.642-.197c-.096-.016-.194-.025-.291-.039-.118-.016-.18-.091-.175-.207.005-.109.085-.187.203-.18.39.022.765.106 1.112.29.704.372 1.106.96 1.223 1.745.005.036.014.07.017.106l.017.293c-.003.021-.007-.116 0 0z" fill="#fff"/><path d="M14.027 11.66c-.142.002-.218-.077-.233-.207-.01-.09-.018-.182-.04-.27a.763.763 0 00-.281-.442.733.733 0 00-.23-.11c-.103-.03-.212-.022-.316-.048-.112-.027-.175-.119-.157-.225a.204.204 0 01.215-.163c.658.047 1.128.387 1.195 1.161a.536.536 0 01-.002.165c-.02.09-.087.134-.151.138-.142.003.064-.004 0 0z" fill="#fff"/></svg>