<svg xmlns="http://www.w3.org/2000/svg" width="70" height="59"><path fill="#a83657" d="M42.178 40.781a4.33 4.33 0 01-1.067-.14c-1.79-.458-3.711-2.114-3.747-4.282-.047-2.844 2.925-4.046 4.503-4.284l.114-.017.113.018c2.163.334 3.081 1.363 3.471 2.167.65 1.344.403 3.13-.698 5.03-.568.98-1.534 1.508-2.689 1.508zm-.194-7.222c-.578.111-3.16.723-3.126 2.776.023 1.383 1.353 2.546 2.627 2.871.551.142 1.557.242 2.086-.671.836-1.443 1.072-2.773.647-3.65-.33-.682-1.081-1.127-2.234-1.326zm17.058-5.64a.76.76 0 01-.095-.007h-4.774a.77.77 0 01-.07 0l-15.798.001c-1.545-.048-2.71.306-3.485 1.05-.934.898-1.043 2.131-1.055 2.357.072.57.558 4.692.135 9.737-.086 1.02.14 1.766.689 2.282 1.196 1.125 3.59.836 3.615.833a.722.722 0 01.142-.006c.114.007 11.508.617 20.767 0 8.588-.57 8.969-6.356 8.981-6.602.003-.1.356-10.779.001-15.221-.045-.574-.267-.994-.696-1.322-1.182-.904-3.738-1.014-7.597-.326l-.09.016.018 1.368 4.099-.403a1.178 1.178 0 011.048.506c.565.804.13 2.138.078 2.288-1.11 3.22-5.141 3.434-5.312 3.442h-.505a.761.761 0 01-.088.006h-.005zm-.886-11.157c-.003-.353-.147-3.36-3.986-3.376l-46.124 4.1a.422.422 0 01-.08.003c-.165-.003-4.07-.098-6.366-2.67l.083 3.024c.137.224.294.44.467.641a.736.736 0 01-.087 1.044.744.744 0 01-.329.16l.698 25.409a5.4 5.4 0 00.29.855.737.737 0 01-.242.88l.02.746a9.354 9.354 0 009.272 9.12l.213.002c14.677-.02 36.724-1.682 36.945-1.7a.798.798 0 01.192.01c.013.003.475.083 1.183.113a.746.746 0 01.61-.487c.028-.004 1.955-.244 4.374-.536.213-.124.42-.262.619-.416 1.349-1.043 2.106-2.657 2.25-4.798.051-.761.093-1.83.125-3.184-1.092.063-2.207.11-3.323.144.011.117.023.244.034.38a.742.742 0 01-.745.803.745.745 0 01-.744-.679c-.014-.17-.029-.328-.043-.466-1.31.027-2.608.039-3.864.039-5.792 0-10.647-.242-11.268-.275-.496.055-3.17.269-4.77-1.234-.886-.834-1.273-2.004-1.15-3.48.433-5.155-.129-9.437-.134-9.48a.722.722 0 01-.007-.097c0-.082.017-2.022 1.51-3.457 1.077-1.034 2.605-1.527 4.55-1.468H53.39v-.37c0-.41.335-.74.747-.74.413 0 .748.33.748.74v.37h3.402c-.056-5.393-.13-9.626-.13-9.67zm1.493 32.222c-.132 1.957-.71 3.565-1.722 4.8l.89-.103c2.635-.308 2.737-2.772 2.74-2.877V45.34c-.554.11-1.145.199-1.777.259a79.265 79.265 0 01-.131 3.385zm-10.696 7.5c-1.571.118-22.715 1.678-36.967 1.696h-.23a10.837 10.837 0 01-10.75-10.562l-.065-2.391a.729.729 0 01-.001-.047L.196 18.097a.731.731 0 01-.002-.048l-.19-6.951a.735.735 0 01.018-.187 9.457 9.457 0 01.052-1.754c.335-2.841 1.32-4.857 2.93-5.99 1.659-1.168 3.423-.98 3.882-.905L57.504-.003h.001c.123 0 4.913.1 5.542 6.337a.696.696 0 01.004.073v12.386c1.99-.114 3.982.078 5.26 1.055.767.586 1.195 1.385 1.275 2.378.36 4.525.016 14.953.001 15.395-.002.066-.295 5.375-6.569 7.346a.734.734 0 01.033.217v5.64c-.039 1.352-.937 3.963-4.06 4.327-1.084.127-2.194.259-3.228.384-2.814 1.484-6.174 1.05-6.81.949zm8.594-55.006L6.869 3.745a.76.76 0 01-.196-.017c-.056-.011-1.487-.294-2.823.66-1.238.884-2.01 2.546-2.292 4.94-.22 1.87.165 3.38 1.146 4.491 1.759 1.993 4.889 2.174 5.253 2.188l46.114-4.1a.904.904 0 01.066-.002c5.45 0 5.514 4.795 5.514 4.843 0 .015.016.938.039 2.462a36.114 36.114 0 011.866-.281V9.413c-1.636.104-31.106 1.956-45.438 1.956a97.78 97.78 0 01-4.167-.074c-4.1-.18-6.067-.863-6.378-2.216-.09-.39-.173-1.752 2.397-3.199.382-.518 1.093-1.294 27.54-1.421 11.616-.056 23.25.047 25.633.07-1.024-2.894-3.36-3.043-3.596-3.05zm5.994 22.514a2.38 2.38 0 00.127-.812l-3.919.385.033 2.85c.669-.076 3.09-.483 3.759-2.423zm-52.197-1.335a.746.746 0 01-.738-.63.742.742 0 01.627-.843l2.123-.318a.749.749 0 01.85.622.741.741 0 01-.628.842l-2.121.318a.787.787 0 01-.113.009zm42.793-.088a.744.744 0 01-.747-.74v-2.116c0-.41.335-.74.747-.74.413 0 .748.33.748.74v2.116c0 .409-.335.74-.748.74zm-47.046-.093a.776.776 0 01-.142-.013 14.643 14.643 0 01-2.173-.58.739.739 0 01-.45-.948.75.75 0 01.956-.446c.596.213 1.252.387 1.948.52a.74.74 0 01.594.866.745.745 0 01-.733.601zm10.614-.766a.745.745 0 01-.739-.632.742.742 0 01.63-.842l2.12-.31a.748.748 0 01.848.624.742.742 0 01-.63.84l-2.119.312a.76.76 0 01-.11.008zm6.354-.927a.745.745 0 01-.738-.635.742.742 0 01.632-.839l2.12-.304a.746.746 0 01.846.627.742.742 0 01-.633.84l-2.118.303a.806.806 0 01-.109.008zm6.357-.905a.746.746 0 01-.739-.637.742.742 0 01.635-.837l2.12-.295a.748.748 0 01.842.632.741.741 0 01-.636.835c-.703.097-1.41.195-2.116.295a.765.765 0 01-.106.007zm6.358-.873a.745.745 0 01-.74-.64.742.742 0 01.641-.833 532.76 532.76 0 012.125-.282.744.744 0 01.839.638.742.742 0 01-.644.83c-.69.09-1.398.184-2.12.28a.783.783 0 01-.101.007zm6.371-.814a.745.745 0 01-.74-.652.741.741 0 01.652-.824 228.06 228.06 0 012.136-.246.75.75 0 01.825.655.742.742 0 01-.66.817 234 234 0 00-2.122.244.727.727 0 01-.09.006zm8.53-.383a.756.756 0 01-.13-.012 13.206 13.206 0 00-2.007-.167.743.743 0 01-.735-.751.744.744 0 01.747-.73h.012a14.58 14.58 0 012.242.19.74.74 0 01.606.858.745.745 0 01-.735.612zM24.657 53.455h-.069a.744.744 0 01-.747-.74c0-.41.334-.74.747-.74h.07c.727 0 1.46-.003 2.193-.007h.004c.41 0 .745.33.747.737a.743.743 0 01-.743.744c-.736.004-1.47.006-2.202.006zm-4.6-.032h-.011c-.78-.012-1.54-.027-2.274-.046a.743.743 0 01-.727-.76.735.735 0 01.767-.72c.729.018 1.483.034 2.256.045a.744.744 0 01.736.752.744.744 0 01-.747.729zm11.33-.018a.744.744 0 01-.746-.73.744.744 0 01.737-.75c.768-.011 1.524-.023 2.263-.036h.014c.406 0 .74.323.747.727a.744.744 0 01-.734.754l-2.27.035h-.01zm6.801-.129a.744.744 0 01-.746-.722.744.744 0 01.729-.759c.807-.019 1.566-.038 2.264-.057a.74.74 0 11.04 1.481c-.7.018-1.46.038-2.269.057h-.018zm-24.922-.097c-.017 0-.035 0-.052-.002-.46-.031-.894-.065-1.3-.103a20.487 20.487 0 01-1.01-.12.742.742 0 01-.632-.838.747.747 0 01.846-.627c.303.043.614.08.937.11.393.037.815.07 1.262.101a.742.742 0 01.694.79.744.744 0 01-.745.689zm31.725-.096a.744.744 0 01-.747-.715.744.744 0 01.722-.765l.178-.006c-.008 0 .857-.074 2.021-.215a.741.741 0 01.18 1.47 64.67 64.67 0 01-2.11.222l-.219.01h-.025zm6.741-.965a.74.74 0 01-.173-1.461c1.233-.292 1.692-.533 1.855-.65a.752.752 0 011.043.164.736.736 0 01-.165 1.034c-.457.329-1.237.62-2.385.892a.76.76 0 01-.175.021zm-45.045-.43a.744.744 0 01-.33-.077 11.462 11.462 0 01-2.048-1.275.735.735 0 01-.122-1.04.751.751 0 011.05-.121 9.983 9.983 0 001.78 1.108c.37.18.523.625.34.991a.748.748 0 01-.67.413zm2.466-44.84a.745.745 0 01-.247.212c-1.068.57-1.939 1.42-1.876 1.69.001.008.328.86 4.988 1.065 10.853.477 43.6-1.515 48.811-1.84V6.006c-18.936-.19-48.714-.125-51.676.841z"/></svg>