<svg width="26" height="26" fill="none" xmlns="http://www.w3.org/2000/svg"><path d="M.01 12.837c0 6.904 5.597 12.5 12.5 12.5 6.904 0 12.5-5.596 12.5-12.5 0-6.903-5.596-12.5-12.5-12.5-6.903 0-12.5 5.597-12.5 12.5z" fill="#1BD741"/><path d="M4.99 20.367l1.053-3.742A7.488 7.488 0 015.01 12.82c0-4.142 3.37-7.511 7.511-7.511 4.142 0 7.511 3.37 7.511 7.51 0 4.143-3.37 7.512-7.51 7.512a7.496 7.496 0 01-3.673-.958l-3.858.994zm4.055-2.36l.23.14c.975.595 2.097.91 3.245.91a6.244 6.244 0 006.237-6.237 6.244 6.244 0 00-6.237-6.237 6.244 6.244 0 00-6.237 6.237c0 1.198.34 2.362.985 3.365l.155.241-.607 2.155 2.23-.574z" fill="#fff"/><path d="M10.41 9.324l-.487-.027a.59.59 0 00-.42.143c-.235.206-.613.602-.73 1.12-.172.77.095 1.714.787 2.657.692.944 1.982 2.454 4.263 3.1.735.207 1.313.067 1.76-.218.353-.226.596-.59.684-1l.078-.363a.253.253 0 00-.142-.282l-1.647-.76a.253.253 0 00-.305.076l-.647.838a.185.185 0 01-.208.062c-.443-.155-1.926-.777-2.74-2.345a.187.187 0 01.024-.208l.617-.715a.252.252 0 00.042-.264l-.71-1.661a.253.253 0 00-.219-.153z" fill="#fff"/></svg>