<svg xmlns="http://www.w3.org/2000/svg" viewBox="0 0 231.91 57.1"><defs><style>.cls-1{fill:#472b59;}.cls-2{isolation:isolate;}</style></defs><title>Ресурс 1</title><g id="Слой_2" data-name="Слой 2"><g id="Layer_1" data-name="Layer 1"><path class="cls-1" d="M24,3a13.22,13.22,0,0,1,7.1-1.7,10.94,10.94,0,0,1,5.8,2,.91.91,0,0,0,1.2-.1c.6-.6,1.5-1.4,2.4-1.3a5.3,5.3,0,0,1,3.8,3.7c.8,2.4-.7,5-2,4.8H42a.8.8,0,0,0-.9.7v.2c.3,2.1.5,5.8-.2,7.6a1.06,1.06,0,0,0,.3,1.3c2.5,1.8,10.4,8.2,7.2,17.8-.5,1.4.2,1.1.7,1.3,2,.5,5.9,2.1,5.9,6.5,0,5.8-.4,9.5-7.5,11.3h-.3a6.12,6.12,0,0,1-4.6-2.3c-1-1.5-3.4-4.5-4.9-6.4a3.63,3.63,0,0,0-3.6-1.3l-2,.4a.88.88,0,0,1-1-.5,3,3,0,0,0-1.4-1.3,1,1,0,0,1-.6-1.1c.4-1.7.6-5.5-4.6-8.3a.91.91,0,0,1-.3-1.4,5.14,5.14,0,0,0,.8-3,.91.91,0,0,1,.3-.7,3.33,3.33,0,0,0,1.1-1.9c0-1.1-.2-2.2-2.4-1.9a.84.84,0,0,1-.7-.2,5.74,5.74,0,0,0-5.4-.9,1.23,1.23,0,0,1-1-.2c-.4-.4-1.3-.9-2.7.2-.1.1-.2.2-.2.3l-.6,1s-.8,1.7.7,1.7c.1,0,.2.1.1.2-.2.6-1.2,3.8.5,5.6v1.1c0,.1,0,.1-.1.1a8,8,0,0,0-4,4.2,7.9,7.9,0,0,0-.3,6,1.59,1.59,0,0,0,.8,1,1,1,0,0,1,.4,1.3h0a3.86,3.86,0,0,0-.1,4.4,1,1,0,0,1-.4,1.5c-1.6.8-4.9,1.4-8.9-3s-1.3-8.6.6-10.5A7.33,7.33,0,0,1,5,39.6l1.6-.8a.76.76,0,0,0,.5-.9,17.55,17.55,0,0,1,5.2-13.3h0a29.68,29.68,0,0,1,6.1-5.2c.1,0,.1-.1,0-.2-.4-.6-2.5-4.1-.2-10.6V8.1s-2,.1-2.6-.6a4.48,4.48,0,0,1,.6-5.3A6.49,6.49,0,0,1,20.91,0H21c.3,0,2,.3,2,1.3s0,1.8.3,2S24,3,24,3Z"/><g class="cls-2"><path d="M61.71,23.8h3.6l1.2,3.3a20.16,20.16,0,0,1,.7,2.3h.1c.2-.7.5-1.4.7-2.3l1.1-3.3h3.6V34h-2.8V31.6c0-1.1.2-3.4.3-4.5h-.1c-.3.9-.7,2.1-1,2.9L68,33.1h-1.6L65.21,30c-.3-.9-.7-2.1-1-2.9h-.1c.1,1.2.3,3.4.3,4.5V34h-2.8V23.8Z"/><path d="M84.11,23.8V34h-3.2V30.8h-1l-2,3.2h-3.6L77,30.1a3.21,3.21,0,0,1-1.7-2.9c0-2.6,1.9-3.4,4.3-3.4Zm-3.2,2.3H80q-1.5,0-1.5,1.2c0,.8.5,1.3,1.5,1.3h.9Z"/><path d="M86.61,23.8h7.1v2.5h-3.9V34h-3.2Z"/><path d="M105.51,34H102l-2.3-4h-1v4h-3.2V23.8h3.2v3.7h.9l.9-1.8a3.15,3.15,0,0,1,3.3-2.1c.3,0,.6.1.8.1l-.5,3c-.1,0-.3-.1-.4-.1-.5,0-.9.1-1.3,1l-.5,1.1Z"/><path d="M106.91,23.8H110v2.7c0,1-.2,2.4-.3,3.6h.1c.3-.6.9-1.5,1.2-2.1l2.5-4.1h2.9V34h-3.1V31.3c0-1,.2-2.4.3-3.6h-.1a14.32,14.32,0,0,1-1.2,2.1l-2.5,4.1h-2.9Z"/><path d="M118.41,28.9a5.1,5.1,0,0,1,4.9-5.4c3,0,4.4,2.1,4.4,5,0,.6-.1,1.1-.1,1.4h-6a2.41,2.41,0,0,0,2.6,2,4.87,4.87,0,0,0,2.2-.6l1.1,1.9a6.51,6.51,0,0,1-3.7,1.2A5.22,5.22,0,0,1,118.41,28.9Zm6.5-1.2c0-1-.5-1.8-1.6-1.8a1.93,1.93,0,0,0-1.9,1.8Z"/><path d="M133.81,23.8h3.6l1.2,3.3a20.16,20.16,0,0,1,.7,2.3h.1c.2-.7.5-1.4.7-2.3l1.1-3.3h3.6V34H142V31.6c0-1.1.2-3.4.3-4.5h-.1c-.3.9-.7,2.1-1,2.9l-1.1,3.1h-1.7l-1-3.1c-.3-.9-.7-2.1-1-2.9h-.1c.1,1.2.3,3.4.3,4.5V34h-2.8Z"/><path d="M147.51,23.8h3.1v2.7c0,1-.2,2.4-.3,3.6h.1c.3-.6.9-1.5,1.2-2.1l2.5-4.1H157V34h-3.1V31.3c0-1,.2-2.4.3-3.6h-.1a14.32,14.32,0,0,1-1.2,2.1l-2.5,4.2h-2.9Z"/><path d="M159.51,23.8h3.2v7.7h2.4V23.8h3.1v7.7h2.4V23.8h3.2V34h-14.1V23.8Z"/><path d="M186.21,34h-3.5l-2.3-4h-1v4h-3.2V23.8h3.2v3.7h.9l.9-1.8a3.15,3.15,0,0,1,3.3-2.1c.3,0,.6.1.8.1l-.5,3c-.1,0-.3-.1-.4-.1-.5,0-.9.1-1.3,1l-.5,1.1Z"/><path d="M187.61,23.8h3.1v2.7c0,1-.2,2.4-.3,3.6h.1c.3-.6.9-1.5,1.2-2.1l2.5-4.1h2.9V34H194V31.3c0-1,.2-2.4.3-3.6h-.1a14.32,14.32,0,0,1-1.2,2.1l-2.5,4.1h-2.9Z"/><path d="M199.61,32.3a1.9,1.9,0,1,1,1.9,2A1.92,1.92,0,0,1,199.61,32.3Z"/><path d="M205.91,23.8h2.6l.2,1h.1a4.45,4.45,0,0,1,2.9-1.2c2.4,0,4,2.1,4,5.2,0,3.5-2.1,5.5-4.3,5.5a3.36,3.36,0,0,1-2.4-1.1l.1,1.6v2.9h-3.2V23.8Zm6.5,5c0-1.8-.5-2.6-1.7-2.6a2.06,2.06,0,0,0-1.6.9V31a2,2,0,0,0,1.5.6C211.61,31.6,212.41,30.8,212.41,28.8Z"/><path d="M223,35.2l.1-1.5a3.88,3.88,0,0,1-1.9.6c-2.4,0-4-2-4-5.4s2-5.4,4-5.4a3.56,3.56,0,0,1,1.9.5l-.1-1.5v-3h3.1v3l-.1,1.6a5.09,5.09,0,0,1,2.1-.6c2.3,0,3.8,2.1,3.8,5.2,0,3.5-1.9,5.5-4,5.5a3.45,3.45,0,0,1-1.8-.5l.1,1.5v2.5h-3.1V35.2Zm.1-4V26.4A1.67,1.67,0,0,0,222,26c-.8,0-1.4.8-1.4,2.7s.6,2.8,1.5,2.8A1,1,0,0,0,223.11,31.2Zm5.5-2.4c0-1.8-.5-2.6-1.4-2.6a1.92,1.92,0,0,0-1.2.4v4.8a1.43,1.43,0,0,0,1.1.3C227.91,31.6,228.61,30.8,228.61,28.8Z"/></g></g></g></svg>