<svg xmlns="http://www.w3.org/2000/svg" width="442" height="184" viewBox="0 0 442 184"><g><g><path fill="#a93958" d="M214.392 68.999c.148.01.286.048.412.109.57.028 3.317-.129 14.974-3.07 14.838-3.743 16.663-14.021 16.733-14.456.01-.056.022-.11.04-.163-5.638-5.414-10.617-10.166-11.134-10.569a1.086 1.086 0 0 1-.464-1.128c.084-.442.445-.778.887-.874l16.396-3.539c.842-2.265 3.099-12.236 5.03-21.56l-11.504-.6c-1.832 7.31-9.002 16.864-15.576 20.576a1.129 1.129 0 0 1-.089.05c-1.036.577-2.047 1.003-3.004 1.265-4.965 1.363-13.529-1.85-22.596-5.248a392.907 392.907 0 0 0-5.818-2.147c-3.446-1.229-6.079-2.045-8.284-2.57-8.833-2.1-15.137-1.602-18.303-1.242a1.13 1.13 0 0 1-1.126.134c-.368.043-.67.076-.914.09-5.716.31-14.318 4.306-21.412 10.075 2.14 1.078 7.861 3.9 10.243 4.473 1.72.413 10.3 2.684 10.3 6.825 0 2.002-.638 3.645-1.895 4.884-2.163 2.131-5.424 2.252-5.924 2.258-.43.035-.879.055-1.333.057l-.114.001c-8.241 0-17.957-5.366-21.125-7.257a22.117 22.117 0 0 0-1.787 4.155c2.665.452 6.217 2.062 6.487 6.05.27 3.979-1.768 7.381-2.926 8.97 1.643 1.117 3.601 1.99 5.647 2.902 1.259.561 2.56 1.142 3.782 1.788 6.039 3.202 22.609 2.993 26.839 2.883.305-1.834 1.431-3.442 2.513-4.528a3358.41 3358.41 0 0 1-5.28-5.155 1.119 1.119 0 0 1 .077-1.667c.358-.292 9.087-7.09 33.938-1.23.3.072.558.262.714.526l5.265 8.959c.105-.024.216-.034.33-.027zm-41.683 5.421c-6.84 0-18.555-.433-23.776-3.202-1.154-.612-2.42-1.177-3.644-1.722-2.392-1.067-4.9-2.185-6.964-3.827a1.136 1.136 0 0 1-.127-.102c-3.46-2.815-5.61-7.157-3.725-15.31.534-2.312 1.509-4.591 2.815-6.792a1.117 1.117 0 0 1 .28-.464c7.07-11.448 22.995-20.674 32.36-21.184l.02-.001c-.21-1.197-.14-2.354.212-3.455.623-1.956 2.453-3.27 4.555-3.27h3.654c.165 0 .323.035.465.099l12.01-11.97c.433-.492 4.28-4.62 9.646-2.73.916.323 1.81.607 2.674.881 3.837 1.22 7.46 2.37 6.461 5.714-.743 2.489-7.007 15.006-8.963 18.89 1.539.559 3.106 1.146 4.632 1.719 8.33 3.122 16.943 6.35 21.198 5.185a9.949 9.949 0 0 0 1.38-.499c-1.65-2.172-5.31-7.01-6.534-8.818-.316-.466-.305-1.06.029-1.59.917-1.453 5.857-3.786 10.855-3.082.213.03.413.12.577.26l5.1 4.347c2.914-3.846 5.186-8.19 5.857-11.726a1.126 1.126 0 0 1 1.168-.912l13.77.72c.328.016.632.174.833.433.2.257.28.59.214.91-.975 4.748-4.05 19.481-5.44 23.241l14.18 20.859c.269.394.257.915-.03 1.297-2.132 2.848-5.618 3.439-8.143 3.439-1.7 0-2.966-.268-3.092-.294a1.144 1.144 0 0 1-.542-.292 5321.908 5321.908 0 0 0-8.247-7.949c-.982 3.246-4.76 11.625-18.093 14.989-9.036 2.28-13.046 2.996-14.923 3.111l11.855 20.172c.048.085 1.152 2.01.48 4.213-.478 1.565-1.69 2.83-3.602 3.761a1.136 1.136 0 0 1-.346.105c-.147.02-1.707.22-3.769.22-2.81 0-6.555-.372-8.93-2.088-.551-.398-1.688-1.39-3.233-2.798l-14.229.02a2.508 2.508 0 0 1-.926.176c-.777 0-1.596-.348-2.365-1.026-2.075-1.827-3.588-5.837-2.44-8.67 1.366-3.367 3.775-4.434 5.024-4.648l-2.44-2.353-8.492-.004a4.85 4.85 0 0 1-4.576-2.674l-.06-.118a5.85 5.85 0 0 1-.457-1.246c-.917.025-2.386.055-4.196.055zm13.94.27l-.2.53a5.049 5.049 0 0 1-.473.942h2.193l-1.52-1.471zm-14.338-55.652c-.252.789-.29 1.635-.113 2.526l.268-.028 2.123-2.116c-.034-.683-.204-1.186-.492-1.437-.245-.214-.574-.248-.765-.247a2.425 2.425 0 0 0-1.02 1.302zm4.371-1.704h-.304c.034.067.065.137.095.208zm14.24 5.56c2.083.496 4.517 1.236 7.6 2.316 2.644-5.241 8.308-16.65 8.94-18.763.334-1.12-1.263-1.757-4.985-2.94-.881-.28-1.792-.57-2.742-.904-4.088-1.44-7.077 1.96-7.203 2.105l-.06.067-16.576 16.52c3.63-.129 8.709.097 15.025 1.599zm6.429 62.111c1.015 3.158.74 5.726-.818 7.677l8.909-.013a892.412 892.412 0 0 1-8.091-7.664zm18.052-15.177zm42.599-10.5c1.186.193 5.625.716 8.127-1.76l-13.613-20.025-14.071 3.038c4.122 3.855 14.411 13.776 19.557 18.747zM231.586 21.07c-3.522-.39-6.883.986-7.987 1.799 1.518 2.15 4.89 6.6 6.275 8.421 2.234-1.427 4.538-3.573 6.62-6.037zm-54.9 40.78c4.691 4.586 24.062 23.485 32.32 31.058.043.034.083.07.12.11 1.596 1.461 2.761 2.483 3.302 2.874 3.092 2.233 9.711 1.612 10.89 1.48 1.228-.632 1.991-1.41 2.268-2.315.384-1.26-.265-2.422-.271-2.433l-18.224-31.01c-12.082-2.793-19.99-2.416-24.515-1.599-2.901.526-4.808 1.291-5.89 1.836zM141.24 55.73c-.199-2.938-3.208-3.773-4.774-4.01-1.143 5.77.015 9.102 2.345 11.403.978-1.376 2.644-4.22 2.429-7.393zm18.676-5.343h.1c.412-.003.816-.02 1.201-.054.035-.003.07-.004.107-.004.033 0 2.766-.013 4.384-1.617.82-.812 1.218-1.885 1.218-3.282 0-1.547-4.433-3.651-8.573-4.645-3.173-.763-11.056-4.813-11.564-5.075-2.654 2.372-5.019 4.989-6.831 7.737 3.007 1.78 12.376 6.94 19.958 6.94zm21.578 3.576c-.295 0-.595-.03-.897-.087-1.762-.347-3.042-1.617-3.34-3.318-.513-2.929 1.998-4.55 3.397-5 .112-.036.23-.054.347-.054 1.877 0 3.403.808 4.185 2.216.751 1.352.668 2.998-.223 4.403-.74 1.168-2.043 1.84-3.47 1.84zm-.303-6.212c-.524.21-1.97.935-1.71 2.423.201 1.15 1.24 1.44 1.553 1.501.635.124 1.544.002 2.02-.747.445-.704.503-1.498.156-2.124-.356-.64-1.068-1.01-2.019-1.053zm11.632 6.212c-.295 0-.596-.03-.897-.087-1.763-.347-3.042-1.618-3.34-3.318-.513-2.929 1.998-4.55 3.397-5 .112-.036.23-.054.347-.054 1.877 0 3.402.808 4.185 2.216.751 1.352.669 2.998-.222 4.403-.74 1.168-2.044 1.84-3.47 1.84zm-.303-6.212c-.524.21-1.97.935-1.71 2.423.202 1.15 1.24 1.44 1.553 1.501.636.127 1.545.004 2.02-.747.446-.704.504-1.497.156-2.124-.356-.64-1.068-1.01-2.02-1.053zm11.632 6.212c-.295 0-.595-.03-.896-.087-1.763-.347-3.043-1.617-3.341-3.318-.513-2.929 1.998-4.55 3.397-5 .112-.036.229-.054.347-.054 1.877 0 3.403.808 4.185 2.216.752 1.353.668 2.998-.222 4.403-.74 1.168-2.044 1.84-3.47 1.84zm-.303-6.212c-.524.21-1.97.935-1.71 2.423.201 1.15 1.24 1.44 1.554 1.501.635.124 1.543.002 2.019-.747.445-.704.504-1.497.156-2.124-.355-.64-1.068-1.01-2.02-1.053zm11.632 6.212c-.295 0-.595-.03-.897-.087-1.762-.347-3.042-1.618-3.34-3.318-.513-2.929 1.998-4.55 3.397-5 .112-.036.23-.054.347-.054 1.877 0 3.403.808 4.185 2.216.752 1.352.668 2.998-.222 4.403-.74 1.168-2.044 1.84-3.47 1.84zm-.303-6.212c-.523.21-1.97.935-1.71 2.423.202 1.15 1.24 1.44 1.554 1.501.634.124 1.543.004 2.019-.747.445-.704.504-1.498.156-2.124-.355-.64-1.068-1.01-2.019-1.053zm11.632 6.212a4.73 4.73 0 0 1-.896-.087c-1.763-.347-3.043-1.618-3.34-3.318-.514-2.929 1.997-4.55 3.396-5 .112-.036.23-.054.347-.054 1.877 0 3.403.808 4.185 2.216.751 1.352.669 2.998-.222 4.403-.74 1.168-2.044 1.84-3.47 1.84zm-.303-6.212c-.523.21-1.97.935-1.71 2.423.202 1.15 1.24 1.44 1.554 1.501.633.124 1.543.004 2.019-.747.446-.704.504-1.497.156-2.124-.356-.64-1.068-1.01-2.019-1.053zm-47.126 26.856l.057.115c.468.92 1.352 1.464 2.39 1.443.036-.003.073-.005.11-.005h.017c.852-.046 1.925-.524 2.382-1.73l.548-1.45c-1.391-1.351-2.712-2.635-3.923-3.814-1.041 1.034-2.71 3.173-1.581 5.441zm14.016 8.352c-.078.007-2.16.237-3.396 3.287-.75 1.85.394 4.88 1.842 6.155.31.272.753.547.991.429l.03-.016c1.992-1.095 4.005-3.007 1.997-8.072-.482-1.214-.868-1.704-1.032-1.873a1.124 1.124 0 0 1-.432.09zM16.941 123.08c-2.458 0-5.03-1.002-7.503-2.988-3.443-2.765-6.376-7.124-8.05-11.96-1.803-5.212-1.846-10.127-.121-13.84 4.727-10.177 21.132-8.797 26.8-7.987-.752-2.598-1.58-7.502.806-12.296 2.498-5.021 7.805-8.506 15.772-10.357 7.511-1.746 13.776-.948 18.619 2.371 6.2 4.25 8.12 11.291 8.61 13.69 6.184 1.158 13.43 3.917 14.634 10.46.757 4.108-1.035 8.993-5.182 14.124-3.717 4.598-9.073 9.058-15.08 12.559-16.379 9.538-30.556-.397-33.872-3.056l-9.913 7.385c-1.698 1.267-3.574 1.895-5.52 1.895zm3.434-35.063c-6.416 0-14.311 1.3-17.059 7.215-2.67 5.745.043 17.094 7.54 23.116 2.56 2.054 6.415 3.902 10.25 1.044l10.633-7.922a1.133 1.133 0 0 1 1.45.079c.427.396 7.907 7.174 18.482 7.175 4.09 0 8.644-1.014 13.432-3.804 12.386-7.214 20.454-17.453 19.185-24.344-.809-4.39-5.504-7.43-13.578-8.792a1.124 1.124 0 0 1-.93-.955c-.011-.085-1.237-8.477-7.815-12.972-4.295-2.934-9.949-3.614-16.806-2.021-7.267 1.688-12.063 4.765-14.252 9.146-2.932 5.866-.147 12.216-.118 12.28.172.383.114.83-.15 1.158a1.13 1.13 0 0 1-1.101.4c-.093-.018-4.182-.803-9.163-.803zM295.872 184c-3.078 0-6.614-.466-10.598-1.4-9.319-2.182-15.43-6.408-18.166-12.558-3.712-8.348-.058-17.613 1.468-20.837-3.142-1.229-11.295-5.024-13.693-12.072-1.509-4.434-.451-9.28 3.142-14.405 3.509-5.005 8.04-8.467 13.469-10.289 9.75-3.268 20.717-.448 27.937 7.192l6.28 6.643c.691-3.5 2.498-10.066 6.695-13.34 2.027-1.582 4.364-2.217 6.94-1.886 6.335.813 10.816 3.374 13.318 7.611 4.04 6.842 1.676 15.957.56 19.348 1.98.342 5.76 1.191 9.582 3.116 7.341 3.695 11.24 9.574 11.275 17.002.014 2.953-1.15 5.522-3.457 7.64-9.167 8.405-34.24 7.338-40.262 6.948-.044 1.86-.567 5.25-3.463 7.867-2.52 2.278-6.212 3.42-11.027 3.42zm-16.117-70.66c-2.534 0-5.08.4-7.54 1.225-4.96 1.664-9.11 4.842-12.338 9.445-3.16 4.505-4.121 8.677-2.858 12.397 2.557 7.534 13.37 11.074 13.48 11.11a1.122 1.122 0 0 1 .641 1.61c-.06.109-6 10.957-1.962 20.019 2.437 5.467 8.027 9.26 16.614 11.272 9.316 2.181 16.09 1.665 19.588-1.496 3.248-2.935 2.695-7.222 2.69-7.265a1.123 1.123 0 0 1 1.214-1.27c.3.026 30.31 2.44 39.81-6.271 1.848-1.695 2.741-3.651 2.73-5.98-.03-6.607-3.39-11.647-9.983-14.985-5.057-2.56-10.204-3.112-10.255-3.118a1.128 1.128 0 0 1-.85-.535c-.184-.3-.215-.67-.083-.997.045-.112 4.453-11.285.06-18.714-2.131-3.604-6.053-5.795-11.655-6.515-1.982-.254-3.7.212-5.255 1.423-5.016 3.91-6.212 14.032-6.224 14.133-.049.435-.348.8-.765.94a1.138 1.138 0 0 1-1.18-.297l-7.849-8.305c-4.791-5.07-11.376-7.826-18.03-7.826zm89.468-34.932c-7.881 0-14.87-2.083-20.199-4.395-7.868-3.412-13.439-7.788-15.522-9.561-2.01 2.258-7.735 7.873-15.598 8.675-5.58.57-11.056-1.417-16.26-5.907-2.097-1.81-2.32-3.76-2.137-5.078.43-3.098 3.55-6.582 9.273-10.354a72.04 72.04 0 0 1 5.397-3.209 42.852 42.852 0 0 1-3.956-1.2c-5.063-1.825-8.016-4.162-8.774-6.942-.775-2.845.789-5.904 4.65-9.09 13.759-11.349 37.171-6.588 40.734-5.777 26.763-13.937 61.413-2.922 62.687-2.508 1.532.42 29.021 8.105 32.173 19.278.856 3.033-.077 6.01-2.773 8.849-5.885 6.198-15.517 9.65-27.852 9.988-5.257.143-9.91-.293-13.003-.708.615.884 1.067 1.971 1.041 3.25-.072 3.677-3.9 7.186-11.702 10.727-6.33 2.875-12.487 3.962-18.179 3.962zm-35.841-16.683c.286 0 .564.109.774.306.246.229 24.862 22.837 52.308 10.376 8.965-4.07 10.354-7.217 10.383-8.731.047-2.362-2.944-3.929-2.974-3.944a1.12 1.12 0 0 1-.556-1.374c.189-.53.744-.844 1.3-.724.292.063 29.381 5.997 42.658-7.984 2.145-2.258 2.878-4.45 2.242-6.706-2.832-10.039-30.346-17.651-30.624-17.727a1.306 1.306 0 0 1-.06-.019c-.347-.116-35.005-11.423-61.317 2.548a1.132 1.132 0 0 1-.804.1c-.252-.062-25.452-6.09-39.173 5.228-3.12 2.574-4.436 4.854-3.913 6.776 1.14 4.186 10.526 6.612 14.047 7.194a1.12 1.12 0 0 1 .298 2.12c-4.28 2.01-15.538 8.313-16.227 13.286-.157 1.132.294 2.14 1.38 3.077 4.709 4.063 9.601 5.87 14.534 5.37 8.69-.877 14.766-8.653 14.827-8.73a1.133 1.133 0 0 1 .897-.442z"/></g></g></svg>