<svg xmlns="http://www.w3.org/2000/svg" width="20" height="29" viewBox="0 0 20 29"><g><g><path fill="#ffb713" d="M3.766 7.362v-1.14C3.766 2.581 6.493 0 10 0c3.506 0 6.233 2.582 6.233 6.221v1.14c0 3.64-2.727 7.155-6.233 7.155-3.507 0-6.234-3.516-6.234-7.154zm16.233 13.904v5.317C20 28.34 19.346 29 17.5 29H2.5C.67 29 0 28.3 0 26.583v-5.317c0-.253.016-.498.043-.738.002-.021.008-.04.01-.061.03-.226.074-.446.135-.662l.006-.013c.13-.46.35-.904.675-1.34.002-.003.002-.005.004-.006l.002-.002c.54-.723 1.396-1.396 2.682-2.18.623-.381 1.01-.555 1.443-.555.69 0 1.291.517 2.304 1.418h.002l.922.818c.034.03 1.028 1.388 1.772 1.388s1.738-1.357 1.771-1.388l.922-.818h.002c1.014-.9 1.615-1.418 2.305-1.418.433 0 .742.174 1.443.555 1.326.72 2.142 1.457 2.683 2.182v.002a4.085 4.085 0 0 1 .684 1.356c.062.217.107.44.137.667.002.02.007.038.01.056.027.241.042.486.042.739z"/></g></g></svg>