<svg xmlns="http://www.w3.org/2000/svg" width="44" height="57" viewBox="0 0 44 57"><g><g><path fill="#ffb713" d="M17.881 56.94c-9.156.002-13.459-4.81-16.444-9.776-3.882-6.456.829-20.205 5.778-26.832 3.437-4.603 7.502-5.807 9.707-6.11l-1.055-1.3-.789-.02a.779.779 0 0 1-.393-1.436l-6.2-7.64a.776.776 0 0 1-.03-.939c.201-.284.57-.4.896-.284.048.017 4.965 1.686 8.633-1.341 2.783-2.296 4.792-.383 6.121.882.478.455.839.778 1.137.98a.776.776 0 0 1 .065.042c.467.297.78.28 1.165 0 3.178-2.312 7.234-.148 7.405-.054a.776.776 0 0 1 .289 1.09l-4.65 7.502.252.006a.778.778 0 0 1-.02 1.554h-.02l-1.16-.029-.705 1.137.086.02 1.135-.056a.79.79 0 0 1 .78.54c2.002.554 4.457 1.402 5.71 2.471 5.983 5.104 6.748 12.949 7.558 21.255.072.742.145 1.49.223 2.244.99 9.65-5.946 12.867-19.092 15.427-2.358.46-4.476.668-6.382.668zM8.464 21.262C3.88 27.4-.727 40.543 2.772 46.364c5.917 9.842 13.681 9.845 21.193 8.383 12.787-2.49 18.718-5.182 17.84-13.743-.077-.756-.15-1.506-.223-2.252-.813-8.33-1.514-15.527-7.02-20.223-1.307-1.115-4.61-2.07-6.75-2.574l-12.676.627h-.04a.776.776 0 0 1-.48-.166c-1.853.714-4.113 2.114-6.152 4.845zM32.369 4.146c-1.129-.418-3.295-.949-4.98.276-.686.5-1.328.597-1.92.47l-.51 3.34a.78.78 0 0 1-1.54-.234l.588-3.86c-.354-.276-.68-.586-.977-.869-1.492-1.42-2.416-2.159-4.053-.809-2.686 2.216-5.825 2.342-7.894 2.096l5.542 6.83 11.087.273zM19.086 14.418a.778.778 0 0 1 .169.403l6.702-.33.806-1.3-8.85-.218zm5.846 35.208c-1.888 0-3.208-.2-3.342-.22a.777.777 0 1 1 .242-1.536c.078.012 7.794 1.166 12.786-2.365 2.389-1.69 2.836-5.597 2.79-8.577-.052-3.35-.725-6.294-.732-6.324a.779.779 0 0 1 1.517-.35c.12.514 2.848 12.614-2.674 16.52-3.355 2.371-7.656 2.852-10.587 2.852z"/></g></g></svg>