<svg xmlns="http://www.w3.org/2000/svg" width="143" height="112" viewBox="0 0 143 112"><g><g><path fill="#a93958" d="M50.767 72.06c-.999 0-2.086-.533-3.246-1.592-3.076-2.808-11.883-15.316-14.133-18.538L6.735 57.604a1.408 1.408 0 0 1-.355.027c-.323-.017-1.972-.167-2.649-1.459-.297-.567-.484-1.51.316-2.783 1.62-2.583 10.406-14.83 12.95-18.369L2.612 21.167a1.19 1.19 0 0 1-.075-.08c-.55-.624-2.293-2.805-1.611-4.633.243-.651.863-1.473 2.435-1.696 3.137-.45 22.933 1.401 26.906 1.78 1.252-1.045 5.162-5.67 7.806-8.8 2.164-2.559 4.032-4.77 5.082-5.86C44.201.794 45.454-.27 46.853.094c1.594.414 2.071 2.247 2.732 4.786.798 3.064 4.416 16.376 5.324 19.712l17.676 4.39c.082.02.161.049.238.083.195.09 1.907.92 2.099 2.616.132 1.171-.487 2.292-1.842 3.326-1.003.766-2.491 1.71-4.198 2.714 14.148 1.625 52.546 9.767 73.09 18.815.68.3.988 1.091.685 1.768a1.351 1.351 0 0 1-1.779.682c-25.027-11.024-71.587-19.2-76.097-18.952a275.864 275.864 0 0 1-5.522 2.923c13.136 3.316 59.03 15.16 75.816 22.902a1.336 1.336 0 0 1-.568 2.554c-.19 0-.383-.04-.567-.124-18.106-8.35-72.571-22.046-78.321-23.482l-.428.214-.019.323c5.184 1.82 23.129 9.412 34.756 14.548 16.215 7.163 36.373 16.551 40.323 20.6.518.53.504 1.38-.03 1.895a1.35 1.35 0 0 1-.94.377c-.351 0-.703-.136-.968-.408-6.2-6.357-62.91-30.416-73.303-34.26l-.08 1.35c2.917 2.64 10.755 9.11 19.79 16.565 14.259 11.768 32.005 26.414 37.082 31.575.52.53.51 1.378-.022 1.894a1.347 1.347 0 0 1-.943.382c-.35 0-.7-.134-.964-.404-4.98-5.062-22.665-19.658-36.877-31.386-7.722-6.374-14.574-12.028-18.267-15.222l-.196 3.32c3.87 4.828 36.623 45.855 38.537 54.192a1.34 1.34 0 0 1-1.317 1.637c-.615 0-1.17-.42-1.314-1.042-1.438-6.267-24.811-36.543-36.143-50.774l-.52 8.796a1.272 1.272 0 0 1-.016.14c-.037.226-.417 2.215-2.113 2.793a2.681 2.681 0 0 1-.88.147zM33.985 49.093c.438 0 .857.211 1.111.58.11.158 11.01 15.863 14.25 18.822.844.77 1.32.895 1.431.882.102-.061.26-.423.312-.644l.719-12.173c0-.023.002-.046.004-.07l.605-10.24c0-.032.003-.063.006-.094l.122-2.067c.028-.48.312-.908.746-1.122.028-.013.593-.292 1.513-.755a317.391 317.391 0 0 0 8.556-4.462 1.5 1.5 0 0 1 .24-.159.835.835 0 0 1 .165-.062c3.098-1.694 6.084-3.434 7.67-4.646.769-.587.806-.903.806-.907-.022-.107-.276-.322-.463-.433L53.486 27a1.344 1.344 0 0 1-.975-.95c-.046-.17-4.623-16.993-5.537-20.5-.26-.997-.572-2.198-.84-2.731-.196.128-.527.389-1.03.91-.99 1.027-2.92 3.312-4.965 5.73-6.403 7.576-8.105 9.394-9.108 9.726-.18.06-.371.083-.557.063-9.512-.914-24.484-2.156-26.732-1.84a1.7 1.7 0 0 0-.268.058c.073.397.552 1.23 1.059 1.817L19.708 33.9c.479.46.546 1.202.158 1.74-.117.163-11.716 16.276-13.53 19.165-.025.04-.046.074-.063.107.039.01.078.018.115.025l27.315-5.814c.094-.02.189-.03.282-.03z"/></g></g></svg>