<svg xmlns="http://www.w3.org/2000/svg" width="54" height="37" viewBox="0 0 54 37"><g><g><path fill="#fff" d="M9.438 25.264C6.602 22.62 5.635 16.66 7.141 11.092c.079-.29.163-.577.252-.857l-5.72-2.438a1.342 1.342 0 0 1 .443-2.575l8.257-.499c1.578-1.828 3.552-3.06 5.8-3.561 7.215-1.608 12.5 3.593 16.793 8.776 2.873-1.509 6.442-3.495 8.316-4.968a1.26 1.26 0 0 1 .238-.149c.553-.272 2.455-1.072 3.752-.021.828.674 1.057 1.78.681 3.287a1.354 1.354 0 0 1-.346.618l-.49.496c.639.485 1.267 1.14 1.502 1.95.21.723.019 1.455-.527 2.006-.298.3-.69.53-1.13.696.145.257.25.532.3.822.127.74-.114 1.46-.677 2.027-.794.8-2.296 1.18-3.803 1.349 4.895 2.242 11.187.21 11.264.184a1.341 1.341 0 0 1 1.466 2.113c-1.373 1.722-6.556 6.632-13.943 8.635a45.857 45.857 0 0 1-5.432 1.115c.526 1.63 1.085 4.106.254 5.556a2.397 2.397 0 0 1-1.774 1.2c-.063.009-.126.013-.19.013H30.12a1.34 1.34 0 0 1-1.338-1.342c0-.741.599-1.343 1.338-1.343h2.001c.146-.6-.163-2.234-.704-3.77a48.583 48.583 0 0 1-3.051.173c.47 1.605.856 3.758.104 5.07a2.397 2.397 0 0 1-1.774 1.198c-.063.01-.126.014-.19.014h-2.309a1.34 1.34 0 0 1-1.338-1.342c0-.741.6-1.343 1.338-1.343h2.002c.141-.58-.143-2.125-.65-3.614-6.366-.235-12.398-1.846-16.11-5.304zm25.437-12.967c.9 1.125 1.755 2.196 2.6 3.174 2.103.076 4.234-.15 4.996-.52-.296-.305-.906-.734-1.454-.998a1.344 1.344 0 0 1-.67-1.687 1.336 1.336 0 0 1 1.618-.814c.475.136 1.173.102 1.678-.002a5.617 5.617 0 0 0-1.215-.73 1.347 1.347 0 0 1-.423-2.18L43.427 7.1l.015-.112a3.572 3.572 0 0 0-.638.196c-1.95 1.501-5.299 3.39-8.114 4.882l.185.231zM18.82 3.549c-.67 0-1.357.076-2.068.233-4.67 1.042-6.472 5.95-7.029 8.013-1.24 4.586-.58 9.531 1.536 11.501 5.713 5.324 18.49 5.568 27.611 3.096 3.825-1.038 7.02-2.958 9.263-4.676-3.712.337-8.807-.107-12.292-4.04-1.008-1.14-2.003-2.383-3.055-3.7l-.522-.652a145.654 145.654 0 0 1-2.484 1.237 1.336 1.336 0 0 1-1.786-.626 1.345 1.345 0 0 1 .624-1.792c.026-.013.774-.375 1.91-.95-3.43-4.1-7.1-7.644-11.708-7.644zm.492 10.538c-.906 0-1.728-.174-2.462-.522-1.957-.928-2.478-2.711-2.53-2.911a1.337 1.337 0 1 1 2.58-.71c.02.062.275.825 1.134 1.213 1.084.488 2.757.245 4.835-.705a1.334 1.334 0 0 1 1.773.664c.307.674.01 1.47-.662 1.778-1.737.795-3.298 1.193-4.668 1.193zM7.957 7.557l.436.187.11-.22z"/></g></g></svg>