<svg xmlns="http://www.w3.org/2000/svg" width="26" height="25" viewBox="0 0 26 25"><g><g><path d="M25.865 9.574l-.775 6.443c-.147 1.225-1.27 2.22-2.502 2.22H9.118c-1.22 0-2.378-.978-2.582-2.18L4.77 5.63l-.534-2.8H1.57a1.438 1.438 0 1 1 0-2.876h3.74c.757 0 1.408.536 1.548 1.275l.48 2.52 16.574 3.155c1.225.233 2.102 1.432 1.953 2.67zm-13.648 12.74a2.567 2.567 0 0 1-2.566 2.564 2.567 2.567 0 0 1-2.565-2.563A2.568 2.568 0 0 1 9.65 19.75a2.568 2.568 0 0 1 2.566 2.565zm11.294 0a2.567 2.567 0 0 1-2.566 2.564 2.567 2.567 0 0 1-2.566-2.563 2.568 2.568 0 0 1 2.566-2.565 2.568 2.568 0 0 1 2.566 2.565z"/></g></g></svg>