<svg xmlns="http://www.w3.org/2000/svg" width="377" height="201" viewBox="0 0 377 201"><defs><mask id="hjezb" width="2" height="2" x="-1" y="-1"><path fill="#fff" d="M21 14h337v159H21z"/><path d="M155.536 14.001c75.51 0 165.663 9.08 165.444 86.73a74.46 74.46 0 0 1-.272 6.223c6.667 5.184 18.545 16.32 33.15 38.208 8.502 12.738 2.806 18.87-7.19 14.36-16.6-7.488-31.876-12.16-45.451-14.957-26.484 21.523-76.131 24.934-127.5 27.238C53.393 177.197 20.999 152.19 20.999 90.266c0-61.923 59.026-76.265 134.537-76.265z"/></mask><filter id="hjeza" width="415" height="244" x="-18" y="-25" filterUnits="userSpaceOnUse"><feOffset dy="7" in="SourceGraphic" result="FeOffset1294Out"/><feGaussianBlur in="FeOffset1294Out" result="FeGaussianBlur1295Out" stdDeviation="11.6 11.6"/></filter></defs><g><g><g filter="url(#hjeza)"><path fill="none" d="M155.536 14.001c75.51 0 165.663 9.08 165.444 86.73a74.46 74.46 0 0 1-.272 6.223c6.667 5.184 18.545 16.32 33.15 38.208 8.502 12.738 2.806 18.87-7.19 14.36-16.6-7.488-31.876-12.16-45.451-14.957-26.484 21.523-76.131 24.934-127.5 27.238C53.393 177.197 20.999 152.19 20.999 90.266c0-61.923 59.026-76.265 134.537-76.265z" mask="url(&quot;#hjezb&quot;)"/><path fill-opacity=".09" d="M155.536 14.001c75.51 0 165.663 9.08 165.444 86.73a74.46 74.46 0 0 1-.272 6.223c6.667 5.184 18.545 16.32 33.15 38.208 8.502 12.738 2.806 18.87-7.19 14.36-16.6-7.488-31.876-12.16-45.451-14.957-26.484 21.523-76.131 24.934-127.5 27.238C53.393 177.197 20.999 152.19 20.999 90.266c0-61.923 59.026-76.265 134.537-76.265z"/></g><path fill="#fff" d="M155.536 14.001c75.51 0 165.663 9.08 165.444 86.73a74.46 74.46 0 0 1-.272 6.223c6.667 5.184 18.545 16.32 33.15 38.208 8.502 12.738 2.806 18.87-7.19 14.36-16.6-7.488-31.876-12.16-45.451-14.957-26.484 21.523-76.131 24.934-127.5 27.238C53.393 177.197 20.999 152.19 20.999 90.266c0-61.923 59.026-76.265 134.537-76.265z"/></g></g></svg>