<svg xmlns="http://www.w3.org/2000/svg" width="348" height="241" viewBox="0 0 348 241"><defs><mask id="ot39b" width="2" height="2" x="-1" y="-1"><path fill="#fff" d="M21 14h307v200H21z"/><path d="M155.55 14.001c75.518 0 165.461 29.367 165.461 102.677 0 18.216-4.438 32.328-12.265 43.311 2.25 9.437 6.633 21.461 14.835 36.011 8.503 15.08 3.782 20.02-7.192 17-26.634-7.328-44.764-15.467-57.01-22.749-24.9 6.843-54.982 8.938-85.647 10.566C53.396 207.203 21 177.598 21 104.288c0-73.308 59.032-90.287 134.55-90.287z"/></mask><filter id="ot39a" width="385" height="285" x="-18" y="-25" filterUnits="userSpaceOnUse"><feOffset dy="7" in="SourceGraphic" result="FeOffset1274Out"/><feGaussianBlur in="FeOffset1274Out" result="FeGaussianBlur1275Out" stdDeviation="11.6 11.6"/></filter></defs><g><g><g filter="url(#ot39a)"><path fill="none" d="M155.55 14.001c75.518 0 165.461 29.367 165.461 102.677 0 18.216-4.438 32.328-12.265 43.311 2.25 9.437 6.633 21.461 14.835 36.011 8.503 15.08 3.782 20.02-7.192 17-26.634-7.328-44.764-15.467-57.01-22.749-24.9 6.843-54.982 8.938-85.647 10.566C53.396 207.203 21 177.598 21 104.288c0-73.308 59.032-90.287 134.55-90.287z" mask="url(&quot;#ot39b&quot;)"/><path fill-opacity=".09" d="M155.55 14.001c75.518 0 165.461 29.367 165.461 102.677 0 18.216-4.438 32.328-12.265 43.311 2.25 9.437 6.633 21.461 14.835 36.011 8.503 15.08 3.782 20.02-7.192 17-26.634-7.328-44.764-15.467-57.01-22.749-24.9 6.843-54.982 8.938-85.647 10.566C53.396 207.203 21 177.598 21 104.288c0-73.308 59.032-90.287 134.55-90.287z"/></g><path fill="#fff" d="M155.55 14.001c75.518 0 165.461 29.367 165.461 102.677 0 18.216-4.438 32.328-12.265 43.311 2.25 9.437 6.633 21.461 14.835 36.011 8.503 15.08 3.782 20.02-7.192 17-26.634-7.328-44.764-15.467-57.01-22.749-24.9 6.843-54.982 8.938-85.647 10.566C53.396 207.203 21 177.598 21 104.288c0-73.308 59.032-90.287 134.55-90.287z"/></g></g></svg>