<svg xmlns="http://www.w3.org/2000/svg" width="348" height="222" viewBox="0 0 348 222"><defs><mask id="cmoub" width="2" height="2" x="-1" y="-1"><path fill="#fff" d="M21 13h308v180H21z"/><path d="M21 119c.001-67.85 32.424-99.355 152.86-92.963 30.69 1.629 60.797 3.726 85.718 10.574 12.256-7.287 30.402-15.433 57.058-22.767 10.983-3.022 15.708 1.921 7.198 17.014-8.209 14.561-12.596 26.595-14.848 36.039 7.834 10.991 12.276 25.114 12.276 43.345C321.262 183.609 231.582 193 156 193S20.999 175.992 21 119z"/></mask><filter id="cmoua" width="386" height="265" x="-18" y="-26" filterUnits="userSpaceOnUse"><feOffset dy="7" in="SourceGraphic" result="FeOffset1254Out"/><feGaussianBlur in="FeOffset1254Out" result="FeGaussianBlur1255Out" stdDeviation="11.6 11.6"/></filter></defs><g><g><g filter="url(#cmoua)"><path fill="none" d="M21 119c.001-67.85 32.424-99.355 152.86-92.963 30.69 1.629 60.797 3.726 85.718 10.574 12.256-7.287 30.402-15.433 57.058-22.767 10.983-3.022 15.708 1.921 7.198 17.014-8.209 14.561-12.596 26.595-14.848 36.039 7.834 10.991 12.276 25.114 12.276 43.345C321.262 183.609 231.582 193 156 193S20.999 175.992 21 119z" mask="url(&quot;#cmoub&quot;)"/><path fill-opacity=".09" d="M21 119c.001-67.85 32.424-99.355 152.86-92.963 30.69 1.629 60.797 3.726 85.718 10.574 12.256-7.287 30.402-15.433 57.058-22.767 10.983-3.022 15.708 1.921 7.198 17.014-8.209 14.561-12.596 26.595-14.848 36.039 7.834 10.991 12.276 25.114 12.276 43.345C321.262 183.609 231.582 193 156 193S20.999 175.992 21 119z"/></g><path fill="#fff" d="M21 119c.001-67.85 32.424-99.355 152.86-92.963 30.69 1.629 60.797 3.726 85.718 10.574 12.256-7.287 30.402-15.433 57.058-22.767 10.983-3.022 15.708 1.921 7.198 17.014-8.209 14.561-12.596 26.595-14.848 36.039 7.834 10.991 12.276 25.114 12.276 43.345C321.262 183.609 231.582 193 156 193S20.999 175.992 21 119z"/></g></g></svg>