<svg xmlns="http://www.w3.org/2000/svg" width="100" height="81" viewBox="0 0 100 81"><g><g><path fill="#a83657" d="M21.232 20.313c-2.409-3.17-5.15-8.971-3.73-13.508.886-2.83 3.187-4.788 6.84-5.82 6.162-1.738 11.635 1.835 12.839 2.7h26.77c1.478-.784 10.572-5.372 15.393-2.228C84.682 4.936 84.052 8.7 83.1 14.4c-.43 2.582-1.773 4.082-2.654 4.812l3.83 4.91a.983.983 0 0 1 .004.003l.027-.01c2.18-.784 10.443-.173 11.913-.056a1.777 1.777 0 0 1 1.505.392c1.333 1.102 2.988 5.042 1.956 26.444-.56 11.62-1.68 22.936-1.692 23.048a.803.803 0 0 1-.007.054c-.34 2.056-2.152 5.9-6.568 5.9h-.11c-8.01.707-75.965 1.068-82.11 1.1a7.472 7.472 0 0 1-.207.002l-.138-.001h-.003l-.043-.001c-6.786-.15-8.54-4.016-8.519-6.043C.282 74.863.008 62.786.001 50.77c-.015-24.872 1.036-25.25 1.88-25.552 2.178-.784 10.442-.174 11.913-.057a1.779 1.779 0 0 1 1.504.392c.251.208.514.517.769 1.025zM82.71 73.854c-.002-.082-.211-9.323-.268-19.676l-21.811.628c-.59.067-5.994.658-11.837.658-3.109 0-6.342-.167-9.04-.67-7.075-1.322-20.514-.206-22.644-.017A527.762 527.762 0 0 1 15.556 75.1c-.195 1.175-.869 2.932-2.234 4.224 13.892-.081 56.233-.359 72.295-.826-2.225-1.347-2.92-3.363-2.907-4.643zm-.283-24.186c-.005-9.793.154-15.788.401-19.477-3.209 4.27-12.622 16.206-18.937 18.095-4.25 1.271-10.888 1.55-15.901 1.55-3.74 0-6.576-.155-6.841-.17-.48-.044-10.798-1.185-23.84-17.055.333 3.9.4 9.944-.055 19.387-.017.371-.036.743-.055 1.113 2.82-.25 15.71-1.276 22.86.059 7.654 1.43 20.291.006 20.418-.009a.753.753 0 0 1 .071-.005l21.886-.63c-.004-.948-.006-1.903-.007-2.858zm.993-24.238a.822.822 0 0 1-.45-.294l-3.898-4.994c-.338.148-.7.217-1.079.217-3.058 0-7.324-4.454-10.6-7.873a97.082 97.082 0 0 0-1.628-1.675c-2.251-2.23-2.608-4.273-2.566-5.475H37.935c.042 1.203-.315 3.245-2.566 5.475a98.963 98.963 0 0 0-1.628 1.674c-3.275 3.42-7.543 7.874-10.6 7.874h-.018a.822.822 0 0 1-.187.488l-6.24 7.568c.078.323.152.681.223 1.078.04.035.078.074.112.118C30.318 46.737 41.168 48.01 41.276 48.02c.116.006 14.999.82 22.139-1.316 7.011-2.097 19.046-18.798 19.167-18.966a.824.824 0 0 1 .495-.327c.107-.883.223-1.52.343-1.981zM24.794 2.575c-3.08.87-5.002 2.457-5.71 4.721-1.08 3.448.788 7.978 2.7 10.922a.828.828 0 0 1 .655.217c1.755 1.63 7.394-4.26 10.105-7.09.606-.633 1.18-1.231 1.658-1.705 2.165-2.145 2.154-3.925 2.052-4.584-.9-.645-5.984-4.027-11.46-2.481zm56.673 11.554c.998-5.976 1.233-8.512-3.03-11.29C74.99.59 67.775 3.536 64.88 5.06c-.101.663-.107 2.44 2.053 4.579a96.92 96.92 0 0 1 1.659 1.706c2.706 2.824 8.332 8.694 10.093 7.098a.826.826 0 0 1 .198-.14c.127-.07 2.086-1.186 2.585-4.175zM56.845 41.202c-1.974 0-3.91-.34-5.27-1.153-.646-.385-1.137-.856-1.468-1.406-.8.475-2.09 1.156-3.626 1.651-3.492 1.124-6.57.731-8.902-1.138-.41-.328-.78-.62-1.116-.884-1.864-1.468-2.783-2.19-3.208-3.613a.825.825 0 0 1-.299-.11c-5.637-3.396-7.796-8.306-5.635-12.812 2.292-4.777 9.714-7.117 12.38-7.616 2.76-.516 4.619-1.549 4.637-1.56a.831.831 0 0 1 1.18.418l3.844 9.793c.3-.011.602-.021.906-.03l3.657-9.315a.826.826 0 0 1 1.18-.417c.018.01 1.877 1.043 4.636 1.559 2.667.498 10.089 2.838 12.38 7.615 2.401 5.006.965 9.613-3.938 12.676a6.24 6.24 0 0 1-.577 1.555c-1.025 1.923-3.09 3.329-6.137 4.178-1.37.382-3.01.61-4.624.61zm-11.672-18.2c.78-.05 1.598-.102 2.443-.148l-3.313-8.437c-.878.392-2.384.97-4.297 1.327-2.858.534-9.354 2.877-11.19 6.705-1.681 3.504-.133 7.243 4.14 10.14-.06-1.58.582-3.466 2.018-5.149a.823.823 0 0 1-.055-.228c-.43-4.468.128-7.586 1.661-9.269.876-.962 2.04-1.45 3.458-1.45 4.132 0 4.654 6.02 4.692 6.541.146-.012.294-.023.443-.032zm22.567 6.805c.348 1.04.549 2.022.603 2.94 4.208-3.201 3.62-7.067 2.284-9.85-1.837-3.83-8.333-6.17-11.19-6.705a19.427 19.427 0 0 1-4.297-1.328l-3.084 7.852c.91 0 1.826.021 2.734.072.245-1.712 1.19-5.847 4.614-5.847 1.795 0 3.218.563 4.23 1.675 1.397 1.533 1.943 3.987 1.666 7.493a8.378 8.378 0 0 1 2.44 3.698zm-17.244 6.78a.83.83 0 0 1 .808.645c.127.568.494 1.026 1.121 1.401 1.977 1.18 5.924 1.115 8.598.37 2.594-.723 4.317-1.855 5.12-3.363.735-1.379.743-3.166.026-5.311a6.786 6.786 0 0 0-2.148-3.136.83.83 0 0 1-.195-.156c-3.859-2.991-11.189-2.855-18.548-2.387-8.361.532-10.795 5.58-10.664 7.942.123 2.218.437 2.465 2.876 4.384.338.267.713.561 1.127.893 4.585 3.675 11.327-1.079 11.395-1.127a.834.834 0 0 1 .484-.156zm-1.384-3.997c-.478 0-.956-.08-1.41-.242l-2.602-.924a3.014 3.014 0 0 1-2.023-2.842 2.98 2.98 0 0 1 1.952-2.844l.101-.036c1.815-.643 6.354-1.41 8.806.318 1.04.733 1.59 1.839 1.589 3.198-.001.844-.557 1.602-1.383 1.886l-3.663 1.259a4.208 4.208 0 0 1-1.367.227zm13.296-12.864c-.695-.762-1.677-1.133-3.004-1.133-2.03 0-2.735 2.948-2.953 4.327 2.683.277 5.22.88 7.253 2.052.075-2.458-.36-4.219-1.296-5.246zm-19.33 3.441c-.003-.061-.407-5.022-3.04-5.022-.945 0-1.675.297-2.232.909-1.08 1.184-1.532 3.572-1.323 6.94 1.607-1.266 3.789-2.284 6.603-2.755a.823.823 0 0 1-.007-.072zm41.988 2.443c-1.112 2.669-1.195 26.615-.7 48.234.002.194.11 4.258 6.914 4.401l.026.001c4.083.084 4.965-4.098 5.038-4.496.066-.667 1.14-11.66 1.683-22.938.26-5.407.932-23.196-1.36-25.088-.072-.061-.093-.055-.148-.04-.098.03-.2.04-.301.032-3.475-.281-9.402-.544-11.152-.106zM2.64 26.712c-1.113 2.669-1.195 26.614-.7 48.234.002.193.109 4.26 6.919 4.401l.315-.001c3.87-.125 4.674-4.105 4.744-4.492.063-.644 1.139-11.65 1.683-22.94.22-4.596.74-18.132-.516-23.256a.826.826 0 0 1-.127-.468c-.198-.66-.435-1.133-.716-1.365-.074-.06-.095-.055-.15-.039a.818.818 0 0 1-.3.031c-3.475-.281-9.403-.543-11.152-.105zm67.57 51.242c-1.257 0-2.551-.223-3.855-.671-3.615-1.243-5.626-2.617-6.33-4.321-.633-1.532-.103-2.997.566-4.352.425-.862.268-1.307-.02-2.116-.379-1.071-.9-2.538-.027-5.295 1.55-4.895 6.817-6.015 7.267-6.102.294-.067 2.45-.502 6.579.232 2.107.374 4.134 1.945 5.561 4.31 1.738 2.878 2.217 6.326 1.283 9.221-1.171 3.63-3.541 6.56-6.502 8.036a10.057 10.057 0 0 1-4.521 1.058zm-2.075-21.237c-.074.014-4.734.944-6.011 4.979-.706 2.23-.342 3.255.01 4.248.332.938.676 1.909-.057 3.396-.574 1.163-.883 2.118-.521 2.992.496 1.202 2.292 2.342 5.34 3.39 2.547.876 4.935.774 7.095-.303 2.527-1.26 4.646-3.901 5.666-7.064.79-2.45.37-5.39-1.125-7.865-1.163-1.928-2.82-3.25-4.432-3.536-3.957-.703-5.898-.253-5.916-.248-.015.004-.034.008-.049.01zm2.422 17.495c-2.59 0-5.623-2.882-5.976-4.669-.158-.804.207-1.478.93-1.719 1.767-.586 8.086-.097 8.8-.04.43.035.762.394.762.824 0 2.56-1.344 5.402-4.294 5.597a3.308 3.308 0 0 1-.222.007zm-4.321-4.874c.107.307.461.898 1.15 1.566 1.097 1.064 2.383 1.71 3.284 1.653 1.973-.13 2.53-2.075 2.686-3.188-2.457-.168-5.906-.289-7.12-.03zm.39-4.861a.828.828 0 0 1-.775-.534l-1.254-3.305a.828.828 0 0 1 1.55-.584l1.253 3.305a.825.825 0 0 1-.775 1.118zm4.098-.735a.827.827 0 0 1-.828-.826V59.34a.827.827 0 1 1 1.656 0v3.576c0 .456-.37.826-.828.826zm3.52.735a.824.824 0 0 1-.681-1.295l2.287-3.305a.83.83 0 0 1 1.152-.21.824.824 0 0 1 .212 1.148l-2.287 3.305a.829.829 0 0 1-.683.357zM30.007 77.954c-1.583 0-3.108-.354-4.522-1.058-2.96-1.477-5.33-4.405-6.501-8.036-.934-2.896-.455-6.343 1.283-9.222 1.426-2.364 3.453-3.935 5.561-4.31 4.128-.733 6.284-.299 6.578-.23.45.086 5.718 1.206 7.268 6.102.872 2.755.352 4.222-.028 5.294-.287.808-.445 1.254-.019 2.116.668 1.355 1.2 2.819.566 4.352-.704 1.704-2.716 3.078-6.33 4.32-1.304.449-2.598.672-3.856.672zm.154-21.394c-.967 0-2.312.086-4.043.394-1.612.287-3.27 1.608-4.433 3.536-1.494 2.476-1.914 5.416-1.124 7.865 1.02 3.163 3.138 5.804 5.665 7.064 2.16 1.077 4.548 1.179 7.096.303 3.047-1.048 4.844-2.188 5.34-3.39.362-.874.053-1.829-.521-2.992-.733-1.487-.39-2.458-.057-3.396.352-.993.716-2.019.01-4.248-1.288-4.07-5.963-4.97-6.01-4.98a.722.722 0 0 1-.05-.01c-.026-.006-.644-.146-1.873-.146zm-.5 17.652c-.075 0-.149-.002-.222-.007-2.95-.195-4.294-3.038-4.294-5.597 0-.43.331-.789.761-.823.715-.058 7.033-.547 8.8.04.723.24 1.088.914.93 1.718-.352 1.787-3.384 4.67-5.975 4.67zm-2.799-4.843c.157 1.113.713 3.058 2.686 3.188.9.058 2.187-.59 3.284-1.653.689-.668 1.043-1.259 1.15-1.566-1.214-.258-4.663-.137-7.12.031zm6.73-4.892a.825.825 0 0 1-.775-1.118l1.254-3.305a.828.828 0 0 1 1.55.584l-1.254 3.305a.829.829 0 0 1-.775.534zm-4.098-.735a.827.827 0 0 1-.829-.826V59.34c0-.455.371-.825.829-.825.457 0 .828.37.828.825v3.576c0 .456-.371.826-.828.826zm-3.52.735a.829.829 0 0 1-.683-.357l-2.287-3.305a.824.824 0 0 1 .211-1.149.83.83 0 0 1 1.152.211l2.288 3.305a.824.824 0 0 1-.681 1.295z"/></g></g></svg>