<svg xmlns="http://www.w3.org/2000/svg" width="98" height="80" viewBox="0 0 98 80"><g><g><path fill="#a83657" d="M74.34 80.02h-.028L21.45 78.232a.85.85 0 0 1-.616-.281l-7.604-8.035a.849.849 0 0 1-.228-.496l-1.537-14.782v-.011l-1.17-11.245a.843.843 0 0 1-.415-.666 4.997 4.997 0 0 1-.008-.125c-.05-.37-.483-2.223-4.28-2.418-3.081-.159-4.633-.005-4.648-.004a.852.852 0 0 1-.84-1.247c.062-.115 1.576-2.934 7.214-12.419a12.72 12.72 0 0 1 1.063-1.528l-.307-2.955a.85.85 0 0 1 .753-.934l5.563-.622c-2.325-2.946-2.918-6.59-1.387-9.308.656-1.164 1.624-2.053 2.842-2.653l10.038-5.934a.877.877 0 0 1 .256-.1c.124-.026 3.077-.644 6.396-.304 4.577.469 7.609 2.541 8.768 5.992.803 2.389 1.356 4.183 1.733 5.537 1.196-3.69 3.596-9.104 7.925-11.91C53.702.008 56.83-.468 60.255.368c.19.048 4.574 1.188 9.555 5.965 1.64 1.349 2.996 3.1 3.835 4.988.814 1.834 1.044 3.57.728 5.075l.252.056c6.007 1.35 9.93 4.387 11.294 5.584.482-3.15 1.82-5.41 3.74-6.202 1.274-.525 3.35-.639 6.004 1.816 5.305 4.906-.145 17.028-.38 17.542a.851.851 0 0 1-.537.464 17.837 17.837 0 0 1-4.967.721c-2.874 0-5.568-.745-7.683-2.19-2.13-1.455-3.411-3.492-3.606-5.734-.128-1.461.28-2.664 1.212-3.573 1.29-1.26 3.342-1.642 4.887-1.736-1.408-1.183-5.063-3.866-10.425-5.052-.13-.029-.26-.056-.389-.083-.581 1.048-1.503 1.915-2.745 2.535-2.131 1.064-4.791 2.06-7.565 2.953l11.343 7.5.015.01a.847.847 0 0 1 .37.71V79.17a.85.85 0 0 1-.853.851zM10.887 22.68l.208-.135-.31.034zM18.8 46.563l-.853-14.48-2.619-2.598c-.225.202-.44.421-.646.657-2.12 2.432-2.83 6.154-3.049 8.895zM14.67 27.633a.855.855 0 0 1 .603-.25c1.286-.835 2.778-1.309 4.46-1.412 5.955-.37 12.444.424 16.927 1.177-5.54-2.684-14.605-6.209-21.342-4.558-2.869.703-5.067 2.311-6.535 4.78-3.586 6.033-5.513 9.39-6.441 11.034a52.69 52.69 0 0 1 3.337.07c1.996.102 3.317.62 4.192 1.258l.015-.279a.853.853 0 0 1 .025-.37c.22-3.001 1.001-7.211 3.484-10.059.334-.383.69-.73 1.066-1.043a.85.85 0 0 1 .21-.348zm4.46 3.224h19.537L34.236 28.5c-4.2-.614-9.532-1.134-14.396-.831-1.141.07-2.174.347-3.09.826zm23.16 0h9.734c-.602-.637-1.217-1.138-1.84-1.465-1.93-1.015-3.453-1.244-4.606-1.132-.217.032-.437.068-.659.108-1.427.333-2.115 1.174-2.166 1.238l-.002.003a.847.847 0 0 1-.873.305 67.893 67.893 0 0 0-2.278-.488zm10.906 1.702l-.784 15.983c2.535.024 5.007.05 7.322.076-.861-4.568-3.335-11.757-6.343-16.06zm-1.683 17.677c-22.61-.204-29.029-.03-30.784.11l.489 8.297h20.83a.859.859 0 0 1 .061 0h31.378v-8.148c-.893-.013-2.46-.035-4.512-.062-.045.997-.274 1.752-.71 2.156a1.435 1.435 0 0 1-.961.377c-.3 0-.659-.094-1.064-.372-1.548-1.063-2.857-1.5-3.688-1.23a1.392 1.392 0 0 0-.846.798.858.858 0 0 1-.98.555.845.845 0 0 1-.679-.886c.029-.404.01-.914-.054-1.509-2.663-.03-5.536-.06-8.48-.086zm21.974-1.443V32.559h-12.23c1.337 1.44 2.565 3.11 3.653 4.976 2.18 3.744 3.647 8.081 3.994 11.194 2.079.028 3.671.05 4.583.064zm-1.977-17.936l-10.147-6.709c-3.573 1.07-7.16 1.956-9.905 2.585 1.599.335 3.143.908 4.626 1.72a19.375 19.375 0 0 1 3.422 2.404zM60.482 4.233a7.632 7.632 0 0 1 3.125-.504c-2.221-1.302-3.74-1.704-3.764-1.71-2.942-.72-5.619-.319-7.95 1.19-5.539 3.587-7.703 12.373-8.112 14.264a1.303 1.303 0 0 1-.075.45l-.63 9.11c.18-.046.361-.09.541-.132a.847.847 0 0 1 .305-.616 60.435 60.435 0 0 1 2.612-2.063c2.032-5.285 7.326-17.42 13.948-19.99zM42.077 17.285c-.025-.49-.295-2.35-2.39-8.588-.944-2.81-3.409-4.438-7.326-4.84-2.681-.274-5.15.141-5.734.25l-5.903 3.49c1.242.044 2.582.252 3.994.632 4.989 1.34 9.296 4.976 12.458 10.518 2.362 4.139 3.252 7.839 3.288 7.995a.845.845 0 0 1-.003.404l.157.119c.26.142.495.274.706.393l.694-10.035a.868.868 0 0 1 .017-.12l.042-.218zM14.49 11.989c-1.38 2.449-.457 5.951 2.242 8.519a.859.859 0 0 1 .08.086c4.37-.527 9.795.494 16.16 3.048.345.138.684.278 1.017.418a153.282 153.282 0 0 1-8.275-7.707c-3.415-3.422-4.75-5.607-4.262-7.006-3.301-.315-5.816.608-6.962 2.642zm7.783 64.568l18.954.641V60.345H21.319zm20.659.699l6.365.215a.857.857 0 0 1-.004-.131l.834-16.995h-7.195zm8.064.167a.859.859 0 0 1-.012.105l22.504.761V60.345H51.834zm-36.328-8.465l5.812 6.14-.869-14.753h-.832a.854.854 0 0 1-.518-.176l-4.896-3.747zm4.319-19.224a.86.86 0 0 1-.004-.056l-.028-.483-7.119-7.475 1.287 12.372 5.946 4.551h.442zm32.502-17.175h-8.557v15.908c2.347.015 4.93.035 7.774.06zm-10.262 0H19.683l.95 16.117c1.992-.185 7.066-.292 20.594-.218zm22-27.132c-.72 0-1.435.122-2.127.392-3.099 1.202-6.467 5.255-9.742 11.72a77.584 77.584 0 0 0-2.249 4.874c2.557-1.688 5.4-3.244 8.456-4.422a28.822 28.822 0 0 0 2.387-2.752c3.995-5.27 3.685-8.67 3.404-9.811l-.129-.001zm7.04 13.594c.745-.372 1.29-.821 1.678-1.315-4.335-.55-8.845.042-13.418 1.742-2.275 2.28-4.733 4.115-6.809 5.47 5.404-1.262 13.585-3.42 18.55-5.897zm1.819-7.011c-.724-1.63-1.912-3.166-3.335-4.343a.86.86 0 0 1-.068-.056c-1.08-.88-2.293-1.553-3.54-1.907.262 1.89-.008 5.519-3.831 10.562-.167.22-.336.437-.508.651 3.74-1.039 7.743-1.445 11.895-.826.338-1.567-.222-3.2-.613-4.081zm-9 37.573c1.175 0 2.549.533 4.1 1.593.499-1.433-.642-8.455-4.96-14.691-.963-1.392-2.13-2.809-3.516-4.072a.857.857 0 0 1-.176-.16c-1.774-1.578-3.898-2.9-6.408-3.611.812.644 1.592 1.494 2.331 2.489a.853.853 0 0 1 .114.154c3.755 5.156 6.457 14.02 7.062 18.618.108-.053.223-.1.345-.142a3.402 3.402 0 0 1 1.109-.178zM23.05 9.924c.007 0-.282 1.067 3.872 5.23 4.699 4.707 8.808 8.215 11.376 10.292C36.994 21.578 33 12.228 24.296 9.877c-.532-.108-1.125-.066-1.246.047zM48.56 24.85a47.652 47.652 0 0 0 3.878-2.504 49.473 49.473 0 0 0-3.878 2.504z"/></g></g></svg>