<svg xmlns="http://www.w3.org/2000/svg" width="80" height="67" viewBox="0 0 80 67"><g><g><path fill="#a83657" d="M39.225 66.384l-.33-.12C29.76 62.942 8.188 38.126 7.274 37.07c-.117-.126-13.166-14.596-2.421-28.637 2.949-3.856 6.596-5.873 10.839-6 10.017-.296 20.232 10 22.813 12.791a70.359 70.359 0 0 1 8.715-7.683C54.548 2.128 60.992-.122 66.37.854c5.177.94 9.179 4.877 11.895 11.704 4.63 11.638-.65 24.636-15.269 37.587-10.91 9.664-23.335 16.017-23.459 16.08zM14.914 4.129c-3.382.336-6.329 2.118-8.769 5.308-4.14 5.41-5.022 11.494-2.622 18.084 1.817 4.992 4.933 8.42 4.964 8.454.234.27 21.687 24.953 30.633 28.619 1.998-1.052 13.034-7.026 22.82-15.701 6.277-5.563 10.814-11.129 13.488-16.54 3.292-6.666 3.738-13.12 1.325-19.186C74.26 6.9 70.67 3.302 66.087 2.47 54.253.322 39.25 16.82 39.1 16.986l-.615.685-.604-.697C37.768 16.842 26.307 3.76 15.74 4.076c-.278.008-.554.026-.826.053zm26.264 54.62l-.33-.12c-6.642-2.415-22.238-20.356-22.899-21.118-.08-.088-9.62-10.667-1.755-20.945 2.17-2.836 4.86-4.325 7.99-4.415 7.12-.211 14.345 6.865 16.462 9.12 2.495-2.592 11.968-11.738 20.136-10.256 3.816.692 6.76 3.58 8.75 8.581 3.378 8.492-.45 17.955-11.073 27.365-7.89 6.99-16.877 11.584-16.967 11.63zM23.655 13.83c-2.376.236-4.449 1.493-6.169 3.74-2.932 3.832-3.559 8.143-1.863 12.812 1.293 3.56 3.516 6.01 3.538 6.034.172.198 15.462 17.789 21.915 20.543C44.569 55.1 75.178 38.2 68.018 20.205c-1.767-4.44-4.297-6.989-7.52-7.574-8.412-1.53-19.148 10.278-19.255 10.398l-.615.683-.604-.696c-.082-.094-8.28-9.449-15.792-9.224a8.312 8.312 0 0 0-.577.037zm15.97 29.478l-.15-.055c-1.912-.695-6.342-5.79-6.53-6.007-.02-.023-2.795-3.1-.501-6.097.64-.837 1.436-1.276 2.364-1.303 1.966-.058 3.943 1.778 4.657 2.517.846-.858 3.439-3.248 5.714-2.835 1.129.205 1.996 1.05 2.577 2.511.98 2.46-.116 5.188-3.166 7.89-2.243 1.987-4.72 3.254-4.824 3.307z"/></g></g></svg>