<svg xmlns="http://www.w3.org/2000/svg" width="69" height="102" viewBox="0 0 69 102"><g><g><path fill="#37182e" d="M56.902 102.01l-.356-.14c-.173-.068-4.297-1.703-8.125-4.489-5.277-3.837-7.368-8.008-6.047-12.062.79-2.422 2.137-3.905 4.004-4.408l.03-.008c3.533-.928 7.791 2.118 9.464 3.476 1.22-1.38 4.082-4.213 7.15-4.38 1.578-.088 2.975.513 4.153 1.785 3.33 3.598 1.387 8.023-.105 9.86-.676.886-6.833 8.872-9.817 10.208z"/></g><g><path fill="#ffb713" d="M11.641 62.265l-.362-.453C5.75 54.894.8 25.835.591 24.6.563 24.463-2.763 6.88 12.466 1.084c4.229-1.609 8.131-1.418 11.6.57 7.569 4.337 10.733 16.022 11.636 20.152 4.796-1.192 20.294-4.345 27.92 2.453.019.015.038.033.057.05 3.643 3.286 4.914 8.317 3.778 14.952-1.93 11.27-12.19 18.822-29.67 21.842-12.913 2.23-25.056 1.253-25.567 1.21zm13.19-56.731a12.154 12.154 0 0 0-2.108-1.545c-2.77-1.586-5.812-1.713-9.298-.387C.302 8.597 3.21 23.96 3.24 24.114c.056.327 4.827 28.347 9.803 35.556 5.565.344 47.811 2.174 51.757-20.865.97-5.665-.014-9.87-2.928-12.498l-.04-.036c-7.781-6.94-26.603-1.556-26.793-1.5l-1.453.423-.254-1.494c-.023-.137-2.175-12.46-8.5-18.166z"/></g></g></svg>