<svg xmlns="http://www.w3.org/2000/svg" width="166" height="136" viewBox="0 0 166 136"><g><g><path fill="#ffb713" d="M78.364 82.977c-.74-.04-1.434-.299-2.071-.775-.973-.728-2.842-2.476-4.831-4.694-1.288 2.445-3.77 7.94-2.816 12.444.208-.306.431-.602.669-.886 3.33-3.986 15.273-4.832 16.624-4.915.042-.002.084-.003.125 0 .329.016 8.12.473 14.896 4.33 2.932 1.67 5.133 4.242 6.267 7.253 2.327-3.025 2.643-7.41 2.648-9.504a88.943 88.943 0 0 1-8.23.921 1.086 1.086 0 0 1-1.016-.558c-.107-.196-2.606-4.816.563-7.668.217-.195.439-.43.663-.7a1.084 1.084 0 0 1-.43-.556c-.089-.266-.21-.33-.316-.372-.687-.265-2.193.269-2.997.714a1.086 1.086 0 0 1-1.05-1.902c.294-.164 2.93-1.578 4.83-.839.544.21.98.57 1.285 1.054a33.423 33.423 0 0 0 2.073-4.107c-4.895-6.179-10.087-6.362-11.922-6.199a8.853 8.853 0 0 1-1.69 3.53c-.661.847-1.415 1.925-2.214 3.076 1.888.297 3.156 1.984 3.304 2.19a1.085 1.085 0 1 1-1.759 1.274c-.27-.367-1.147-1.31-2.087-1.337-.552-.01-1.117.337-1.68 1.033-2.538 3.5-5.271 6.703-7.986 7.145-.29.047-.574.063-.852.048zm27.1 24.78c-2.177 2.69-4.196 3.59-6.113 3.488-2.497-.134-4.822-1.97-7.103-3.77l-.237-.186c-1.932-1.522-5.938-1.608-9.811-1.69-3.873-.082-7.874-.168-10.793-1.572-2.463-1.186-4.053-3.15-4.6-5.68-.404-1.872-.184-3.976.556-5.925l-3.625-.8c.545 1.397.538 2.99.532 4.392-.004.81-.007 1.574.07 2.303.28 2.628-1.768 5.102-3.856 5.764-.95.301-1.847.204-2.552-.242-.754.672-1.961 1.456-3.485 1.448a6.822 6.822 0 0 1-.212-.007c-1.556-.083-3.03-.977-4.395-2.663-1.187.522-3.332 1.194-5.13.295-1.38-.69-2.203-2.102-2.446-4.199-.308-2.662-.532-5.534.165-7.784l-14.76-.658c-.392-.04-.756-.255-.93-.616-2.083-4.347-6.641-11.127-10.02-10.792-2.825.275-7.6 3.095-10.391 7.167-1.214 1.773-2.498 4.476-1.716 7.29 1.838 6.607 7.402 7.527 7.458 7.536a1.086 1.086 0 0 1 .607 1.84c-2.464 2.48-8.998 9.722-9.634 13.413-.483 2.807.424 8.797 3.384 12.744 1.619 2.157 3.591 3.382 5.864 3.638 7.574.841 16.588-9.806 16.678-9.913a.963.963 0 0 1 .107-.111l4.614-4.151c.2-.182.46-.28.73-.279.535.002 53.64.252 69.545.296 19.212.05 29.71 3.457 30.148 3.601.22.074.411.215.545.406.066.093 6.66 9.366 12 11.009 3.446 1.06 6.636.691 9.482-1.096 4.33-2.717 6.935-8.199 7.4-11.225.4-2.594-1.25-7.934-4.347-11.75-1.319-1.625-3.421-3.592-5.945-3.727a1.086 1.086 0 0 1-.132-2.155c.042-.007 4.499-.86 6.654-4.521 1.518-2.579 1.584-5.977.197-10.1-1.18-3.503-2.94-5.61-5.236-6.262-4.067-1.154-8.746 2.398-9.364 2.888l-6.104 7.23a7.938 7.938 0 0 1-6.824 3.272l-12.661-.61a8.62 8.62 0 0 1 .118 3.067c2.177.853 5.187 2.145 7.106 3.443 2.969 2.005 2.613 4.29 2.268 6.5-.1.648-.206 1.319-.244 2.031-.14 2.64-2.555 4.758-4.722 5.08-.984.146-1.856-.092-2.48-.645-.757.484-1.883.999-3.181.93a4.483 4.483 0 0 1-.49-.054c-1.61-.27-2.996-1.4-4.125-3.366-1.254.326-3.478.648-5.112-.526-1.254-.9-1.842-2.425-1.75-4.533.04-.916.095-1.853.19-2.775a11.675 11.675 0 0 1-1.892 3.313zM44.032 88.322c.203-.18.42-.34.651-.483a4.503 4.503 0 0 1-1.238-.548c-.995-.639-1.542-1.563-1.843-2.402-1.079.738-2.547 1.434-3.84.98-1.108-.388-1.776-1.438-1.985-3.125-.528-4.245-.388-4.75 1.877-6.739.424-.372.942-.827 1.559-1.421.2-.578.657-1.316 1.5-1.649 2.176-2.751 3.634-6.214 4.08-7.352.129-.327.268-.65.414-.97 3.207-7.02 3.963-13.372 4.138-16.255-.506-3.17-.605-6.14-.05-8.59 1.43-6.304 5.749-10.467 10.321-13.448-1.801-2.29-8.199-10.571-10.502-15.592-1.377-3.002-.998-6.08 1.012-8.232 1.757-1.88 4.43-2.574 6.65-1.73 1.14.434 3.13 1.974 7.256 10.312 2.107 4.258 3.97 8.69 4.666 10.383.607-.3 1.156-.58 1.645-.85 3.403-1.884 9.857-2.114 16.852-.019.07-.005.142-.003.215.007.31.036 5.042.659 10.574 5.1a38.934 38.934 0 0 1 4.52 3.552c10.216 9.331 7.071 25.171 6.176 28.814 5.251 3.977 13.598 12.542 13.964 12.918.087.09.157.193.21.307.099.216 2.394 5.364-.551 10.062-1.254 2.001-4.989 3.338-8.956 4.22 1.783 1.635 4.446 4.45 5.792 7.695a1.08 1.08 0 0 1 .605-.15l12.8.616a5.772 5.772 0 0 0 4.983-2.406l.052-.067 6.196-7.34c.042-.048.087-.094.136-.135.242-.2 5.98-4.91 11.412-3.361 3.026.858 5.28 3.436 6.7 7.658 1.602 4.76 1.469 8.77-.395 11.919-1.3 2.194-3.204 3.554-4.843 4.377 1.429.762 2.81 1.949 4.093 3.532 3.189 3.93 5.346 9.963 4.808 13.45-.492 3.197-3.207 9.482-8.393 12.736-3.404 2.136-7.197 2.583-11.272 1.33-5.52-1.697-11.667-9.813-12.917-11.528-1.914-.566-12.157-3.345-29.145-3.391-15.155-.041-64.074-.27-69.13-.294l-4.246 3.82c-.834.984-9.638 11.108-17.968 10.665a9.786 9.786 0 0 1-.567-.047c-2.85-.32-5.393-1.874-7.356-4.491-3.15-4.2-4.419-10.755-3.788-14.42.695-4.033 6.408-10.517 8.989-13.276-2.232-.885-5.86-3.122-7.372-8.56-.796-2.866-.1-6.013 2.017-9.101 2.855-4.167 8.112-7.726 11.97-8.102 5.43-.528 10.546 8.759 11.899 11.428l14.92.666h.01c.07.003.138.014.204.03.15-.178.314-.345.491-.503zM58.817 74.86c-1.114-2.204-5.55-11.248-8.09-20.333a49.956 49.956 0 0 1-3.547 10.99c-.129.283-.253.57-.367.86-.418 1.065-1.665 4.03-3.562 6.768.997.457 2.12 1.323 3.402 2.617 1.216-.973 3.594-2.507 6.347-2.278 1.722.152 3.27.97 4.617 2.44.403-.376.804-.73 1.2-1.064zm-17.88 1.076a43.339 43.339 0 0 1-1.852 1.702c-1.583 1.391-1.583 1.391-1.154 4.836.11.887.355 1.275.547 1.342.622.215 2.215-.838 3.085-1.69a1.084 1.084 0 0 1 1.844.79c0 .011.012 1.785 1.22 2.55 1.164.738 3.224.443 5.95-.856.18-.085.371-.117.556-.101a31.368 31.368 0 0 1 4.946-7.045c-.99-1.102-2.087-1.711-3.27-1.815a2.649 2.649 0 0 0-.146-.01c-2.745-.146-5.274 2.36-5.299 2.387a1.08 1.08 0 0 1-.791.326c-.296.002-.58-.13-.782-.348-2.22-2.405-3.414-2.943-3.936-3.046-.295.34-.6.668-.917.978zm25.157-5.603c-1.461-2.523-2.345-4.99-1.956-6.909.23-1.13.999-2.598 3.356-3.18 1.797-.477 17.173-4.52 20.693-3.82 1.998.396 3.874 2.225 4.777 4.66.337.906.522 1.83.56 2.746a13.124 13.124 0 0 1 3.625.344c.449-.926 1.316-2.564 2.484-4.069 2.835-3.652 5.354-3.834 7.081-3.214.545-2.537 1.506-8.405.397-14.42-2.172.868-6.34-.559-8.691-1.513-1.631 1.406-3.282 2.07-4.923 1.983a5.555 5.555 0 0 1-.775-.097c-3.181-.632-5.182-3.98-5.835-5.247-1.595-.507-2.718-1.492-3.343-2.933-1.624-3.75.86-9.654 2.13-12.244-6.026-1.651-11.461-1.468-14.282.09-.881.49-1.96 1.013-3.102 1.568-5.912 2.872-14.847 7.212-16.877 16.171-.371 1.635-.41 3.556-.21 5.64.215.191.353.466.362.776.002.088.015.67-.036 1.647 1.651 9.802 7.418 21.916 9.035 25.18 2.506-1.822 4.624-2.789 5.53-3.16zm-5.141 18.449l5.491 1.212c-.983-5.695 2.317-12.162 3.5-14.247a46.58 46.58 0 0 1-2.671-3.541h-.004c-.064.024-4.17 1.529-8.423 5.59a1.087 1.087 0 0 1-1.14 1.152h-.002a29.22 29.22 0 0 0-5.522 8.419c2.283.04 6.237.283 8.77 1.415zm51.071-1.467c-.133 2.924-.877 7.775-4.111 10.905a1.065 1.065 0 0 1-.013.013c.144.858.2 1.71.17 2.545.493-1.499 1.263-2.76 2.49-3.538 1.673-1.062 3.924-1.013 6.69.14.08.027.272.094.55.193.267-3.984-3.467-8.107-5.776-10.258zm-24.66-28.804c-2.96-.158-13.225 2.215-19.323 3.836l-.02.005c-1.352.332-1.649.979-1.756 1.506-.502 2.47 2.516 7.157 5.771 11.035.038.038.073.08.104.123 1.991 2.358 4.057 4.402 5.451 5.444.398.297.802.4 1.277.323 2.536-.412 6.014-5.424 8.554-9.083.898-1.296 1.747-2.518 2.507-3.491 1.45-1.854 1.814-4.175 1-6.368-.636-1.716-1.908-3.036-3.163-3.285a2.97 2.97 0 0 0-.401-.045zm18.991 10.048a13.02 13.02 0 0 1-.122-.506c-.802-3.465-1.796-5.346-2.954-5.59-.568-.115-1.76.09-3.773 2.48 2.066.87 4.364 2.374 6.612 4.926.181-.606.27-1.07.237-1.31zm-3.166-8.292c.18.01.358.033.536.07 3.1.65 4.167 5.258 4.622 7.226.045.193.08.347.108.45.216.785-.184 2.425-.908 4.29a1.088 1.088 0 0 1-.111.283c-1.207 3.015-3.203 6.525-4.793 7.955-1.388 1.25-.8 3.358-.388 4.392a83.339 83.339 0 0 0 8.37-1.04c.068-.02.137-.032.206-.037 4.519-.823 8.626-2.052 9.634-3.66 2.074-3.307.799-7.036.48-7.843-1.187-1.212-9.433-9.576-14.122-12.962a1.056 1.056 0 0 1-.027-.02c-.555-.4-2.08-1.465-4.483.956a3.64 3.64 0 0 1 .876-.06zm-17.502 43.269l.333.019c.246-1.145.866-1.77 1.365-2.099 1.382-.91 3.13-.474 3.324-.421.04.01.08.024.12.04 1.114.447 3.346-.02 4.898-1.42.848-.765 1.751-2.058 1.238-3.873-.296-1.047-1.37-2.078-3.103-2.979-3.838-1.995-10.335-2.876-13.37-1.813-1.248.438-2.087 1.117-2.49 2.02-.705 1.571.04 3.415.047 3.433.033.081.058.17.071.257.042.24.51 2.444 3.648 2.37 1.407-.035 2.558.45 3.244 1.356.44.582.858 1.572.555 3.104l.12.006zm7.667 2.046l.237.187c4.205 3.317 6.52 5.146 10.188.62 1.805-2.228 2.494-5.075 1.94-8.017-.626-3.332-2.752-6.249-5.832-8.001-6.04-3.439-13.165-3.999-13.88-4.047-3.466.222-12.725 1.381-15.028 4.136-1.764 2.11-2.569 5.025-2.05 7.428.405 1.876 1.555 3.284 3.42 4.18 2.493 1.2 6.257 1.28 9.897 1.359.371.007.74.015 1.108.024.215-.76.19-1.365-.072-1.713-.25-.331-.785-.512-1.464-.495-3.986.095-5.532-2.562-5.822-4.09-.212-.568-.942-2.849.015-5.01.655-1.48 1.921-2.559 3.764-3.204 3.616-1.268 10.666-.363 15.088 1.936 2.311 1.202 3.721 2.654 4.19 4.315.63 2.223-.054 4.439-1.873 6.079-2.027 1.828-5.053 2.613-7.08 1.854-.292-.065-1.07-.153-1.526.152-.067.045-.238.158-.36.482 2.04.27 3.823.786 5.14 1.825zm-5.202-23.978c-.062 1.166-.548 2.088-1.086 2.059-.537-.029-.923-.997-.86-2.163.062-1.166.548-2.088 1.086-2.06.537.03.922.998.86 2.164zm6.814.928c.35-1.114 1.049-1.886 1.562-1.725.514.161.647 1.196.298 2.31-.35 1.114-1.05 1.886-1.563 1.725-.513-.162-.646-1.196-.297-2.31zm19.656 27.355c.383.02.742.244.92.61.604 1.245 1.608 2.777 2.969 3.004 1.45.242 2.764-1.035 2.777-1.047a1.086 1.086 0 0 1 1.79.395c.066.183.187.522.908.416 1.263-.188 2.793-1.56 2.873-3.046.044-.823.162-1.582.266-2.25.326-2.085.489-3.132-1.338-4.365-2.983-2.017-9.212-4.158-9.274-4.18a1.448 1.448 0 0 1-.07-.026c-2.087-.877-3.676-.986-4.721-.322-2.083 1.32-2.28 5.821-2.387 8.24-.058 1.326.226 2.224.844 2.67 1.116.805 3.263.253 3.996-.028.147-.056.299-.08.447-.07zm-64.4-9.729c.322.017.633.178.83.46.794 1.135 2.037 2.49 3.408 2.495 1.468.009 2.565-1.461 2.576-1.476a1.086 1.086 0 0 1 1.83.107c.094.17.271.486.963.265 1.218-.386 2.51-1.983 2.353-3.462-.09-.848-.087-1.71-.083-2.543.011-2.648-.076-4.319-1.93-5.191a1.08 1.08 0 0 1-.039-.018c-3.171-1.46-9.587-1.251-9.651-1.249-.1.004-.198-.006-.294-.03-2.201-.532-3.788-.388-4.714.433-1.847 1.635-1.329 6.11-1.05 8.513.152 1.32.574 2.161 1.256 2.504 1.23.617 3.261-.269 3.941-.663a1.08 1.08 0 0 1 .603-.145zm11.865-88.117a99.953 99.953 0 0 0-.898-1.771l-6.226 6.052c2.63 3.874 5.583 7.667 6.515 8.85 1.827-1.065 3.637-1.965 5.265-2.758-.639-1.557-2.52-6.058-4.656-10.373zm-6.083-9.244c-1.406-.535-3.13-.06-4.293 1.183-.666.713-2.06 2.709-.624 5.84.618 1.347 1.57 2.972 2.656 4.66l6.376-6.199c-2.55-4.558-3.76-5.349-4.115-5.484zM67.032 54.26c-1.25-.068-2.469-.896-3.84-1.83-1.398-.95-2.982-2.027-4.982-2.646-1.902-.587-2.993-1.57-3.244-2.919-.383-2.059 1.508-4.155 2.584-5.159-.286-.695-.46-1.509-.14-2.267.456-1.085 1.62-1.403 2.556-1.658 1.261-.345 1.561-.53 1.606-.984.04-.406.16-1.643 1.16-2.114 1.163-.549 2.403.29 4.458 1.678.955.645 2.144 1.448 3.52 2.242 5.447 3.142 2.843 7.75.546 11.815-.252.446-.509.9-.762 1.362-.766 1.394-1.598 2.158-2.618 2.403-.284.069-.564.091-.844.077z"/></g></g></svg>