<svg xmlns="http://www.w3.org/2000/svg" width="86" height="190" viewBox="0 0 86 190"><g><g><path fill="#fff" d="M41.391 150.227c-8.285 0-15.31-3.165-20.017-9.086-2.067-2.6-3.6-5.676-4.515-8.848l-6.277 1.036a1.34 1.34 0 0 1-.436-2.644l6.102-1.007a23.712 23.712 0 0 1-.372-3.709L3.18 123.815a1.34 1.34 0 1 1 .45-2.64l12.366 2.097c.108-.962.288-1.897.542-2.791l-7.565-3.183a1.34 1.34 0 1 1 1.04-2.47l7.328 3.083c2.884-9.73 4.443-23.092 4.578-24.28-.028-1.411-.356-19.048.002-28.163.24-6.098-1.173-9.11-2.575-9.895-.736-.413-1.636-.273-2.674.419-1.29.86-2.02 3.447-2.726 5.95-1.182 4.185-2.667 9.386-7.891 8.87C2.833 70.49.79 66.344.728 59.992c-.086-8.775 4.218-22.361 16.434-23.826 5.462-.657 9.833.72 12.988 4.088 4.14 4.419 8.158 14.566 3.796 37.815-1.29 6.874-.713 11.475 1.67 13.303 2.63 2.018 7.063.348 8.06-.069 3.51-3.776 2.929-11.904 2.922-11.988-.172-2.35-4.1-57.622 5.068-72.421C55.865.114 59.585-.484 61.966.21c6.13 1.783 8.786 13.378 8.66 23.396-.125 9.855-2.933 21.594-5.412 31.951-1.96 8.192-3.811 15.928-4.112 21.64-.397 7.534 2.011 14.346 4.56 21.56 1.768 5.001 3.596 10.174 4.47 15.706.156.988.322 2.303.415 3.848l12.503-1.836a1.34 1.34 0 1 1 .39 2.65l-12.816 1.883a39.323 39.323 0 0 1-.181 3.624l7.903-.175h.03a1.34 1.34 0 0 1 .029 2.678l-8.324.184c-.226 1.3-.534 2.63-.944 3.967l6.355 2.103a1.339 1.339 0 1 1-.843 2.544l-6.413-2.123a26.492 26.492 0 0 1-3.592 6.238c-4.53 5.83-11.28 9.204-20.063 10.026a34.092 34.092 0 0 1-3.19.152zM18.47 52.66c.765 0 1.503.19 2.189.574 2.793 1.566 4.193 5.948 3.942 12.337-.369 9.374-.003 27.908.001 28.094 0 .058-.002.116-.008.173-.068.628-1.64 14.752-4.766 25.118l3.406 1.433a1.34 1.34 0 1 1-1.04 2.47l-3.16-1.33c-.172.68-.3 1.415-.38 2.193l3.414.58a1.34 1.34 0 1 1-.449 2.64l-3.043-.515c.037.91.136 1.853.304 2.817l2.572-.424a1.34 1.34 0 1 1 .436 2.643l-2.39.394a22.725 22.725 0 0 0 3.975 7.616c3.337 4.199 9.669 8.983 20.858 7.934 8.015-.751 14.137-3.78 18.196-9.002 1.25-1.608 2.296-3.445 3.125-5.45l-4.13-1.368a1.339 1.339 0 1 1 .843-2.543l4.189 1.387c.301-.988.555-2.007.76-3.05l-4.564.101-.03.001a1.34 1.34 0 0 1-.029-2.678l5.037-.112c.12-1.08.192-2.179.213-3.291l-5.802.852a1.34 1.34 0 0 1-.39-2.65l6.142-.903a37.846 37.846 0 0 0-.407-3.82c-.836-5.29-2.622-10.344-4.35-15.232-2.524-7.142-5.134-14.528-4.71-22.594.314-5.955 2.193-13.808 4.183-22.12 2.445-10.221 5.218-21.807 5.338-31.363.116-9.223-2.37-19.522-6.729-20.79-2.1-.613-4.686 1.349-7.27 5.52-8.714 14.067-4.716 70.247-4.674 70.812.03.39.69 9.7-3.868 14.256a1.357 1.357 0 0 1-.37.261c-.273.13-6.751 3.167-11.052-.135-3.282-2.52-4.18-7.876-2.671-15.921 3.242-17.28 2.135-29.884-3.118-35.491-2.576-2.749-6.08-3.815-10.712-3.26-5.733.689-14.212 6.886-14.072 21.14.051 5.13 1.54 8.044 2.914 8.181 2.798.278 3.773-2.432 5.043-6.932.877-3.107 1.706-6.042 3.82-7.45 1.1-.734 2.218-1.103 3.284-1.103zm42.685-12.384c-.793 5.807-4.16 22.706-6.554 34.466-.302 1.487-2.491 1.264-2.491-.252v-5.708c0-9.388 3.236-45.296 3.466-47.833.009-.097.03-.192.06-.285 6.262-18.938 7.32 6.426 5.519 19.612zm-26.091 77.126c-2.403 0-4.324-1.888-4.47-4.39a1.341 1.341 0 0 1 1.26-1.417c.758-.028 1.374.523 1.417 1.26.062 1.065.832 1.867 1.793 1.867.987 0 1.79-.802 1.79-1.788a1.34 1.34 0 1 1 2.681 0 4.474 4.474 0 0 1-4.471 4.468zm15.982 0a4.474 4.474 0 0 1-4.471-4.468 1.34 1.34 0 1 1 2.681 0c0 .986.803 1.788 1.79 1.788.96 0 1.73-.802 1.792-1.866.044-.738.664-1.29 1.417-1.26a1.341 1.341 0 0 1 1.26 1.416c-.145 2.502-2.066 4.39-4.469 4.39zM33.67 136.779c-4.719 0-8.336-7.263-8.507-7.612a1.34 1.34 0 0 1 2.408-1.178c.941 1.915 4.244 7.112 6.955 5.92 2.275-1 5.128-4.725 6.035-6.077a1.34 1.34 0 0 1 2.409.402c.01.039 1.198 4.28 4.353 5.248 2.333.714 5.304-.458 8.831-3.486a1.343 1.343 0 0 1 1.89.142 1.338 1.338 0 0 1-.142 1.89c-4.28 3.674-8.108 5.024-11.384 4.01-2.656-.823-4.277-3.012-5.181-4.749-1.389 1.741-3.566 4.122-5.734 5.072-.66.29-1.307.418-1.933.418zm33.99 50.933a3.703 3.703 0 0 1-1.827-.474c-1.067-.602-1.767-1.686-2.224-2.786-1.365 1.218-3.108 1.513-4.218 1.439-1.952.067-3.665-.774-4.88-2.436-3.424-4.69-2.43-14.907-.96-18.842 2.15-5.753 9.531-12.98 21.056-9.326 10.86 3.445 11.442 13.311 11.003 15.765-1.29 7.214-3.012 12.552-7.224 15.156-1.492.924-2.723.728-3.495.4-.824-.349-1.48-1.005-1.995-1.75-.652.803-1.619 1.592-3.01 2.282-.845.418-1.588.572-2.226.572zm-3.548-8.153a1.34 1.34 0 0 1 1.337 1.227c.094 1.084.636 3.52 1.703 4.118.14.079.567.319 1.544-.165 2.563-1.269 2.766-2.637 2.719-3.212a9.72 9.72 0 0 1-.13-.519 1.34 1.34 0 0 1 2.544-.808c.097.227.177.502.225.811.366 1.235 1.097 2.799 1.886 3.132.113.047.411.173 1.035-.212 2.919-1.806 4.6-5.547 5.994-13.343.023-.185.92-9.545-9.173-12.748-10.89-3.456-16.494 4.394-17.733 7.709-1.345 3.598-1.996 12.752.614 16.326.705.965 1.565 1.395 2.676 1.335.062-.002.123-.001.185.004.436.04 2.687.057 3.265-2.6a1.34 1.34 0 0 1 1.309-1.055zM23.867 190a3.684 3.684 0 0 1-1.826-.475c-1.067-.6-1.767-1.685-2.224-2.784-1.365 1.217-3.104 1.517-4.219 1.438-1.972.08-3.665-.773-4.88-2.435-3.424-4.688-2.43-14.907-.96-18.843 2.15-5.751 9.532-12.98 21.056-9.326 10.86 3.446 11.442 13.312 11.003 15.765-1.29 7.214-3.012 12.552-7.224 15.158-1.492.924-2.726.726-3.495.4-.823-.35-1.48-1.006-1.995-1.752-.653.804-1.619 1.594-3.01 2.282-.844.418-1.588.572-2.226.572zm-3.548-8.152a1.34 1.34 0 0 1 1.337 1.227c.095 1.084.636 3.52 1.703 4.118.14.079.567.318 1.543-.166 2.572-1.273 2.776-2.625 2.717-3.223-.07-.25-.11-.43-.127-.507a1.34 1.34 0 0 1 2.545-.808c.096.227.176.5.224.81.366 1.235 1.097 2.8 1.887 3.133.112.047.41.174 1.034-.212 2.918-1.805 4.6-5.548 5.994-13.343.024-.189.917-9.547-9.173-12.748-10.89-3.457-16.494 4.393-17.733 7.709-1.344 3.598-1.996 12.753.614 16.325.704.965 1.563 1.394 2.675 1.336.062-.002.124-.001.186.004.435.04 2.687.057 3.265-2.6a1.34 1.34 0 0 1 1.31-1.055z"/></g></g></svg>