<svg xmlns="http://www.w3.org/2000/svg" width="34" height="34" viewBox="0 0 34 34"><g><g><path fill="#ffb713" d="M14.188 11.136a2.904 2.904 0 0 1 2.915-2.944 2.9 2.9 0 0 1 2.907 2.91 2.894 2.894 0 0 1-2.892 2.922 2.901 2.901 0 0 1-2.93-2.888zm19.81 5.786c0 9.344-7.565 16.92-16.896 16.92S.206 26.266.206 16.922C.206 7.577 7.771.001 17.102.001s16.896 7.576 16.896 16.921zm-22.843-5.83c-.02 3.263 2.648 5.963 5.9 5.974 3.285.012 5.97-2.627 5.987-5.882.016-3.331-2.625-6.028-5.916-6.037-3.284-.01-5.952 2.649-5.97 5.946zm12.73 6.585c-.336-.551-.923-.782-1.55-.62-.324.083-.603.247-.863.446-2.633 1.774-6.236 1.724-8.858-.081a2.9 2.9 0 0 0-.404-.238c-.728-.343-1.427-.184-1.845.414-.487.699-.425 1.378.192 1.97.159.154.339.286.514.423 1.407 1.102 3.05 1.552 4.874 1.742-.13.138-.212.233-.3.322-1.337 1.343-2.673 2.687-4.013 4.026-.278.276-.476.585-.496.99-.028.598.342 1.193.923 1.475.548.266 1.11.182 1.581-.284 1.05-1.037 2.095-2.08 3.123-3.14.258-.266.397-.324.69-.018 1 1.048 2.041 2.059 3.063 3.089.266.27.567.46.952.487.608.042 1.228-.348 1.504-.94.253-.54.157-1.118-.302-1.584-1.35-1.366-2.71-2.722-4.064-4.086-.094-.094-.165-.174-.316-.338.998-.12 2.006-.3 2.925-.658.973-.377 1.849-.918 2.577-1.666.474-.488.479-1.102.093-1.731z"/></g></g></svg>