<svg xmlns="http://www.w3.org/2000/svg" width="206" height="190" viewBox="0 0 206 190"><g><g><path fill="#ffb713" d="M114.452 190.006c-20.045.002-41.714-5.36-64.74-16.045C24.778 162.39 8.46 141.456 2.524 113.424c-5.173-24.43-1.431-47.848 2.62-63.193C10.362 30.45 19.306 12.284 29.68.397a1.187 1.187 0 0 1 1.678-.112c.494.434.544 1.187.112 1.684C11.645 24.688-3.732 72.405 4.85 112.929c5.774 27.268 21.633 47.623 45.862 58.866 32.813 15.227 62.772 19.491 89.047 12.678 27.16-7.046 44.086-24.381 53.502-37.684 5.763-8.14 9.703-23.522 10.282-40.14.68-19.493-3.18-38.79-10.869-54.34-9.795-19.81-30.848-43.733-75.522-45.2-34.644-1.147-59.508 8.86-73.912 29.714-17.476 25.304-14.427 60.813-8.91 74.201 6.734 16.342 24.198 30.229 45.577 36.24 15.26 4.293 45.582 8.023 77.2-15.204 18.792-13.805 20.736-30.868 19.057-42.752-1.488-10.532-6.494-21.56-14.096-31.049-7.137-8.909-16.086-15.8-24.554-18.907-16.193-5.94-40.488.832-56.51 15.755-15.662 14.587-14.7 28.413-12.734 35.357 2.806 9.905 8.977 17.32 18.342 22.039 16.069 8.097 36.998 6.03 44.63 3.125 5.89-2.241 12.723-13.173 13.052-24.447.213-7.3-2.148-17.179-14.604-22.777-6.201-2.787-11.164-2.924-14.751-.41-8.503 5.962-7.277 24.802-7.264 24.991a1.192 1.192 0 0 1-1.102 1.274 1.2 1.2 0 0 1-1.27-1.104c-.059-.829-1.335-20.376 8.27-27.114 4.32-3.032 10.07-2.97 17.089.186 10.655 4.788 16.34 13.675 16.01 25.025-.332 11.342-7.147 23.776-14.585 26.607-7.975 3.036-29.814 5.206-46.543-3.224-9.985-5.033-16.566-12.945-19.562-23.52C62.33 78.221 67.09 64.81 79.385 53.358c16.63-15.49 41.97-22.477 58.947-16.246 17.036 6.25 36.726 27.36 40.187 51.861 1.77 12.53-.265 30.509-20.007 45.013-32.43 23.823-63.572 19.985-79.247 15.576-22.066-6.205-40.127-20.623-47.134-37.627-2.43-5.899-5.037-18.058-4.387-32.916.512-11.665 3.275-28.691 13.541-43.554 14.894-21.564 40.44-31.903 75.945-30.74 45.849 1.504 67.492 26.131 77.575 46.524 7.86 15.898 11.807 35.602 11.115 55.482-.594 17.06-4.701 32.939-10.72 41.44-9.645 13.626-26.99 31.385-54.846 38.611-8.29 2.15-16.935 3.224-25.902 3.224z"/></g></g></svg>