<svg xmlns="http://www.w3.org/2000/svg" width="65" height="77" viewBox="0 0 65 77"><g><g><path fill="#fff" d="M41.532 76.988c-.137 0-.277-.015-.418-.049-.4-.094-1.124-.415-1.465-1.507-.445-1.431-2.1-8.166-2.763-10.876l-9.874.865a1.567 1.567 0 0 1-.144.006c-.693 0-2.29-.131-2.926-1.282-.213-.385-.473-1.18.18-2.19.894-1.384 7.643-7.846 9.786-9.882-.067-1.081-.528-3.93-.817-5.718-.28-1.733-.523-3.23-.6-4.035-.056-.586-.186-1.955.828-2.649 1.022-.7 2.162-.135 3.486.517 1.401.69 7.263 3.5 9.314 4.483l7.476-5.228c.068-.048.142-.09.218-.124.221-.1 1.376-.564 2.385.125.488.333 1.053 1.023.972 2.424-.14 2.424-1.534 8.144-2.055 10.216l8.781 8.493c.035.033.067.067.097.103.166.2.969 1.25.492 2.432-.347.86-1.19 1.373-2.506 1.523-2.122.244-9.273-.464-11.918-.74l-6.641 12.04a1.345 1.345 0 0 1-.21.283c-.385.398-.999.77-1.678.77zm-3.61-15.205c.615 0 1.16.419 1.307 1.024.02.085 1.74 7.158 2.605 10.436l6.298-11.419a1.356 1.356 0 0 1 1.328-.687c2.693.296 9.939 1.005 12.038.854l-8.817-8.527a1.334 1.334 0 0 1-.365-1.294c.019-.074 1.832-7.09 2.133-10.052l-7.428 5.196c-.399.28-.919.321-1.358.11-.34-.162-8.342-3.995-10.053-4.838-.126-.061-.264-.13-.404-.196.098.797.315 2.135.543 3.54.89 5.498.997 6.583.717 7.256-.071.173-.179.33-.315.458-3.163 3-7.617 7.336-9.214 9.096l10.865-.952c.04-.003.08-.005.12-.005zm-14.373-8.825c-.446 0-.993-.148-1.636-.585-1.287-.871-4.764-4.496-6.23-6.046L6.3 49.803a1.338 1.338 0 0 1-.346.079c-.595.056-1.381-.114-1.842-.749-.222-.306-.533-.959-.122-1.893.43-.98 2.602-5.21 3.624-7.194L1.89 35.943a1.589 1.589 0 0 1-.087-.067c-.428-.364-1.396-1.332-1.15-2.483.067-.317.34-1.087 1.409-1.401 1.176-.347 7.548-.698 10.232-.833.514-.708 1.552-2.38 2.213-3.444.693-1.116 1.29-2.08 1.648-2.58.264-.369.955-1.353 2.078-1.23 1.115.122 1.538 1.123 1.986 2.18.437 1.03 2.228 5.141 2.96 6.822l6.544.65c.084.008.167.025.247.047.592.175 1.3.65 1.516 1.465.134.508.118 1.295-.723 2.158-1.23 1.263-4.6 3.672-6.023 4.672l.77 8.806a1.3 1.3 0 0 1 .006.142c-.013.654-.308 1.498-1.098 1.903a1.883 1.883 0 0 1-.869.208zm-7.494-9.534c.367 0 .727.15.986.427 1.608 1.723 4.244 4.448 5.669 5.722l-.719-8.211a1.334 1.334 0 0 1 .574-1.216c1.126-.776 3.908-2.751 5.474-4.066l-5.914-.588a1.346 1.346 0 0 1-1.101-.798s-2.408-5.518-3.16-7.276c-.304.474-.679 1.078-1.067 1.703-2.271 3.66-2.699 4.254-3.27 4.54a1.356 1.356 0 0 1-.542.144c-3.207.156-6.72.378-8.688.563l5.83 4.18c.54.387.715 1.11.41 1.698a630.88 630.88 0 0 0-3.236 6.33l8.284-3.069c.153-.056.312-.083.47-.083zM44.345 23.1c-.048 0-.096-.001-.145-.006-.283-.026-.988-.178-1.4-1.042-.32-.673-1.47-3.505-2.116-5.109l-4.657 1.084a1.899 1.899 0 0 1-.109.021c-.469.068-1.626.14-2.26-.699-.182-.24-.56-.897-.141-1.807.37-.803 2.924-4.09 4.335-5.88-.167-.651-.544-1.856-.79-2.642-.284-.91-.53-1.697-.638-2.139-.083-.34-.334-1.377.422-2.07.756-.696 1.687-.39 2.508-.123.734.24 3.564 1.134 4.935 1.566l3.306-3.093c.061-.056.127-.108.198-.153.462-.292 1.2-.484 1.889-.147.35.172.953.625 1.047 1.718.105 1.243-.138 3.974-.276 5.344l5.023 3.638c.04.028.077.057.112.09.432.389.825 1.08.634 1.86-.122.496-.51 1.151-1.663 1.453-1.075.28-4.388.443-6.108.51l-2.463 6.512a1.31 1.31 0 0 1-.167.31c-.289.4-.82.804-1.476.804z"/></g></g></svg>