<svg xmlns="http://www.w3.org/2000/svg" width="31" height="26" viewBox="0 0 31 26"><g><g><path fill="#a93958" d="M5.73 25.681c-.263 0-.616-.062-.875-.341-.187-.202-.374-.569-.197-1.168.303-1.026 2.144-7.014 2.698-8.815l-6.225-3.412a.557.557 0 0 1-.046-.027c-.27-.18-1.149-.825-1.08-1.624.02-.243.15-.691.78-.968 1.047-.457 7.903-1.683 9.473-1.96.356-.565 1.253-2.532 1.808-3.748.504-1.107.94-2.062 1.202-2.55.28-.523.65-1.06 1.256-1.068.057 0 .112.004.164.012A.655.655 0 0 1 14.814 0h1.393c1.578 0 3.087.753 4.036 2.015.519.69 1.03 1.49 1.573 2.338.806 1.26 1.64 2.564 2.507 3.501a.654.654 0 0 1 .097.136l3.739.135c.304 0 .605.072.852.219l.97.504c.52.27.88.754.99 1.33a1.89 1.89 0 0 1-.429 1.601c-.574.662-1.582 1.475-2.749 2.416-.682.55-1.385 1.116-2.053 1.695 1.05 2.63 2.563 6.713 2.26 7.687-.404 1.303-2.817 1.888-4.137 1.888-.16 0-.302-.01-.424-.026a.652.652 0 0 1-.253-.09c-.276-.026-.581-.125-.915-.296-.838-.431-3.098-1.858-4.956-3.052l-5.54 3.327a4.734 4.734 0 0 1-2.909.645l-2.913-.306a1.75 1.75 0 0 1-.223.014zm9.174-5.24l-6.937 4.12 1.035.108a3.418 3.418 0 0 0 2.102-.466l4.984-2.993-1.184-.77zm7.259-4.652l2.363 7.905a.69.69 0 0 1 .024.12c.003.03.013.143.001.295.974-.148 2.061-.583 2.195-.904.057-.654-1.1-4.023-2.26-6.932zm7.041-5.336c-.883 1.176-4.101 3.08-6.1 4.194l1.67.348a71.394 71.394 0 0 1 2.2-1.821c1.072-.865 2.084-1.68 2.58-2.254a.584.584 0 0 0 .133-.496.586.586 0 0 0-.234-.368c-.065.13-.148.263-.249.397zM16.082 1.497c.562.977 3.02 5.151 3.712 6.326l2.879.104c-.684-.874-1.329-1.883-1.958-2.866-.528-.827-1.027-1.607-1.516-2.257a3.761 3.761 0 0 0-2.992-1.493h-.233c.036.06.072.123.108.186z"/></g></g></svg>