<svg xmlns="http://www.w3.org/2000/svg" width="31" height="26" viewBox="0 0 31 26"><g><g><path fill="#a93958" d="M5.73 25.681c-.263 0-.616-.062-.875-.341-.187-.202-.374-.569-.197-1.168.303-1.026 2.144-7.014 2.698-8.815l-6.225-3.412a.74.74 0 0 1-.046-.027c-.27-.18-1.149-.825-1.08-1.624.02-.243.15-.692.781-.968 1.046-.457 7.902-1.683 9.472-1.96.356-.565 1.253-2.532 1.808-3.749.504-1.106.94-2.06 1.202-2.548.28-.524.65-1.06 1.256-1.069.057 0 .112.004.164.012A.655.655 0 0 1 14.814 0h1.393c1.578 0 3.087.753 4.036 2.015.519.69 1.03 1.49 1.573 2.339.806 1.26 1.64 2.563 2.507 3.5.039.042.071.088.097.136l3.739.135c.3 0 .598.07.844.214l.978.509c.52.27.88.754.99 1.33a1.89 1.89 0 0 1-.429 1.601c-.574.662-1.582 1.475-2.749 2.416-.682.55-1.385 1.116-2.053 1.695 1.05 2.63 2.563 6.713 2.26 7.687-.404 1.303-2.817 1.887-4.137 1.887a3.12 3.12 0 0 1-.424-.025.65.65 0 0 1-.252-.09c-.276-.026-.582-.124-.916-.296-.838-.431-3.098-1.858-4.956-3.052l-5.54 3.327a4.734 4.734 0 0 1-2.909.645l-2.913-.306a1.75 1.75 0 0 1-.223.014zm9.174-5.24l-6.937 4.12 1.035.108a3.419 3.419 0 0 0 2.102-.466l4.984-2.993-1.184-.77zm7.259-4.652l2.363 7.905a.69.69 0 0 1 .024.12c.003.03.013.143.001.295.974-.148 2.061-.583 2.195-.904.057-.654-1.1-4.023-2.26-6.932zm7.041-5.335c-.883 1.175-4.101 3.08-6.1 4.193l1.67.348a72.345 72.345 0 0 1 2.2-1.822c1.072-.864 2.084-1.68 2.58-2.253a.585.585 0 0 0 .133-.496.586.586 0 0 0-.234-.368c-.065.13-.148.263-.249.398zM16.082 1.497c.562.978 3.02 5.151 3.712 6.326l2.879.104c-.684-.874-1.33-1.883-1.958-2.867-.528-.826-1.027-1.606-1.516-2.256a3.761 3.761 0 0 0-2.991-1.493h-.234c.036.06.072.123.108.186z"/></g></g></svg>