<svg xmlns="http://www.w3.org/2000/svg" width="67" height="64" viewBox="0 0 67 64"><g><g><path fill="#a83657" d="M64.877 53.654l-21.297-.351a.632.632 0 0 1-.4-.151H1.63v4.837h5.01c.269 0 .499.168.592.406a4.566 4.566 0 0 1 4.065-2.507c1.415 0 2.96.637 4.04 1.657a.634.634 0 0 1 .51-.258h36.888a4.566 4.566 0 0 1 4.078-2.534c1.788 0 3.782 1.016 4.784 2.534h4.568v-3.633h-1.287zM2.979 34.727c0-.354.285-.64.636-.64h2.098c.091-1.338.294-2.328.303-2.371a.658.658 0 0 1 .02-.078l-.141.001c-2.04 0-4.125-.719-5.082-3.076-.826-2.036-.508-4.194.875-5.92 1.098-1.37 2.722-2.288 4.28-2.495l3.342-.715a5.18 5.18 0 0 1-.054-.122c-1.012-2.34-2.015-5.332-1.51-8.264a.636.636 0 0 1-.198-.122A7.009 7.009 0 0 1 6.476 2.43C7.119 1.222 8.056.481 9.258.227c2.726-.576 5.96 1.627 6.81 2.252 1.354-.436 3.048-.715 5.47-.896.034-.002 1.726-.05 3.971.702.945-.686 4.083-2.76 6.739-2.2 1.203.253 2.14.994 2.782 2.203 2.187 4.106.106 7.154-.746 8.147 1.063 2.602 1.11 5.377.078 7.702a8.033 8.033 0 0 1-1.137 1.846l3.001 1.17c2.162.414 4.594 1.764 5.247 3.89.592 1.928-.28 4.099-2.593 6.453l.262 2.59h3.813v-6.382c0-.354.285-.64.636-.64h12.22c.233 0 .448.128.559.335l9.077 16.873c.05.094.077.198.077.306v7.795H66.8c.351 0 .636.286.636.64v4.914a.64.64 0 0 1-.636.641h-4.645c.058.253.09.514.09.78 0 2.588-2.921 4.595-5.434 4.595-2.516 0-4.564-2.061-4.564-4.594 0-.266.023-.527.066-.78H16.483v.628c.158.406.246.837.246 1.286 0 2.588-2.92 4.596-5.433 4.596-2.517 0-4.564-2.062-4.564-4.596 0-.441.062-.868.178-1.273a.63.63 0 0 1-.271.061H.993a.639.639 0 0 1-.637-.64v-6.12c0-.353.285-.64.637-.64h1.986zm31.643-2.124c-1.298 0-2.616-.291-3.648-1.112.264.816.477 1.692.624 2.596h6.264l-.197-1.958c-.883.27-1.956.474-3.043.474zM9.6 34.087c-.05-1.237.059-2.346.321-3.323a.634.634 0 0 1-.196.124c-.678.273-1.564.528-2.523.66a.642.642 0 0 1 .06.429 18.3 18.3 0 0 0-.272 2.11zm28.646-10.818a.627.627 0 0 1-.23-.044l-2.136-.833a3.137 3.137 0 0 0-.527-.044c-1.358 0-2.939.808-3.945 2.064-.636.794-1.572 2.452-.687 4.63.64 1.58 2.017 2.336 4.085 2.274 1.4-.048 2.68-.474 3.061-.611 2.01-2.01 2.836-3.835 2.391-5.283-.276-.898-1.036-1.628-1.954-2.156a.628.628 0 0 1-.058.003zm-5.99-2.29c-1.327 1.155-3.07 1.957-5.131 2.335-2.303.423-4.57.636-6.666.636-1.566 0-3.036-.119-4.355-.359-2.799-.507-4.863-1.535-6.068-3.007a.64.64 0 0 1-.063.017l-.664.142c1.56.665 2.965 1.798 3.437 3.336.274.89.235 1.833-.114 2.821 1.195-.783 2.736-1.243 4.61-1.366.685-.115 8.714-1.385 11.812 2.243a6.2 6.2 0 0 1 .067.08c-.154-1.503.288-2.99 1.296-4.25a7.042 7.042 0 0 1 3.006-2.173zm11.972 31.052l20.024.331V44.74l-8.82-16.395H44.227zM4.251 35.368v16.503h38.704V35.368zm7.045 21.802c-1.815 0-3.292 1.486-3.292 3.313 0 1.827 1.477 3.314 3.292 3.314 1.873 0 4.16-1.53 4.16-3.314a2.252 2.252 0 0 0-.213-.947c-.61-1.346-2.417-2.366-3.947-2.366zm45.516-1.136c-1.814 0-3.291 1.487-3.291 3.315 0 1.826 1.477 3.313 3.291 3.313 1.873 0 4.16-1.529 4.16-3.313 0-1.785-2.287-3.315-4.16-3.315zm2.224-13.77H46.733a.639.639 0 0 1-.636-.641V31.57c0-.354.284-.64.636-.64h7.506c.245 0 .468.14.574.362l4.797 10.052a.644.644 0 0 1-.035.618.636.636 0 0 1-.539.3zM47.37 40.981h10.655l-4.185-8.77h-6.47zM5.422 21.574l-.004.001a5.762 5.762 0 0 0-2.74 1.873c-.636.794-1.571 2.452-.687 4.63.642 1.58 2.01 2.345 4.086 2.273 1.4-.047 2.68-.473 3.061-.61 2.01-2.01 2.836-3.835 2.391-5.283-.503-1.637-2.614-2.717-4.364-3.028a3.13 3.13 0 0 0-.542-.046 3.69 3.69 0 0 0-.436.027zM10.896 5.73c.41-.35.793-.672 1.161-.969a2.767 2.767 0 0 0-2.3-.305c-.257.077-.336.202-.38.314-.186.485.098 1.374.404 2.055.328-.373.698-.739 1.115-1.095zm3.743-2.678c-1.18-.76-3.369-1.94-5.122-1.57-.828.176-1.456.684-1.92 1.554-1.79 3.365-.2 5.787.508 6.622a8.352 8.352 0 0 1 .821-1.691c-.328-.6-1.217-2.409-.735-3.66.205-.53.62-.904 1.2-1.079 1.82-.55 3.183.29 3.734.725.49-.342.982-.641 1.514-.901zm18.77 5.655c.092.151.18.304.266.458.756-1.054 1.82-3.293.234-6.272-.464-.87-1.093-1.379-1.922-1.554-1.616-.34-3.725.684-5.04 1.514.514.236 1.044.516 1.578.848.623-.449 1.914-1.122 3.59-.616.58.175.996.548 1.2 1.078.436 1.132-.25 2.72-.627 3.457.247.343.488.704.72 1.087zm-12.154 12.88c-4.04 0-5.678-1.22-5.976-4.356-.289-3.054 1.338-3.992 2.856-4.344.006-.02.012-.039.02-.058.253-.716 1.007-1.142 2.241-1.266 1.832-.185 3.223.274 3.65 1.2 1.477.064 3.644.78 3.978 3.248.21 1.558-.072 2.811-.84 3.725-.976 1.16-2.692 1.763-5.245 1.84-.235.008-.463.012-.684.012zm-4.708-4.477c.27 2.858 1.875 3.291 5.354 3.186 2.141-.065 3.592-.533 4.312-1.389.532-.633.712-1.524.55-2.723-.241-1.779-1.929-2.088-2.75-2.134-.134.287-.366.6-.749.925l-.928.792a1.975 1.975 0 0 1-.577.345v1.526c.784-.093 1.645-.38 2.54-.993a.633.633 0 0 1 .884.17.644.644 0 0 1-.169.89c-1.356.928-2.666 1.238-3.81 1.238-2.292 0-3.922-1.242-3.946-1.261a.644.644 0 0 1-.112-.9.634.634 0 0 1 .891-.114c.07.054 1.028.773 2.45.96V16.15a1.982 1.982 0 0 1-.605-.316c-.545-.42-.899-.712-1.081-.895a2.818 2.818 0 0 1-.53-.768c-1.249.322-1.906 1.026-1.724 2.94zm9.559-5.58c-.808 0-1.506-.398-1.877-.738a.643.643 0 0 1-.043-.904.633.633 0 0 1 .896-.047c.166.148 1.033.832 1.948.001a.634.634 0 0 1 .9.047.644.644 0 0 1-.047.905c-.596.542-1.214.735-1.777.735zm-10.308-.238c-.47 0-1.03-.098-1.679-.388a.642.642 0 0 1-.322-.846.633.633 0 0 1 .84-.325c1.067.477 1.722.217 2.114.062.247-.098.585-.232.916-.01a.642.642 0 0 1-.378 1.174l-.071.029c-.292.115-.767.304-1.42.304zm5.834-8.431c-5.649.423-6.879 1.26-9.913 3.847-4.226 3.603-2.913 8.354-1.296 12.091 1.48 3.424 8.255 4.763 16.473 3.255 1.965-.361 3.563-1.114 4.732-2.217a.636.636 0 0 1 .115-.11 6.845 6.845 0 0 0 1.457-2.112c.93-2.094.832-4.633-.225-7a10.983 10.983 0 0 0-.651-1.238 15.272 15.272 0 0 0-.915-1.338 13.465 13.465 0 0 0-3.217-3.034 13.013 13.013 0 0 0-2.825-1.422c-2.1-.755-3.7-.724-3.735-.722zm10.496 1.765c-.043-.111-.122-.236-.379-.313a2.752 2.752 0 0 0-2.08.18c.727.558 1.447 1.221 2.134 2.011.288-.687.488-1.457.325-1.878zm-4.04 23.987c-2.702-3.164-10.585-1.824-10.664-1.81a1.446 1.446 0 0 1-.07.009c-4.561.287-6.683 2.667-6.482 7.275h19.435c-.397-2.245-1.237-4.325-2.22-5.474zm6.468 1.02c-1.12 0-2.28-.402-2.819-1.73-.456-1.124-.28-2.316.483-3.268.786-.982 2.08-1.536 3.139-1.347 1.098.195 2.52.88 2.916 2.168.342 1.113-.156 2.34-1.481 3.644a.621.621 0 0 1-.209.137c-.519.21-1.265.397-2.03.397zm.368-5.1c-.576 0-1.277.361-1.714.906-.332.415-.653 1.096-.294 1.98.583 1.436 2.575.848 3.083.67.63-.642 1.285-1.522 1.06-2.254-.201-.656-1.119-1.142-1.921-1.285a1.181 1.181 0 0 0-.214-.018zM6.56 29.06c-1.121 0-2.28-.402-2.82-1.73-.456-1.124-.28-2.315.483-3.268.786-.981 2.08-1.535 3.14-1.347 1.098.195 2.52.88 2.915 2.168.343 1.113-.156 2.34-1.48 3.644a.622.622 0 0 1-.21.137 5.676 5.676 0 0 1-2.028.396zm.368-5.1c-.577 0-1.278.362-1.714.906-.333.416-.654 1.096-.295 1.98.584 1.436 2.576.848 3.084.67.63-.64 1.284-1.522 1.06-2.255-.202-.654-1.12-1.141-1.922-1.283a1.183 1.183 0 0 0-.213-.018z"/></g></g></svg>