<svg xmlns="http://www.w3.org/2000/svg" width="58" height="61" viewBox="0 0 58 61"><g><g><path fill="#ffb713" d="M30.08 24.843c-.304 0-.608-.005-.911-.015-2.97-.09-4.966-.785-6.105-2.125-.898-1.057-1.228-2.504-.982-4.302.39-2.843 2.897-3.677 4.622-3.76.515-1.062 2.135-1.588 4.257-1.376 1.448.145 2.334.642 2.633 1.48l.015.041c2.884.643 4.215 2.33 3.957 5.022-.409 4.274-3.886 5.035-7.486 5.035zm-6.453-6.232c-.187 1.361.019 2.371.627 3.088.826.971 2.495 1.501 4.962 1.576 5.351.164 6.573-1.263 6.798-3.614.177-1.847-.576-2.847-2.569-3.32-.176.364-.413.67-.61.865-.21.21-.621.547-1.256 1.03-.212.16-.443.28-.683.359v1.616c1.61-.223 2.69-1.026 2.768-1.085a.782.782 0 0 1 1.092.142.774.774 0 0 1-.138 1.087c-.028.021-1.928 1.455-4.596 1.455-1.333 0-2.857-.357-4.437-1.427a.775.775 0 0 1-.206-1.078.781.781 0 0 1 1.083-.207c1.011.685 1.986 1.013 2.874 1.125V18.55a2.336 2.336 0 0 1-.653-.392l-1.077-.91c-.436-.366-.705-.721-.864-1.047-.95.056-2.843.421-3.115 2.409zm8.35-3.309a.777.777 0 0 1 .04-.156c-.163-.12-.525-.266-1.21-.335a7.735 7.735 0 0 0-.77-.04c-1.233 0-1.828.343-1.927.543.006.048.009.096.006.145.048.136.192.348.496.604l1.08.912a.75.75 0 0 0 .942.024c.748-.568 1.01-.802 1.1-.891.106-.107.212-.257.289-.406a.77.77 0 0 1-.046-.4zm-7.632-1.99c-.662 0-1.386-.225-2.086-.854a.775.775 0 0 1-.057-1.097.781.781 0 0 1 1.101-.057c1.072.964 2.085.104 2.196.002a.78.78 0 0 1 1.101.053.775.775 0 0 1-.052 1.097c-.435.395-1.255.856-2.203.856zm11.938-.273c-.764 0-1.32-.218-1.66-.352l-.075-.03a.775.775 0 0 1-.455-1.423c.402-.266.806-.108 1.101.008.477.186 1.198.469 2.416-.07a.776.776 0 1 1 .633 1.42c-.758.335-1.413.447-1.96.447zm-5.397 14.508c-2.43 0-5.058-.244-7.727-.728-2.429-.441-4.479-1.384-6.03-2.745a.777.777 0 0 1-.223.178c-.068.036-6.883 3.681-9.83 7.547-4.33 5.68-5.144 9.602-2.541 12.297.215-.162.467-.316.76-.46 1.715-.833 2.875-.447 3.624-.1 2.227-9.142 5.904-11.9 6.061-12.014a.78.78 0 0 1 1.089.17.775.775 0 0 1-.167 1.083c-.045.034-2.956 2.293-5.028 9.469.793-.308 1.654-.238 2.503.217 2.745 1.47 5.215 7.233 4.719 11.012a6.9 6.9 0 0 1-.848 2.538c1.79 1.02 11.792 6.12 23.567.135a6.887 6.887 0 0 1-.926-2.673c-.496-3.779 1.974-9.542 4.719-11.012.728-.39 1.465-.497 2.16-.326-.891-7.278-3.212-9.363-3.237-9.383a.776.776 0 0 1-.11-1.094.782.782 0 0 1 1.097-.11c.129.105 3.121 2.64 3.943 11.782.1.137.197.274.263.37l.09-.043c.73-.357 1.954-.954 3.875-.02.358.174.653.365.896.566 1.115-.882 1.732-1.9 1.882-3.104.381-3.063-2.287-6.644-4.655-9.42-2.215-2.598-7.684-6.94-8.333-7.453-1.442 1.402-3.656 2.393-6.542 2.91-1.53.275-3.236.411-5.051.411zm-16.348 31.13a8.664 8.664 0 0 1-4.309 1.124 9.279 9.279 0 0 1-3.57-.717C2.788 57.47-.495 53.033.783 49.002c.626-1.973 1.84-1.813 2.391-1.695a6.17 6.17 0 0 0 .032-.401c.026-.434.06-1.014.331-1.604-4.966-4.913.49-12.07 2.297-14.443 2.955-3.876 9.187-7.355 10.205-7.907a9.233 9.233 0 0 1-1.295-2.092c-1.196-2.67-1.145-5.852.08-8.837-1.003-1.167-3.381-4.665-.852-9.367.75-1.396 1.844-2.253 3.25-2.546 3.072-.644 6.699 1.713 7.82 2.515 2.597-.856 4.553-.802 4.595-.799 2.797.207 4.757.526 6.325 1.023 1.013-.736 4.745-3.234 7.901-2.575 1.407.293 2.5 1.15 3.251 2.546 1.62 3.01 1.202 5.508.566 7.074-.689 1.693-1.77 2.673-1.816 2.714a.777.777 0 0 1-.208.134c.571 3.36-.589 6.784-1.76 9.463a6.058 6.058 0 0 1-.433.816c.774.61 6.218 4.933 8.536 7.651 2.574 3.02 5.47 6.955 5.014 10.618-.202 1.623-1.044 3.022-2.503 4.163.213.537.243 1.056.266 1.453.007.114.016.272.033.401.553-.118 1.766-.277 2.39 1.695 1.279 4.032-2.005 8.468-5.873 10.082a9.28 9.28 0 0 1-3.572.717 8.663 8.663 0 0 1-4.309-1.123 7.574 7.574 0 0 1-1.666-1.284.789.789 0 0 1-.072.042c-4.518 2.335-8.8 3.124-12.523 3.124-6.851 0-11.809-2.671-12.863-3.29a7.532 7.532 0 0 1-1.784 1.408zM41.986 6.59c.467.394.884.798 1.254 1.211.362-.813.633-1.763.438-2.265-.047-.118-.132-.25-.412-.334a3.195 3.195 0 0 0-2.577.314c.412.33.84.687 1.297 1.074zm3.221 4.45c.834-.997 2.558-3.724.534-7.486-.53-.986-1.249-1.562-2.196-1.76-1.87-.39-4.323.798-5.838 1.75.585.288 1.129.615 1.67.988.661-.509 2.242-1.445 4.337-.818.686.205 1.176.641 1.417 1.261.56 1.436-.448 3.495-.84 4.209a9.57 9.57 0 0 1 .916 1.856zm-29.355-1.029c.266-.431.54-.84.821-1.227-.443-.86-1.222-2.672-.716-3.973.241-.62.732-1.056 1.418-1.261 1.935-.58 3.432.176 4.17.695a16.565 16.565 0 0 1 1.732-.925c-1.392-.867-3.798-2.095-5.736-1.689-.946.198-1.664.773-2.194 1.76-1.798 3.341-.638 5.867.229 7.088.088-.157.18-.313.276-.468zm13.614-6.636c-.66 0-6.784.181-11.227 5.918a17.426 17.426 0 0 0-1.058 1.531 12.512 12.512 0 0 0-.738 1.383c-1.232 2.712-1.35 5.621-.274 8.02 1.194 2.666 3.708 4.417 7.27 5.063 9.498 1.725 17.322.202 19.029-3.705 1.866-4.27 3.383-9.699-1.49-13.81-3.505-2.957-4.926-3.916-11.454-4.4a.818.818 0 0 0-.058 0zM17.823 5.038c-.28.084-.366.216-.412.334-.18.46.033 1.296.349 2.058a16.903 16.903 0 0 1 2.376-2.217 3.17 3.17 0 0 0-2.313-.175zM29.94 51.705h-.037c-4.068-.015-7.899-2.309-8.992-3.889-1.838-2.657-2.481-11.986.05-14.92 3.045-3.528 10.85-2.325 11.576-2.205 3.052.204 5.418 1.734 6.664 4.312 1.747 3.617.993 8.792-1.877 12.879-1.757 2.501-4.31 3.822-7.384 3.823zm-1.154-19.751c-2.456 0-5.308.41-6.642 1.955-.859.994-1.35 3.484-1.285 6.497.061 2.796.61 5.48 1.335 6.528.772 1.116 4.102 3.204 7.714 3.217h.033c2.579 0 4.632-1.063 6.105-3.16 2.557-3.641 3.26-8.188 1.75-11.313-1.01-2.092-2.877-3.281-5.398-3.438a.748.748 0 0 1-.085-.01 22.073 22.073 0 0 0-3.527-.276zM2.642 48.794a.103.103 0 0 0-.025.003s-.161.09-.346.673c-.825 2.601.983 6.51 4.99 8.18 2.154.9 4.583.78 6.5-.32 1.573-.902 2.563-2.343 2.788-4.058.413-3.144-1.706-8.262-3.91-9.442-.616-.33-1.125-.292-1.641.127-.096.128-.312.422-.42.57-.064.204-.205.553-.6.737-.504.234-1.023.005-1.193-.07a8.723 8.723 0 0 1-.3-.142c-.624-.305-1.27-.62-2.505-.019-1.133.552-1.17 1.175-1.216 1.963-.029.488-.06 1.042-.424 1.497-.455.57-1.108.42-1.422.35-.082-.02-.212-.05-.276-.05zm7.991 8.704c-.291 0-.578-.033-.858-.1-1.283-.303-2.313-1.278-2.9-2.745-.555-1.386-.042-2.84 1.444-4.095a9.997 9.997 0 0 1 2.198-1.376.783.783 0 0 1 .193-.056c2.633-.406 4.208.804 4.806 2.072.731 1.55.252 3.392-1.221 4.693-1.194 1.054-2.465 1.607-3.662 1.607zm.423-6.852c-.54.262-3.408 1.746-2.733 3.432.394.983 1.037 1.625 1.812 1.809.925.219 2.033-.194 3.126-1.159.942-.832 1.274-1.958.844-2.869-.453-.96-1.586-1.41-3.049-1.213zm35.058-7.037c-.241 0-.494.073-.768.22-2.204 1.18-4.323 6.299-3.91 9.443.224 1.715 1.215 3.156 2.788 4.059 1.916 1.099 4.346 1.218 6.5.32 4.006-1.672 5.815-5.58 4.99-8.181-.185-.582-.346-.673-.348-.675-.046-.012-.204.026-.3.047-.313.072-.967.22-1.421-.349-.364-.455-.396-1.009-.424-1.497-.046-.788-.083-1.411-1.216-1.963-1.235-.602-1.881-.286-2.506.02a8.4 8.4 0 0 1-.3.14c-.17.076-.687.305-1.192.071-.41-.19-.546-.557-.602-.739l-.078-.107a.778.778 0 0 1-.369-.484c-.276-.218-.552-.325-.844-.325zm1.237 13.889c-1.196 0-2.468-.553-3.661-1.607-1.473-1.3-1.952-3.143-1.221-4.693.598-1.268 2.178-2.477 4.806-2.072.066.01.131.03.192.056 1.845.804 4.688 2.86 3.643 5.471-.587 1.467-1.617 2.442-2.9 2.746a3.71 3.71 0 0 1-.859.099zM46.275 50.6c-1.142 0-2.012.447-2.395 1.258-.43.91-.099 2.037.844 2.87 1.093.964 2.202 1.375 3.126 1.158.774-.184 1.418-.826 1.812-1.81.674-1.685-2.193-3.17-2.734-3.43a4.841 4.841 0 0 0-.653-.046z"/></g></g></svg>