<svg xmlns="http://www.w3.org/2000/svg" width="55" height="57"><path fill="#fff" d="M24.023 2.932s3.036-1.913 7.083-1.658a11.3 11.3 0 015.786 2.022c.365.26.915.198 1.225-.127.587-.614 1.539-1.418 2.39-1.257 1.35.255 3.036 1.275 3.795 3.655.758 2.38-.675 5.016-2.024 4.846l-.3-.039a.814.814 0 00-.906.915c.267 2.137.55 5.838-.236 7.557-.21.46-.09 1 .322 1.294 2.536 1.809 10.441 8.213 7.189 17.773-.473 1.39.176 1.138.737 1.284 1.959.508 5.916 2.082 5.916 6.496 0 5.833-.407 9.48-7.54 11.276a.88.88 0 01-.264.027c-.626-.033-3.182-.287-4.58-2.29-1.039-1.489-3.386-4.475-4.91-6.393a3.673 3.673 0 00-3.618-1.318l-2.02.414a.945.945 0 01-1.018-.495c-.237-.44-.655-.99-1.35-1.28a.979.979 0 01-.592-1.14c.428-1.725.6-5.472-4.629-8.274-.537-.287-.67-.947-.298-1.432.425-.554.82-1.481.822-3.015 0-.265.097-.525.292-.704.42-.388 1.131-1.159 1.131-1.943 0-1.053-.225-2.25-2.381-1.877a.93.93 0 01-.718-.184c-.754-.578-2.792-1.83-5.394-.92a.926.926 0 01-.962-.215c-.448-.447-1.334-.912-2.704.171a.998.998 0 00-.245.29l-.58 1.024s-.78 1.668.733 1.713c.088.002.154.083.12.165-.302.712-1.29 3.922.411 5.698.026.027 0 .285 0 .322v.836a.145.145 0 01-.096.14c-.47.168-2.548 1.068-4.035 4.218-1.215 2.572-.68 4.923-.286 6.038.15.422.447.77.836.986a.96.96 0 01.353 1.353c-.62.98-1.323 2.703-.103 4.37.39.532.233 1.174-.362 1.455-1.606.754-4.868 1.351-8.87-2.98-4.157-4.499-1.312-8.685.568-10.648a7.833 7.833 0 012.288-1.646l1.578-.754a.965.965 0 00.548-.945c-.155-1.914-.113-7.76 5.214-13.205l.009-.009c.128-.108 2.974-3.367 6.13-5.179.07-.039.072-.133.026-.197-.457-.646-2.616-4.18-.34-10.603l.083-.51s-2.023.085-2.613-.596c-.59-.68-1.18-3.103.59-5.27C17.842.185 20.447.015 20.883 0l.125.007c.342.046 1.97.32 2.046 1.31.084 1.105 0 1.784.337 1.955.337.17.632-.34.632-.34z"/></svg>