<svg xmlns="http://www.w3.org/2000/svg" viewBox="0 0 231.91 57.1"><g data-name="Слой 2"><g data-name="Layer 1"><path d="M24 3a13.22 13.22 0 017.1-1.7 10.94 10.94 0 015.8 2 .91.91 0 001.2-.1c.6-.6 1.5-1.4 2.4-1.3a5.3 5.3 0 013.8 3.7c.8 2.4-.7 5-2 4.8H42a.8.8 0 00-.9.7v.2c.3 2.1.5 5.8-.2 7.6a1.06 1.06 0 00.3 1.3c2.5 1.8 10.4 8.2 7.2 17.8-.5 1.4.2 1.1.7 1.3 2 .5 5.9 2.1 5.9 6.5 0 5.8-.4 9.5-7.5 11.3h-.3a6.12 6.12 0 01-4.6-2.3c-1-1.5-3.4-4.5-4.9-6.4a3.63 3.63 0 00-3.6-1.3l-2 .4a.88.88 0 01-1-.5 3 3 0 00-1.4-1.3 1 1 0 01-.6-1.1c.4-1.7.6-5.5-4.6-8.3a.91.91 0 01-.3-1.4 5.14 5.14 0 00.8-3 .91.91 0 01.3-.7 3.33 3.33 0 001.1-1.9c0-1.1-.2-2.2-2.4-1.9a.84.84 0 01-.7-.2 5.74 5.74 0 00-5.4-.9 1.23 1.23 0 01-1-.2c-.4-.4-1.3-.9-2.7.2-.1.1-.2.2-.2.3l-.6 1s-.8 1.7.7 1.7c.1 0 .2.1.1.2-.2.6-1.2 3.8.5 5.6v1.1c0 .1 0 .1-.1.1a8 8 0 00-4 4.2 7.9 7.9 0 00-.3 6 1.59 1.59 0 00.8 1 1 1 0 01.4 1.3 3.86 3.86 0 00-.1 4.4 1 1 0 01-.4 1.5c-1.6.8-4.9 1.4-8.9-3s-1.3-8.6.6-10.5A7.33 7.33 0 015 39.6l1.6-.8a.76.76 0 00.5-.9 17.55 17.55 0 015.2-13.3 29.68 29.68 0 016.1-5.2c.1 0 .1-.1 0-.2-.4-.6-2.5-4.1-.2-10.6v-.5s-2 .1-2.6-.6a4.48 4.48 0 01.6-5.3A6.49 6.49 0 0120.91 0H21c.3 0 2 .3 2 1.3s0 1.8.3 2S24 3 24 3z" fill="#472b59"/><path d="M61.71 23.8h3.6l1.2 3.3a20.16 20.16 0 01.7 2.3h.1c.2-.7.5-1.4.7-2.3l1.1-3.3h3.6V34h-2.8v-2.4c0-1.1.2-3.4.3-4.5h-.1c-.3.9-.7 2.1-1 2.9L68 33.1h-1.6L65.21 30c-.3-.9-.7-2.1-1-2.9h-.1c.1 1.2.3 3.4.3 4.5V34h-2.8V23.8zm22.4 0V34h-3.2v-3.2h-1l-2 3.2h-3.6L77 30.1a3.21 3.21 0 01-1.7-2.9c0-2.6 1.9-3.4 4.3-3.4zm-3.2 2.3H80q-1.5 0-1.5 1.2c0 .8.5 1.3 1.5 1.3h.9zm5.7-2.3h7.1v2.5h-3.9V34h-3.2zm18.9 10.2H102l-2.3-4h-1v4h-3.2V23.8h3.2v3.7h.9l.9-1.8a3.15 3.15 0 013.3-2.1c.3 0 .6.1.8.1l-.5 3c-.1 0-.3-.1-.4-.1-.5 0-.9.1-1.3 1l-.5 1.1zm1.4-10.2H110v2.7c0 1-.2 2.4-.3 3.6h.1c.3-.6.9-1.5 1.2-2.1l2.5-4.1h2.9V34h-3.1v-2.7c0-1 .2-2.4.3-3.6h-.1a14.32 14.32 0 01-1.2 2.1l-2.5 4.1h-2.9zm11.5 5.1a5.1 5.1 0 014.9-5.4c3 0 4.4 2.1 4.4 5 0 .6-.1 1.1-.1 1.4h-6a2.41 2.41 0 002.6 2 4.87 4.87 0 002.2-.6l1.1 1.9a6.51 6.51 0 01-3.7 1.2 5.22 5.22 0 01-5.4-5.5zm6.5-1.2c0-1-.5-1.8-1.6-1.8a1.93 1.93 0 00-1.9 1.8zm8.9-3.9h3.6l1.2 3.3a20.16 20.16 0 01.7 2.3h.1c.2-.7.5-1.4.7-2.3l1.1-3.3h3.6V34H142v-2.4c0-1.1.2-3.4.3-4.5h-.1c-.3.9-.7 2.1-1 2.9l-1.1 3.1h-1.7l-1-3.1c-.3-.9-.7-2.1-1-2.9h-.1c.1 1.2.3 3.4.3 4.5V34h-2.8zm13.7 0h3.1v2.7c0 1-.2 2.4-.3 3.6h.1c.3-.6.9-1.5 1.2-2.1l2.5-4.1H157V34h-3.1v-2.7c0-1 .2-2.4.3-3.6h-.1a14.32 14.32 0 01-1.2 2.1l-2.5 4.2h-2.9zm12 0h3.2v7.7h2.4v-7.7h3.1v7.7h2.4v-7.7h3.2V34h-14.1V23.8zm26.7 10.2h-3.5l-2.3-4h-1v4h-3.2V23.8h3.2v3.7h.9l.9-1.8a3.15 3.15 0 013.3-2.1c.3 0 .6.1.8.1l-.5 3c-.1 0-.3-.1-.4-.1-.5 0-.9.1-1.3 1l-.5 1.1zm1.4-10.2h3.1v2.7c0 1-.2 2.4-.3 3.6h.1c.3-.6.9-1.5 1.2-2.1l2.5-4.1h2.9V34H194v-2.7c0-1 .2-2.4.3-3.6h-.1a14.32 14.32 0 01-1.2 2.1l-2.5 4.1h-2.9zm12 8.5a1.9 1.9 0 111.9 2 1.92 1.92 0 01-1.9-2zm6.3-8.5h2.6l.2 1h.1a4.45 4.45 0 012.9-1.2c2.4 0 4 2.1 4 5.2 0 3.5-2.1 5.5-4.3 5.5a3.36 3.36 0 01-2.4-1.1l.1 1.6v2.9h-3.2V23.8zm6.5 5c0-1.8-.5-2.6-1.7-2.6a2.06 2.06 0 00-1.6.9V31a2 2 0 001.5.6c1 0 1.8-.8 1.8-2.8zM223 35.2l.1-1.5a3.88 3.88 0 01-1.9.6c-2.4 0-4-2-4-5.4s2-5.4 4-5.4a3.56 3.56 0 011.9.5l-.1-1.5v-3h3.1v3l-.1 1.6a5.09 5.09 0 012.1-.6c2.3 0 3.8 2.1 3.8 5.2 0 3.5-1.9 5.5-4 5.5a3.45 3.45 0 01-1.8-.5l.1 1.5v2.5h-3.1v-2.5zm.1-4v-4.8a1.67 1.67 0 00-1.1-.4c-.8 0-1.4.8-1.4 2.7s.6 2.8 1.5 2.8a1 1 0 001.01-.3zm5.5-2.4c0-1.8-.5-2.6-1.4-2.6a1.92 1.92 0 00-1.2.4v4.8a1.43 1.43 0 001.1.3c.81-.1 1.51-.9 1.51-2.9z"/></g></g></svg>